<svg height="100" width="100" xmlns="http://www.w3.org/2000/svg" viewBox="0 0 512 512"><path d="M256 33.13a66.33 66.33 0 00-66.26 66.26v145.78a66.26 66.26 0 10132.52 0V99.39A66.33 66.33 0 00256 33.13z"/><path d="M256 0a99.39 99.39 0 00-99.39 99.39v145.78a99.39 99.39 0 10198.78 0V99.39A99.39 99.39 0 00256 0zm66.26 245.17a66.26 66.26 0 11-132.52 0V99.39a66.26 66.26 0 01132.52 0z"/><path d="M239.43 410v68.86h-66.26a16.57 16.57 0 000 33.13h165.66a16.57 16.57 0 000-33.13h-66.26V410c86.18-8.36 153.78-81.2 153.78-169.54a16.57 16.57 0 10-33.13 0c0 75.66-61.56 137.22-137.22 137.22s-137.22-61.55-137.22-137.21a16.57 16.57 0 10-33.13 0c0 88.34 67.6 161.18 153.78 169.53z"/></svg>