<svg height="100" width="100" xmlns="http://www.w3.org/2000/svg" viewBox="0 0 512 512"><path d="M64.666 478a6.998 6.998 0 01-6.999-7V215.889a7.001 7.001 0 0111.404-5.441L226.64 338.004a6.999 6.999 0 010 10.88L69.071 476.44a6.988 6.988 0 01-4.405 1.56zm7.001-247.438v225.766L211.11 343.444 71.667 230.562zM447.334 478a6.988 6.988 0 01-4.405-1.56L285.36 348.885a6.999 6.999 0 010-10.88l157.568-127.556a7.001 7.001 0 0111.404 5.441V471a6.998 6.998 0 01-6.998 7zM300.89 343.444l139.443 112.883V230.562L300.89 343.444z"/><path d="M447.333 478H64.667a7 7 0 01-4.405-12.44l191.333-154.889a7 7 0 018.809 0L451.737 465.56a6.998 6.998 0 012.194 7.776 6.997 6.997 0 01-6.598 4.664zM84.439 464H427.56L256 325.117 84.439 464z"/><path d="M289.765 350.444c-1.561 0-3.12-.52-4.404-1.56L256 325.117l-29.36 23.768a6.997 6.997 0 01-8.809 0L60.263 221.33a7 7 0 010-10.882l75.333-60.984A6.998 6.998 0 01147 154.905V271c0 .782-.128 1.535-.365 2.237l75.601 61.201 29.36-23.768a7 7 0 018.809 0l29.36 23.768 74.131-60.011a6.974 6.974 0 01-.896-3.428V153.286a7.001 7.001 0 0111.404-5.441l77.333 62.603a7 7 0 010 10.882L294.169 348.885a6.983 6.983 0 01-4.404 1.559zM377 167.958v95.861l59.208-47.931L377 167.958zM75.792 215.889L133 262.2v-92.623l-57.208 46.312z"/><path d="M370 278a7 7 0 01-7-7V103.899L307.101 48H162c-8.271 0-15 6.729-15 15v208a7 7 0 11-14 0V63c0-15.991 13.009-29 29-29h148c1.856 0 3.637.737 4.949 2.05l60 60A6.997 6.997 0 01377 101v170a7 7 0 01-7 7z"/><path d="M370 108h-60a7 7 0 01-7-7V41a7 7 0 1114 0v53h53a7 7 0 110 14zM210 88h-30a7 7 0 110-14h30a7 7 0 110 14zm40 30h-70a7 7 0 110-14h70a7 7 0 110 14zm7.415 159.999h-.009a7 7 0 01-4.955-2.063l-.482-.484c-31.455-31.617-63.98-64.31-63.98-98.17 0-21.115 17.178-38.293 38.293-38.293 15.445 0 24.61 7.109 31.173 16.52 7.142-10.216 16.257-16.52 31.252-16.52 21.115 0 38.293 17.178 38.293 38.293 0 34.031-32.858 66.89-64.635 98.666a7 7 0 01-4.95 2.051zm-31.133-125.01c-13.395 0-24.293 10.898-24.293 24.293 0 26.664 27.454 55.606 55.437 83.802C285.548 232.88 313 203.946 313 177.282c0-13.395-10.897-24.293-24.293-24.293-11.47 0-17.556 4.759-25.045 19.586a7 7 0 01-6.248 3.844h-.029a7 7 0 01-6.245-3.896c-7.317-14.787-13.357-19.534-24.858-19.534zM180 448h-10a7 7 0 110-14h10a7 7 0 110 14zm40 0h-10a7 7 0 110-14h10a7 7 0 110 14zm40 0h-10a7 7 0 110-14h10a7 7 0 110 14zm40 0h-10a7 7 0 110-14h10a7 7 0 110 14zm40 0h-10a7 7 0 110-14h10a7 7 0 110 14z"/></svg>