<svg height="100" width="100" xmlns="http://www.w3.org/2000/svg" viewBox="0 0 319 203" fill-rule="evenodd" clip-rule="evenodd" shape-rendering="geometricPrecision" text-rendering="geometricPrecision" image-rendering="optimizeQuality"><path d="M37 0C17 0 0 17 0 37v129c0 20 17 37 37 37h244c21 0 38-17 38-37V37c0-20-17-37-38-37H37zM18 155V37l76 51-76 67zM29 19c3-1 6-1 8-1h244c4 0 8 1 11 3l3 1-134 89L29 23l-3-2 3-2zm272 21v115l-75-66 75-49zm-4 138c-4 5-9 8-16 8H37c-6 0-12-3-15-8l-2-2 90-78 47 31c3 2 6 2 9 0l45-29 87 76-1 2z"/></svg>