<svg height="100" width="100" xmlns="http://www.w3.org/2000/svg" viewBox="0 0 51 51"><circle cx="19.616" cy="8.224" r="5.009"/><path d="M35.511 23.012h-5.742s-3.973-8.055-7.35-8.055h-5.606c-1.483 0-2.888 1.006-3.99 2.123-.337.344-2.385 2.648-2.772 3.738L7.013 29.67a1.933 1.933 0 103.664 1.233l2.254-6.523v21.045c0 1.305 1.058 2.361 2.363 2.361s2.363-1.057 2.363-2.361l1.958-12.746 1.959 12.746a2.361 2.361 0 002.363 2.361 2.361 2.361 0 002.362-2.361V24.812l.913 1.264a1.93 1.93 0 001.567.801h6.73a1.934 1.934 0 00.002-3.865zM40.389 6.18c-2.359-.492-4.434 1.701-4.546 1.832-.112-.131-2.187-2.324-4.546-1.832-2.679.561-4.779 3.52-3.096 6.934 1.311 2.654 7.642 8.119 7.642 8.119s6.332-5.465 7.642-8.119c1.683-3.415-.417-6.374-3.096-6.934z"/></svg>