<svg height="100" width="100" xmlns="http://www.w3.org/2000/svg" viewBox="0 0 100 100"><path style="text-indent:0;text-transform:none;block-progression:tb" d="M32.467 7.985c-6.557-.022-13.637 3.022-18.874 8.682C9.191 21.425 6.7 27.592 6.125 33.564c-.575 5.971.76 11.875 4.5 15.834l34.935 36.98c.796.843 2.454 2.428 3 2.997a2 2 0 002.874 0c.546-.57 2.203-2.154 3-2.998L89.37 49.398c3.74-3.96 5.075-9.863 4.5-15.834-.575-5.972-3.066-12.139-7.468-16.897-8.38-9.055-21.43-11.402-29.623-5.247l-6.781 5.09-6.78-5.09c-3.074-2.308-6.816-3.422-10.75-3.435zm-.125 4.09c3.202-.012 6.18.843 8.468 2.562l8 5.997a2 2 0 002.374 0l8-5.997c6.102-4.584 17.082-3.03 24.28 4.747 3.735 4.037 5.943 9.465 6.436 14.586.493 5.12-.755 9.84-3.437 12.68L51.528 83.629c-.307.325-.932.939-1.531 1.53-.599-.591-1.224-1.205-1.531-1.53L13.53 46.649c-2.682-2.839-3.93-7.558-3.438-12.68.493-5.12 2.702-10.548 6.438-14.585 4.498-4.861 10.474-7.286 15.81-7.308zm17.436 12.931a2 2 0 00-1.781 2.03v3.03c-1.434.108-2.846.424-4.156.999-3.365 1.479-6.03 4.88-5.843 9.37a2 2 0 000 .03c.191 3.37 1.522 6.193 3.624 8.215 1.725 1.658 3.918 2.805 6.375 3.467v14.398a8.56 8.56 0 01-1-.406 2 2 0 00-.312-.125c-.269-.073-1.53-.656-2.563-1.5-1.032-.843-1.902-1.944-2.187-2.935a2 2 0 10-3.844 1.093c.619 2.15 2.063 3.76 3.5 4.935 1.337 1.092 2.575 1.754 3.75 2.123l-.031.031c.069.032.149.032.218.062.03.01.064.054.094.062.766.332 1.57.597 2.375.781v3.31a2 2 0 104 0v-3.029c1.437-.105 2.846-.424 4.156-1 3.365-1.478 6.03-4.848 5.843-9.338a2 2 0 000-.03c-.191-3.369-1.522-6.224-3.625-8.246-1.724-1.658-3.918-2.75-6.374-3.404v-14.43c.344.11.676.225 1 .375a2 2 0 00.312.125c.268.073 1.53.656 2.562 1.5 1.033.843 1.903 1.944 2.188 2.935a2 2 0 103.843-1.093c-.618-2.15-2.062-3.76-3.5-4.935-1.336-1.092-2.574-1.722-3.75-2.092l.032-.063c-.099-.046-.212-.05-.312-.093a14.207 14.207 0 00-2.375-.781v-3.342a2 2 0 00-2.219-2.03zm-1.781 9.089V47.93c-1.472-.518-2.693-1.228-3.625-2.123-1.382-1.33-2.226-3.064-2.375-5.56v-.03c-.111-2.967 1.267-4.544 3.438-5.498.771-.339 1.645-.535 2.562-.624zm4 19.02c1.472.509 2.693 1.197 3.625 2.092 1.382 1.33 2.226 3.064 2.374 5.56v.03c.112 2.968-1.266 4.544-3.437 5.498a8.447 8.447 0 01-2.562.656V53.115z" overflow="visible"/></svg>