<svg height="100" width="100" xmlns="http://www.w3.org/2000/svg" viewBox="0 0 32 32"><path d="M12.927 24.551H6.804c-1.037-2.746-2.005-3.609-3.885-5.287l-.467-.416C.815 17.379.886 16.967.898 16.925c.004-.012.049-.113.524-.17 2.134-.252 4.013 2.099 4.031 2.121a.335.335 0 00.597-.207l.002-1.779-.001-1.59.001-5.994c0-.213.083-.415.234-.565a.802.802 0 011.365.565v5.568a.335.335 0 10.67 0V8.362a.914.914 0 111.828 0v6.512a.334.334 0 10.67 0V8.553a.89.89 0 111.78 0v5.668a2.73 2.73 0 01.576-.156c.033-.004.063-.002.094-.007l.002-4.145a.726.726 0 011.45.001v4.209c.244.061.467.141.67.242V9.914a1.398 1.398 0 00-2.122-1.191v-.17a1.557 1.557 0 00-2.707-1.055 1.583 1.583 0 00-2.886.591 1.47 1.47 0 00-2.293 1.217L5.382 15.3l.001 1.59-.001.927c-.799-.771-2.31-1.927-4.038-1.727-.251.03-.918.11-1.084.633-.182.577.34 1.362 1.744 2.624l.469.418c1.904 1.699 2.772 2.473 3.783 5.238a.336.336 0 00.314.219h6.635a.333.333 0 00.33-.275 10.42 10.42 0 01.447-1.744 7.385 7.385 0 01-.576-.375 10.124 10.124 0 00-.479 1.723zm18.813-7.829c-.166-.522-.833-.603-1.084-.633-1.726-.199-3.238.956-4.037 1.727l-.002-.927.002-1.59-.002-5.994c0-.393-.152-.762-.43-1.039-.493-.494-1.325-.542-1.862-.178a1.582 1.582 0 00-2.886-.59 1.56 1.56 0 00-2.709 1.055v.169a1.398 1.398 0 00-2.122 1.192v4.451c.203-.1.426-.182.67-.241V9.915a.726.726 0 011.451-.002l.001 4.145c.032.005.063.003.095.007.195.029.388.083.575.156V8.553a.886.886 0 01.89-.891c.491 0 .891.4.891.891v6.321a.334.334 0 10.67 0v-6.51a.914.914 0 111.828-.001l-.001 6.511a.335.335 0 10.67 0l.001-5.568a.8.8 0 011.599.001l.001 5.994-.001 1.59.002 1.779c0 .143.09.27.225.316s.284.002.373-.109c.018-.021 1.91-2.373 4.03-2.121.476.057.521.158.524.17.014.042.083.455-1.553 1.923l-.468.416c-1.88 1.678-2.847 2.541-3.886 5.287h-6.121c-.131-.67-.293-1.24-.479-1.725a8.02 8.02 0 01-.578.375c.176.486.329 1.068.447 1.744.028.16.167.275.33.275h6.634a.333.333 0 00.315-.219c1.012-2.766 1.879-3.539 3.783-5.238l.469-.418c1.406-1.262 1.928-2.047 1.745-2.624z"/><path d="M20.793 18.646c.266-.957.124-1.958-.391-2.749-.42-.647-1.031-1.074-1.676-1.169-1.402-.208-2.123.33-2.727.867-.602-.537-1.325-1.076-2.727-.867-.643.095-1.254.521-1.676 1.169-.514.792-.656 1.793-.389 2.749 1.033 3.717 4.561 4.635 4.711 4.672a.272.272 0 00.162 0c.151-.037 3.678-.955 4.713-4.672zm-4.793 4c-.514-.156-3.299-1.133-4.146-4.18-.215-.771-.103-1.574.307-2.204.312-.479.766-.806 1.212-.872.179-.026.342-.039.494-.039.87 0 1.323.412 1.849.889l.061.055a.335.335 0 00.449 0l.063-.056c.615-.56 1.147-1.026 2.342-.849.447.066.9.393 1.213.872.408.63.52 1.432.306 2.204-.847 3.038-3.637 4.022-4.15 4.18z"/></svg>