<svg height="100" width="100" xmlns="http://www.w3.org/2000/svg" viewBox="0 0 846.66 846.66" fill-rule="evenodd" clip-rule="evenodd" shape-rendering="geometricPrecision" text-rendering="geometricPrecision" image-rendering="optimizeQuality"><path d="M673.84 261.65l110.46 91.38v440.14H62.36V353.03l110.45-91.38v-104.6h126.14L423.33 53.49l124.38 103.56h126.13v104.6zm-342.8 1.67H515.6v55.85H331.04v-55.85zm-47.62 88.85h279.82v55.84H283.42v-55.84zm-110.61-18.12l-33.86 28 33.86 19.57v-47.57zm55.85 79.82l194.67 112.36 194.66-112.36V212.9H228.66v200.97zm445.18-32.25l33.86-19.57-33.86-28v47.57zM478.96 558.33l105.24 60.76-27.71 48.23-438.28-253.01v323.01h610.24V414.31L478.96 558.33zm-55.63-432.42l-37.39 31.14h74.76l-37.37-31.14z" fill-rule="nonzero"/></svg>