<svg height="100" width="100" xmlns="http://www.w3.org/2000/svg" viewBox="0 0 512 512"><path d="M421 411c5.522 0 10-4.478 10-10V31c0-5.523-4.478-10-10-10H161c-5.523 0-10 4.477-10 10v30h-30c-5.523 0-10 4.477-10 10v170H61c-5.523 0-10 4.477-10 10v200c0 22.056 17.944 40 40 40h253c25.916 0 47-21.084 47-47v-33h30zM171 41h240v350h-20V71c0-5.523-4.478-10-10-10H171V41zm200 40v50H131V81h240zM71 451V261h40v190c0 11.028-8.972 20-20 20s-20-8.972-20-20zm300-7c0 14.888-12.112 27-27 27H125.619A39.744 39.744 0 00131 451V151h240v293z"/><circle cx="61" cy="71" r="10"/><circle cx="91" cy="211" r="10"/><circle cx="471" cy="91" r="10"/><circle cx="451" cy="291" r="10"/><circle cx="341" cy="351" r="10"/><path d="M341 171H161c-5.523 0-10 4.477-10 10v60c0 5.523 4.477 10 10 10h180c5.522 0 10-4.477 10-10v-60c0-5.523-4.478-10-10-10zm-10 60H171v-40h160v40zm10 50h-70c-5.522 0-10 4.478-10 10s4.478 10 10 10h70c5.522 0 10-4.478 10-10s-4.478-10-10-10zm0 30h-70c-5.522 0-10 4.478-10 10s4.478 10 10 10h70c5.522 0 10-4.478 10-10s-4.478-10-10-10zm-70 50h40c5.522 0 10-4.478 10-10s-4.478-10-10-10h-40c-5.522 0-10 4.478-10 10s4.478 10 10 10zm70 10h-70c-5.522 0-10 4.478-10 10s4.478 10 10 10h70c5.522 0 10-4.478 10-10s-4.478-10-10-10zm0 30H161c-5.523 0-10 4.478-10 10s4.477 10 10 10h180c5.522 0 10-4.478 10-10s-4.478-10-10-10zm0 30H161c-5.523 0-10 4.478-10 10s4.477 10 10 10h180c5.522 0 10-4.478 10-10s-4.478-10-10-10zm-190-70c0 5.522 4.477 10 10 10h80c5.523 0 10-4.478 10-10v-80c0-5.522-4.477-10-10-10h-80c-5.523 0-10 4.478-10 10v80zm20-10v-14.648l18.726-12.483 14.203 14.203a10 10 0 0012.618 1.249L231 329.685V351h-60zm60-60v14.648l-18.726 12.483-14.203-14.203a10 10 0 00-12.618-1.249L171 312.315V291h60zM91 161c0-16.542-13.458-30-30-30s-30 13.458-30 30 13.458 30 30 30 30-13.458 30-30zm-40 0c0-5.514 4.486-10 10-10s10 4.486 10 10-4.486 10-10 10-10-4.486-10-10zm395 260c-19.299 0-35 15.701-35 35s15.701 35 35 35 35-15.701 35-35-15.701-35-35-35zm0 50c-8.271 0-15-6.729-15-15s6.729-15 15-15 15 6.729 15 15-6.729 15-15 15z"/></svg>