<svg height="100" width="100" xmlns="http://www.w3.org/2000/svg" viewBox="0 0 100 100"><path d="M5273.1 2400.1v-2c0-2.8-5-4-9.7-4s-9.7 1.3-9.7 4v2c0 1.8.7 3.6 2 4.9l5 4.9c.3.3.4.6.4 1v6.4c0 .4.2.7.6.8l2.9.9c.5.1 1-.2 1-.8v-7.2c0-.4.2-.7.4-1l5.1-5c1.3-1.3 2-3.1 2-4.9zm-9.7-.1c-4.8 0-7.4-1.3-7.5-1.8.1-.5 2.7-1.8 7.5-1.8s7.3 1.3 7.5 1.8c-.2.5-2.7 1.8-7.5 1.8z"/><path d="M5268.4 2410.3c-.6 0-1 .4-1 1s.4 1 1 1h4.3c.6 0 1-.4 1-1s-.4-1-1-1h-4.3zm4.3 3.4h-4.3c-.6 0-1 .4-1 1s.4 1 1 1h4.3c.6 0 1-.4 1-1s-.4-1-1-1zm0 3.3h-4.3c-.6 0-1 .4-1 1s.4 1 1 1h4.3c.6 0 1-.4 1-1 0-.5-.4-1-1-1zM62.6 63.8l-6.9-.6c-.6-.1-1.2-.5-1.4-1l-2.7-6.4c-.6-1.4-2.5-1.4-3.1 0l-2.7 6.4c-.2.6-.8 1-1.4 1l-6.9.6c-1.5.1-2.1 2-1 3l5.3 4.5c.5.4.7 1.1.5 1.7l-1.6 6.7c-.3 1.5 1.2 2.6 2.5 1.8l5.9-3.6c.5-.3 1.2-.3 1.8 0l5.9 3.6c1.3.8 2.9-.4 2.5-1.8L57.7 73c-.1-.6.1-1.3.5-1.7l5.3-4.5c1.2-1 .5-2.9-.9-3zm2-28.4c-.6-5.5-5.3-9.6-10.8-9.6h-7.6c-5.5 0-10.1 4.1-10.8 9.6l-1.1 8.9c-.1 1.1.6 2.2 1.7 2.5 4.4.9 9.1 1.4 13.9 1.4s9.6-.5 13.9-1.4c1.1-.2 1.9-1.3 1.7-2.5l-.9-8.9z"/><circle cx="50" cy="12.8" r="10.3"/><path d="M22.8 75.1h-7.6c-5.5 0-10.1 4.1-10.8 9.6l-1.1 8.9c-.1 1.1.6 2.2 1.7 2.5 4.4.9 9.1 1.4 13.9 1.4 4.9 0 9.6-.5 13.9-1.4 1.1-.2 1.9-1.3 1.7-2.5l-1.1-8.9c-.5-5.5-5.1-9.6-10.6-9.6z"/><circle cx="19" cy="62.1" r="10.3"/><path d="M95.7 84.7c-.6-5.5-5.3-9.6-10.8-9.6h-7.6c-5.5 0-10.1 4.1-10.8 9.6l-1.1 8.9c-.1 1.1.6 2.2 1.7 2.5 4.4.9 9.1 1.4 13.9 1.4 4.9 0 9.6-.5 13.9-1.4 1.1-.2 1.9-1.3 1.7-2.5l-.9-8.9z"/><circle cx="81" cy="62.1" r="10.3"/></svg>