<svg height="100" width="100" xmlns="http://www.w3.org/2000/svg" viewBox="0 0 100 100"><path style="text-indent:0;text-transform:none;block-progression:tb" d="M13.458 33.519c.854 2.742 1.539 5.579 2.114 7.795-4.973 1.213-8.844 3.016-11.422 7.379-.673.6-.85 1.678-.405 2.462 7.734 13.36 9.702 20.632 11.157 33.595 1.46 4.886 5.368 7.094 10.033 5.956 21.993-7.423 46.323-13.895 65.51-17.412 3.898-1.105 6.035-4.768 6.055-9.313-.313-18.56-3.855-33.435-10.521-49.828-1.917-5.15-6.46-5.8-11.023-4.695-16.133 7.896-34.312 12.698-55.316 14.615-5.254.282-7.057 5.66-6.182 9.444zm6.703-5.485c21.233-1.95 39.758-6.863 56.279-14.902 2.75-.73 4.794.588 5.852 2.644 6.496 16.007 9.837 30.196 10.149 48.217-.504 2.298-1.082 4.863-2.89 5.409C68.79 73.159 51.217 77.62 31.8 84.145c.272-4.595-1.349-9.543-2.591-13.153-5.953-13.092-8.158-26.46-11.87-38.503-.31-2.602 1.048-4.036 2.82-4.457zm4.073 6.632a26.25 26.25 0 003.387 12.49c.39.698 1.233 1.118 2.029 1.011 17.24-2.473 32.634-7.577 50.799-13.418.972-.307 1.593-1.437 1.327-2.416-.886-4.093-1.393-8.494-3.325-12.023-.455-.802-1.516-1.207-2.393-.915-16.23 5.33-33.346 10.865-50.124 13.272-1.034.214-1.473 1.278-1.7 1.999zM75.459 23.78c1.11 2.587 1.576 5.136 2.051 7.682-16.85 5.425-31.283 10.084-46.923 12.489a21.974 21.974 0 01-2.12-7.697c16.31-3.283 32.817-7.858 46.992-12.475zM16.424 45.056c1.822 9.316 6.209 19.245 8.978 27.236.774 3.786 4.28 10.211 1.493 13.54-3.545 1.262-6.932 2.067-8.068-1.83C17.39 71.404 15.115 63.189 7.86 50.389c1.812-3.158 5.696-4.66 8.564-5.333zm59.107-5.07c-8.287 3.201-17.724 5.69-24.967 6.805-1.332.194-2.123 1.96-1.376 3.074 1.485 1.948 2.506 4.047 1.874 5.955-.435 1.269.8 2.783 2.142 2.626 7.733-.988 14.128-2.93 19.058-4.626 4.93-1.697 8.667-3.037 9.832-3.055.827-.013 1.613-.588 1.872-1.367 1.168-3.878.392-8.067-2.993-10.079-1.92-.466-3.745.114-5.442.667zM32.674 51.528c-1.062.412-1.576 1.829-1.023 2.82 3.895 6.951 5.583 13.29 5.476 20.195-.028 1.239 1.345 2.3 2.549 1.97l9.703-2.569c.861-.227 1.504-1.088 1.48-1.972-.152-8.454-1.853-14.726-5.998-22.122-.435-.764-1.419-1.173-2.272-.947-3.295.876-6.636 1.754-9.915 2.625zm46.785-8.323c1.198 1.115 1.173 2.555.901 3.923-2.582.435-5.424 1.539-9.415 2.912a97.035 97.035 0 01-15.635 3.946c-.017-1.502-.557-2.686-1.295-3.818 9.34-.63 17.71-5.436 25.444-6.963zM36.265 54.706l5.793-1.53c3.077 5.83 4.42 10.762 4.701 17.337l-5.762 1.522c-.73-6.386-2.385-12.579-4.732-17.329zm16.014 6.082l.612 3.935c11.774.268 21.577-6.725 32.801-8.718l-.262-3.963c-12.007 2.102-21.636 8.78-33.15 8.745zm1.568 5.779l.612 3.935c11.774.267 21.576-6.726 32.8-8.718l-.262-3.963c-11.037 1.845-21.636 8.78-33.15 8.745z" overflow="visible" color="#000"/></svg>