<svg height="100" width="100" xmlns="http://www.w3.org/2000/svg" viewBox="0 0 100 100"><path d="M75.4 35H59.7c2.2-.7 4.4-1.7 6.2-3.5 2.6-2.6 4.5-5.7 5.3-8.6.9-3.3.4-6.2-1.5-8.1s-4.7-2.4-8.1-1.5c-3 .8-6 2.7-8.6 5.3-1.5 1.5-2.5 3.3-3.2 5.2-.7-1.8-1.7-3.7-3.2-5.2-2.6-2.7-5.6-4.5-8.6-5.3-3.3-.9-6.2-.4-8.1 1.5s-2.4 4.7-1.5 8.1c.8 3 2.7 6 5.3 8.6 1.8 1.8 4 2.9 6.2 3.5H24.2c-2.2 0-4 1.8-4 4v8.6c0 2.2 1.8 4 4 4h1.1v30.1c0 2.2 1.8 4 4 4h41c2.2 0 4-1.8 4-4V51.5h1.1c2.2 0 4-1.8 4-4V39c0-2.2-1.8-4-4-4zM53 81.6h-6.4V51.8H53zm-6.4-34.1V39H53v8.5zm9.2-26.1c4.4-4.4 9.3-5.5 11-3.8.8.8 1 2.3.5 4.2-.6 2.3-2.2 4.8-4.3 6.8-3 3-8 3.3-10.6 3.3.1-2.6.4-7.6 3.4-10.5zm-23.5.4c-.5-1.9-.3-3.4.5-4.2.5-.5 1.3-.8 2.3-.8 2.3 0 5.7 1.5 8.8 4.6 3 3 3.3 8 3.3 10.6-2.9 0-7.8-.5-10.6-3.3-2.1-2.2-3.7-4.7-4.3-6.9zM24.2 39h18.4v8.5H24.1V39zm5.1 12.5h13.3v30.1H29.3zm41 30.1H57V51.5h13.3zm5.1-34.1H57V39h18.4z"/></svg>