<svg height="100" width="100" xmlns="http://www.w3.org/2000/svg" viewBox="0 0 512 512"><path d="M451.873 26.106v-.034c0-7.363-7.49-12.094-14.021-9.221-.554.238-387.383 175.56-391.852 177.586a10 10 0 00.8 18.539l140.931 49.741 1.307 83.44a10.002 10.002 0 005.875 8.954 10.003 10.003 0 0010.604-1.494l70.296-59.813 160.44 56.626c6.46 2.283 13.278-2.489 13.328-9.357l2.291-314.958.001-.009zm-60.736 33.867l-195.91 184.179L76.901 202.39 391.137 59.973zM208.704 324.645l-.859-54.829 46.154 16.289-45.295 38.54zm7.752-73l176.956-166.36-90.042 145.451c-2.906 4.696-1.456 10.859 3.239 13.766 4.696 2.908 10.859 1.456 13.767-3.239L431.614 61.571l-1.93 265.332-213.228-75.258zm-7.133 127.201a42.985 42.985 0 01-18.072 10.79c-2.376-16.828-11.51-32.588-26.353-42.958-4.781-3.339-10.219-5.104-15.726-5.104-9.943 0-19.414 5.841-24.126 14.881-4.683 8.983-3.911 19.455 2.066 28.014 9.856 14.102 25.195 23.911 42.951 26.372a43.012 43.012 0 01-28.853 28.837c-2.487-17.609-12.233-33.346-26.946-43.368-4.596-3.132-9.827-4.787-15.125-4.787-9.897 0-19.376 5.834-24.149 14.863-4.674 8.842-4.049 19.133 1.672 27.527 9.648 14.155 25.063 24.433 43.36 26.969a42.976 42.976 0 01-10.783 18.048c-3.905 3.905-3.906 10.237 0 14.143 3.906 3.905 10.237 3.905 14.142 0a62.95 62.95 0 0017.336-32.707c25.339-4.852 45.188-24.686 50.041-50.042a62.954 62.954 0 0032.707-17.334c3.905-3.905 3.906-10.237 0-14.143-3.905-3.906-10.237-3.906-14.142-.001zM93.188 422.648c-1.56-2.289-1.734-4.616-.517-6.917 1.331-2.519 3.93-4.21 6.467-4.21 1.283 0 2.583.442 3.864 1.315a43.127 43.127 0 0118.158 27.985c-8.593-1.532-16.502-5.638-22.799-11.935a43.406 43.406 0 01-5.173-6.238zm50.319-49.634c-1.725-2.47-1.969-4.931-.727-7.313 1.287-2.469 3.855-4.127 6.392-4.127 1.41 0 2.848.505 4.272 1.5a43.112 43.112 0 0117.757 27.708c-8.594-1.531-16.501-5.637-22.798-11.933a43.811 43.811 0 01-4.896-5.835zM111.873 116c16.542 0 30-13.458 30-30s-13.458-30-30-30-30 13.458-30 30 13.458 30 30 30zm0-40c5.514 0 10 4.486 10 10s-4.486 10-10 10-10-4.486-10-10 4.486-10 10-10zm235 290c-24.813 0-45 20.187-45 45s20.187 45 45 45 45-20.187 45-45-20.186-45-45-45zm0 70c-13.785 0-25-11.215-25-25s11.215-25 25-25 25 11.215 25 25-11.215 25-25 25z"/><circle cx="51.873" cy="246" r="10"/><circle cx="91.873" cy="346" r="10"/><circle cx="461.873" cy="396" r="10"/><circle cx="261.873" cy="426" r="10"/><circle cx="241.873" cy="46" r="10"/><circle cx="71.873" cy="146" r="10"/></svg>