<svg height="100" width="100" xmlns="http://www.w3.org/2000/svg" viewBox="0 0 512 512"><path d="M228.332 458.872c-6.678 0-12.956-2.601-17.678-7.323L74.58 315.475c-9.747-9.747-9.747-25.607 0-35.354l219.668-219.67c4.722-4.722 11-7.323 17.678-7.323 6.677 0 12.955 2.601 17.677 7.323l136.074 136.073c9.748 9.748 9.748 25.608.001 35.356L246.009 451.549c-4.721 4.722-10.999 7.323-17.677 7.323zm83.594-399.744a18.881 18.881 0 00-13.436 5.565L78.823 284.362c-7.408 7.408-7.408 19.462 0 26.87l136.074 136.074c3.589 3.589 8.36 5.565 13.435 5.565s9.846-1.977 13.435-5.565l219.669-219.668c7.407-7.409 7.407-19.463-.001-26.872L325.36 64.694a18.871 18.871 0 00-13.434-5.566z"/><path d="M118.555 291.15a3 3 0 01-.239-5.99l167.401-13.572 13.573-167.401c.133-1.651 1.583-2.892 3.232-2.748a3 3 0 012.748 3.233l-13.779 169.942a3 3 0 01-2.748 2.748L118.8 291.141a3.363 3.363 0 01-.245.009z"/><path d="M237.976 410.57a3 3 0 01-2.996-2.889l-4.594-124.012a3 3 0 012.887-3.109c1.642-.024 3.047 1.232 3.109 2.887l4.594 124.012a3 3 0 01-2.887 3.109l-.113.002zm183.725-183.721c-.037 0-.075 0-.113-.002l-124.012-4.594a3.002 3.002 0 01-2.887-3.109 2.993 2.993 0 013.109-2.887l124.012 4.594a3 3 0 01-.109 5.998zM220 79H50a3 3 0 110-6h170a3 3 0 110 6zm-30 40H50a3 3 0 110-6h140a3 3 0 110 6zm-40 40H50a3 3 0 110-6h100a3 3 0 110 6zm-40 40H50a3 3 0 110-6h60a3 3 0 110 6z"/></svg>