<svg xmlns="http://www.w3.org/2000/svg" viewBox="0 0 100 100"><path d="M94.9 62.3a19.4 19.4 0 00-.5-2v-.4a18.9 18.9 0 00-1.4-3.3L79.4 24.4a11.5 11.5 0 00-22.8 2H43.4a11.5 11.5 0 00-22.8-2L7 56.6a18.9 18.9 0 00-1.3 3.2v.4a19.4 19.4 0 00-.5 2 19.1 19.1 0 0015.3 22.2l3.3.3a19.1 19.1 0 0018.8-15.8v-.6a19.1 19.1 0 00.1-4.8v-4.2h14.5v4.2a19.1 19.1 0 00.1 4.8v.6a19.1 19.1 0 0018.8 15.8l3.3-.3a19.1 19.1 0 0015.5-22.1zM62 22.6a7.6 7.6 0 0113.6 3 2 2 0 00.3.7l9.5 22.6A19 19 0 0061.1 54l-.4-25.5v-.3a7.5 7.5 0 011.3-5.6zm-18.8 7.9h13.6l.2 14.4H43zm-15.7-9.8a7.6 7.6 0 0111.8 7.5v.3L38.9 54a19 19 0 00-24.3-5.1l9.5-22.6a2 2 0 00.3-.7 7.5 7.5 0 013.1-4.9zm-6.3 59.7A15.1 15.1 0 019 63a15.3 15.3 0 01.4-1.7l1.2-2.9a15 15 0 0113.1-7.8l2.6.2a15.1 15.1 0 0112.5 12.9v4.5a15.1 15.1 0 01-17.6 12.2zm21.7-25.1v-6.4H57v6.5zm35.9 25.1a15.1 15.1 0 01-17.5-12.2v-4.5a15.1 15.1 0 0112.3-12.9l2.6-.2a15 15 0 0113.1 7.8l1.2 2.9A15.3 15.3 0 0191 63a15.1 15.1 0 01-12.2 17.4z"/></svg>