<svg xmlns="http://www.w3.org/2000/svg" viewBox="0 0 100 100"><path d="M85.8 11.4H73.5V8.8c0-2.5-2-4.5-4.5-4.5s-4.5 2-4.5 4.5v2.6H35.4V8.8c0-2.5-2-4.5-4.5-4.5s-4.5 2-4.5 4.5v2.6H14.2c-6.4 0-11.7 5.2-11.7 11.7V84c0 6.4 5.2 11.7 11.7 11.7h71.7c6.4 0 11.7-5.2 11.7-11.7V23.1c-.1-6.5-5.3-11.7-11.8-11.7zm-71.6 9h12.3V23c0 2.5 2 4.5 4.5 4.5s4.5-2 4.5-4.5v-2.6h29.1V23c0 2.5 2 4.5 4.5 4.5s4.5-2 4.5-4.5v-2.6h12.3c1.5 0 2.7 1.2 2.7 2.7V35H11.5V23.1c0-1.5 1.2-2.7 2.7-2.7zm71.6 66.3H14.2c-1.5 0-2.7-1.2-2.7-2.7V43.9h77.1V84c-.1 1.5-1.3 2.7-2.8 2.7z"/></svg>