<svg height="100" width="100" xmlns="http://www.w3.org/2000/svg" viewBox="0 0 1024 1024"><path d="M737 568.2v194.3c0 10.9.7 22.2-.6 33 .6-4.4 1.2-8.9 1.8-13.3-.9 6.7-2.7 13.1-5.2 19.4 1.7-4 3.4-8 5-11.9-2.6 6.1-5.9 11.7-9.9 17 2.6-3.4 5.2-6.7 7.8-10.1-4.1 5.2-8.7 9.8-13.8 13.8 3.4-2.6 6.7-5.2 10.1-7.8-5.3 4-10.9 7.3-17 9.9 4-1.7 8-3.4 11.9-5-6.3 2.6-12.7 4.3-19.4 5.2 4.4-.6 8.9-1.2 13.3-1.8-7.4.9-15 .6-22.5.6H228.2c-21.4 0-42.8.1-64.2 0-3.4 0-6.7-.2-10.1-.6 4.4.6 8.9 1.2 13.3 1.8-6.7-.9-13.1-2.7-19.4-5.2 4 1.7 8 3.4 11.9 5-6.1-2.6-11.7-5.9-17-9.9 3.4 2.6 6.7 5.2 10.1 7.8-5.2-4.1-9.8-8.7-13.8-13.8 2.6 3.4 5.2 6.7 7.8 10.1-4-5.3-7.3-10.9-9.9-17 1.7 4 3.4 8 5 11.9-2.6-6.3-4.3-12.7-5.2-19.4.6 4.4 1.2 8.9 1.8 13.3-.9-7.4-.6-15-.6-22.5V302.7c0-21.4-.1-42.8 0-64.2 0-3.4.2-6.7.6-10.1-.6 4.4-1.2 8.9-1.8 13.3.9-6.7 2.7-13.1 5.2-19.4-1.7 4-3.4 8-5 11.9 2.6-6.1 5.9-11.7 9.9-17-2.6 3.4-5.2 6.7-7.8 10.1 4.1-5.2 8.7-9.8 13.8-13.8-3.4 2.6-6.7 5.2-10.1 7.8 5.3-4 10.9-7.3 17-9.9-4 1.7-8 3.4-11.9 5 6.3-2.6 12.7-4.3 19.4-5.2-4.4.6-8.9 1.2-13.3 1.8 14-1.7 28.6-.6 42.7-.6H485c15.2 0 30.4.2 45.6 0h.6c12.8 0 26.3-5.6 35.4-14.6 8.7-8.7 15.2-22.9 14.6-35.4-.6-12.9-4.8-26.3-14.6-35.4-9.8-9-21.8-14.6-35.4-14.6H222.9c-19.8 0-39.5-.2-59.3 0-21.9.2-43.6 5.9-62.6 16.7-19.2 11-36.3 28.1-46.9 47.4-11 20.1-16.1 42-16.1 64.9v542c0 25.7 7 52.5 22.6 73.3 4.3 5.8 8.7 11.8 13.8 17 5.4 5.5 11.8 10.1 17.9 14.7 9.2 6.9 19.4 11.3 30.2 15.4 13 5.1 27.6 7 41.5 7.1h540.1c12.4 0 24.6-.9 36.8-3.6 44.1-9.8 82-47.7 92.2-91.7 3.7-15.7 3.7-30.9 3.7-46.7V567.6c0-12.8-5.6-26.3-14.6-35.4-8.7-8.7-22.9-15.2-35.4-14.6-12.9.6-26.3 4.8-35.4 14.6-8.8 10.4-14.4 22.4-14.4 36zm248.9-197.5V162.6c0-27-22.9-50-50-50H727.8c-12.8 0-26.3 5.6-35.4 14.6-8.7 8.7-15.2 22.9-14.6 35.4.6 12.9 4.8 26.3 14.6 35.4 9.8 9 21.8 14.6 35.4 14.6h208.1l-50-50v208.1c0 12.8 5.6 26.3 14.6 35.4 8.7 8.7 22.9 15.2 35.4 14.6 12.9-.6 26.3-4.8 35.4-14.6 8.9-9.8 14.6-21.8 14.6-35.4z"/><path d="M483.3 685.9l13-13 35.4-35.4 52.7-52.7 64-64 70.1-70.1 70.7-70.7 66.3-66.3 55.7-55.7 40.1-40.1c6.4-6.4 12.8-12.6 19.1-19.1l.8-.8c9.1-9.1 14.6-22.5 14.6-35.4 0-12.3-5.4-26.9-14.6-35.4-9.5-8.7-22-15.2-35.4-14.6-13.3.6-25.8 5.1-35.4 14.6l-13 13-35.4 35.4-52.7 52.7-64 64-70.1 70.1-70.7 70.7-66.3 66.3-55.7 55.7-40.1 40.1c-6.4 6.4-12.8 12.6-19.1 19.1l-.8.8c-9.1 9.1-14.6 22.5-14.6 35.4 0 12.3 5.4 26.9 14.6 35.4 9.5 8.7 22 15.2 35.4 14.6 13.3-.6 25.8-5.1 35.4-14.6z"/></svg>