<svg xmlns="http://www.w3.org/2000/svg" viewBox="0 0 1000 1000"><path d="M814.8 654.1c2.7-14.6 4.6-29.3 4.7-44 .7-184.2-99.4-256-205.4-317.4 30.7 161.3-68.6 260.9-192 226C602.4 223.7 340 223 420.2 10c-123.3 87.6-247 332.8-246.7 511.7.1 47.3 4.8 91.2 13.6 131.4-88.7 35.6-144.4 86-144.4 141.9 0 107.4 205.5 195 457.4 195 251.9 0 457.3-87.6 457.3-195-.1-55.4-55.1-105.4-142.6-140.9zM325 419.9c-34.1 153.8 57.3 268.4 145.4 269.5 99.3.7 158.3-92.1 186.3-213.8 52.8 40.3 80.1 96.5 83.5 153.7-.2 0-.3-.1-.4-.1 4 64.9-22.5 131.1-77.6 177.5-.3.3-.6.5-.9.7-11.9 9.9-25 18.8-39.5 26.6-1.3.7-2.6 1.3-3.9 2-5.8 3-11.8 5.8-17.9 8.4-1.8.8-3.6 1.5-5.4 2.3-15.1 6.1-31.4 11-48.9 14.7-2.4.5-4.9.9-7.4 1.4-6.6 1.2-13.3 2.2-20.2 3.1-2.7.3-5.3.7-8.1 1-9.4.9-18.9 1.6-28.8 1.8-6.9.1-13.8-.1-20.5-.6-1.8-.1-3.6-.3-5.3-.4-5.8-.5-11.5-1.2-17.1-2.2-1.1-.2-2.1-.3-3.2-.5-6.8-1.2-13.5-2.7-20.1-4.6-.8-.2-1.6-.5-2.4-.7-6.2-1.8-12.2-3.8-18.2-6.1-.6-.2-1.3-.5-1.9-.7-81.7-32.1-141.1-111.7-137.9-222.3-.1 0-.3.1-.4.1C256 569.2 277.1 498 325 419.9z"/></svg>