<svg height="100" width="100" xmlns="http://www.w3.org/2000/svg" viewBox="0 0 100 100"><path d="M91.8 8.1c-4-4-9.4-6.2-15.3-6.2-6.5 0-12.9 2.7-17.7 7.5L41.4 27c-7.9 7.9-9.8 20.2-4.3 29 .9 1.4 1.9 2.7 3 3.9 1.1 1.1 2.4 2.2 3.8 3l.8.5 2.3-2.3c1.3-1.3 2.2-3.1 2.5-4.8.3-1.9-.1-3.6-1.2-4.7-4.2-4.2-3.6-11.6 1.3-16.6l17.6-17.6c2.6-2.6 6.1-4.1 9.5-4.1 2.8 0 5.3 1 7.1 2.8 2 2 3.2 4.7 3.2 7.6 0 2.9-1.1 5.6-3.2 7.6L69.4 45.8l.2.7c1.2 3.6 1.6 7.3 1.3 11.2l-.3 3.2 21.1-21.1c4.2-4.2 6.5-9.8 6.5-15.8.2-6-2.1-11.6-6.4-15.9z"/><path d="M23.4 98c6.5 0 12.9-2.7 17.7-7.5L58.6 73c7.9-7.9 9.8-20.2 4.3-29-.9-1.4-1.9-2.7-3-3.9-1.1-1.1-2.4-2.2-3.8-3l-.8-.5-2.3 2.3c-1.3 1.3-2.2 3.1-2.5 4.8-.3 1.9.1 3.6 1.2 4.7 4.2 4.2 3.6 11.6-1.3 16.6L32.9 82.4c-2.6 2.6-6.1 4.1-9.5 4.1-2.8 0-5.3-1-7.1-2.8-2-2-3.2-4.7-3.2-7.6 0-2.9 1.1-5.6 3.2-7.6l14.2-14.2-.2-.7c-1.2-3.5-1.6-7.3-1.3-11.2l.3-3.2-21.1 21c-8.7 8.7-8.7 22.9 0 31.6 3.9 4 9.4 6.2 15.2 6.2z"/></svg>