<svg xmlns="http://www.w3.org/2000/svg" viewBox="0 0 100 100"><path d="M60.26 60.26a5.62 5.62 0 01-7.95-7.95 11.64 11.64 0 000-16.47l-19.2-19.21a11.65 11.65 0 00-16.48 16.48L28.1 44.57c-1.67 5.16-2.24 10.16-.57 15.32L8.69 41.05A22.88 22.88 0 0141.05 8.69L60.26 27.9a22.91 22.91 0 010 32.36z"/><path d="M39.74 39.74a5.62 5.62 0 017.95 7.95 11.64 11.64 0 000 16.47l19.2 19.21a11.65 11.65 0 0016.48-16.48l-12-12c1.55-4.78 2.23-9.35.91-14.18A5.58 5.58 0 0174.37 42l16.94 17A22.88 22.88 0 0159 91.31L39.74 72.1a22.91 22.91 0 010-32.36z"/></svg>