<svg xmlns="http://www.w3.org/2000/svg" viewBox="0 0 20 20"><path d="M9.98 2.463c1.209 0 2.194 1.032 2.194 2.301v4.987c0 1.268-.984 2.3-2.194 2.3s-2.193-1.032-2.193-2.3V4.764c0-1.268.984-2.301 2.193-2.301M9.98 1C7.96 1 6.324 2.686 6.324 4.764v4.987c0 2.08 1.637 3.763 3.656 3.763s3.656-1.684 3.656-3.763V4.764C13.636 2.686 11.999 1 9.98 1z"/><path d="M15.911 10.082a.73.73 0 10-1.461 0c0 2.588-1.996 4.692-4.449 4.692s-4.449-2.104-4.449-4.692a.731.731 0 00-1.462 0c0 3.135 2.265 5.727 5.18 6.102v2.085a.73.73 0 101.461 0v-2.085c2.915-.375 5.18-2.967 5.18-6.102z"/></svg>