<svg height="100" width="100" xmlns="http://www.w3.org/2000/svg" viewBox="0 0 1024 1024"><path d="M921.5 273.1v418.4c0 17.5.1 35 0 52.5 0 4.7-.3 9.3-.9 14 .4-2.7.7-5.3 1.1-8-1.3 8.9-3.6 17.5-7.1 25.9l3-7.2c-2.6 6.1-5.7 11.9-9.4 17.3-.7 1.1-1.5 2.1-2.3 3.2-2.9 4.1 5.4-6.5.7-.9-2 2.3-4 4.6-6.2 6.7s-4.4 4.2-6.7 6.2c-5.6 4.7 5-3.5.9-.7-1.1.8-2.1 1.5-3.2 2.3-5.5 3.7-11.3 6.8-17.3 9.4l7.2-3c-8.3 3.5-16.9 5.8-25.9 7.1 2.7-.4 5.3-.7 8-1.1-9.7 1.2-19.5.9-29.2.9H174.9c-4.8 0-9.5-.3-14.3-.9 2.7.4 5.3.7 8 1.1-8.9-1.3-17.5-3.6-25.9-7.1l7.2 3c-6.1-2.6-11.9-5.7-17.3-9.4-1.1-.7-2.1-1.5-3.2-2.3-4.1-2.9 6.5 5.4.9.7-2.3-2-4.6-4-6.7-6.2-2.2-2.2-4.2-4.4-6.2-6.7-4.7-5.6 3.5 5 .7.9-.8-1.1-1.5-2.1-2.3-3.2-3.7-5.5-6.8-11.3-9.4-17.3l3 7.2c-3.5-8.3-5.8-16.9-7.1-25.9.4 2.7.7 5.3 1.1 8-1.1-8.6-.9-17.3-.9-26V248.5c0-23.5.6-47 0-70.5v-1l-30 30h597.2c27.5 0 55.2.6 82.7 0h1.1l-30-30v533c0 10.4.1 20.8 0 31.2-.2 15.4 1.4 31 5 46 3.8 15.7 10.2 31.7 19.9 44.7 14 18.8 31.8 32.4 54.3 39.5 11.6 3.7 24.3 5.1 36.4 5.3 15.7.2 30.7-13.9 30-30-.7-16.4-13.2-29.8-30-30-4.6-.1-9.2-.4-13.7-1 2.7.4 5.3.7 8 1.1-7.2-1-14.3-2.8-21.1-5.6l7.2 3c-4.9-2.1-9.6-4.6-13.9-7.7-.5-.4-1-.7-1.5-1.1-2.7-1.9 6.6 5.4 3.6 2.7-.9-.8-1.8-1.5-2.7-2.4-1.9-1.7-3.6-3.5-5.3-5.3-.8-.9-1.5-1.8-2.3-2.6-3.2-3.7 4.8 6.7 2.1 2.7-1.4-2-2.8-4-4-6-2.4-4-4.5-8.3-6.4-12.6l3 7.2c-4.3-10.3-7-21.2-8.5-32.2.4 2.7.7 5.3 1.1 8-2.2-16.8-1.3-34.3-1.3-51.2V256.4c0-26.1.4-52.2 0-78.3V177c0-16.2-13.7-30-30-30H156.2c-27.6 0-55.2-.5-82.7 0h-1.1c-16.2 0-30 13.7-30 30v565.9c0 24.9 6.6 50.2 20.1 71.3 19.7 30.8 52.3 54.2 88.8 59.8 17.3 2.7 34.3 2.2 51.7 2.2h639.8c6.3 0 12.5 0 18.7-.7 19.9-2.3 38.7-7.6 56-18 16.6-10 30.1-23.3 41.2-39 15.5-21.7 23-49 23-75.4V273.2c0-15.7-13.8-30.7-30-30-16.4.6-30.2 13.1-30.2 29.9z"/><path d="M819.8 274.4v418.1c0 19.3-.4 38.6 0 57.9v.8c0 15.7 13.8 30.7 30 30 16.3-.7 30-13.2 30-30V333.1c0-19.3.4-38.6 0-57.9v-.8c0-15.7-13.8-30.7-30-30-16.3.8-30 13.2-30 30zm-634.3 79.7h397.3c18.3 0 36.6.4 54.9 0h.8c15.7 0 30.7-13.8 30-30-.7-16.3-13.2-30-30-30H241.2c-18.3 0-36.6-.4-54.9 0h-.8c-15.7 0-30.7 13.8-30 30 .7 16.3 13.1 30 30 30zm453 62H241.2c-18.3 0-36.6-.4-54.9 0h-.8c-15.7 0-30.7 13.8-30 30 .7 16.3 13.2 30 30 30h397.3c18.3 0 36.6.4 54.9 0h.8c15.7 0 30.7-13.8 30-30-.7-16.2-13.2-30-30-30zm-453 182h286c15.7 0 30.7-13.8 30-30-.7-16.3-13.2-30-30-30h-286c-15.7 0-30.7 13.8-30 30 .7 16.3 13.1 30 30 30zm286 62.1h-286c-15.7 0-30.7 13.8-30 30 .7 16.3 13.2 30 30 30h286c15.7 0 30.7-13.8 30-30-.7-16.3-13.2-30-30-30z"/></svg>