<svg height="100" width="100" xmlns="http://www.w3.org/2000/svg" viewBox="0 0 28 32"><path d="M6.75 19.402H5.415v1.991H6.75c.536 0 .96-.472.96-.968-.001-.559-.424-1.023-.96-1.023zm5.373.04h-1.327v3.582h1.327c2.159 0 2.254-3.582 0-3.582z"/><path d="M23 15H1c-.55 0-1 .45-1 1v10c0 .55.45 1 1 1h22c.551 0 1-.45 1-1V16c0-.55-.449-1-1-1zM6.75 22.393H5.415v1.056c0 .352-.224.551-.512.551a.539.539 0 01-.543-.552v-4.501c0-.264.208-.553.543-.553H6.75c1.04 0 1.976.696 1.976 2.031-.001 1.264-.936 1.968-1.976 1.968zM12.195 24h-1.903c-.264 0-.552-.145-.552-.496v-4.541c0-.288.288-.496.552-.496h1.831c3.654 0 3.574 5.533.072 5.533zm7.125-4.494h-2.328v1.271h2.039c.289 0 .576.288.576.568 0 .264-.287.479-.576.479h-2.039v1.679c0 .28-.199.496-.479.496-.352 0-.568-.216-.568-.496v-4.541c0-.288.217-.496.568-.496h2.807c.352 0 .559.208.559.496a.55.55 0 01-.559.544z"/><path d="M27 7.586L20.414 1C19.836.42 18.82 0 18 0H7C5.346 0 4 1.346 4 3v10a1 1 0 102 0V3c0-.551.448-1 1-1h9a2 2 0 012 2v3.75A2.257 2.257 0 0020.25 10H24a2 2 0 012 2v17a1 1 0 01-1 1H7c-.552 0-1-.449-1-1a1 1 0 10-2 0c0 1.654 1.346 3 3 3h18c1.654 0 3-1.346 3-3V10c0-.819-.42-1.835-1-2.414z"/></svg>