<svg height="100" width="100" xmlns="http://www.w3.org/2000/svg" viewBox="0 0 500 500"><path d="M381 215.8c0 4.7-.2 9.3-.5 14l-.6 6.9c-.1.5-.1.9-.2 1.4-.3 2.2-.2 1.8.2-1.2.3.9-.5 3.1-.6 4.1-1.5 9.3-3.8 18.5-6.7 27.5-.7 2.1-1.4 4.2-2.2 6.3-.5 1.4-1.3 5.4-2.4 6.2.2-.1 2-4.5.5-1.1-.5 1-.9 2-1.3 3-1 2.2-2.1 4.4-3.1 6.5-4.1 8.2-8.9 16.1-14.2 23.6-1 1.4-2.5 4.3-3.9 5.3 3.1-2.1 1.6-2.1.3-.4-.7.8-1.4 1.7-2.1 2.5-3.1 3.7-6.3 7.2-9.6 10.7-3 3.1-6.2 6.1-9.4 9-1.6 1.5-3.3 2.9-4.9 4.3-.7.6-1.3 1.1-2 1.7-.7.5-1.4 1.1-2 1.6 2.2-1.7 2.6-2 1.5-1.1-7.4 5.2-14.6 10.3-22.5 14.6-3.8 2.1-7.8 4.1-11.8 5.9-1 .5-2 .9-3 1.4-2.7 1.2-1 1.7.5-.2-1 1.3-6 2.3-7.4 2.9-8.6 3.1-17.5 5.6-26.5 7.4-2.2.4-4.5.8-6.7 1.2-.8.1-2.6.8-3.4.5 2 .6 3.7-.4 1.2-.2-5.1.5-10.1 1-15.2 1.2-9.8.4-19.5-.1-29.2-1.2-3.8-.4 1 .3 1.2.2-.8.3-3.2-.5-4.1-.6-2.2-.4-4.5-.8-6.7-1.2-4.6-.9-9.2-2.1-13.8-3.3-4.3-1.2-8.5-2.6-12.7-4.1-2.1-.8-4.1-1.7-6.2-2.4-2.8-.9 4.6 2.1.5.2-1.2-.5-2.4-1.1-3.6-1.6-8.4-3.9-16.4-8.3-24.1-13.4-1.8-1.2-3.6-2.4-5.4-3.7-1.5-1.1-4.2-2.4-5.3-3.9 1.7 2.4 2.5 2 1 .7-1-.8-2-1.6-3-2.5-1.8-1.5-3.7-3.1-5.4-4.7-6.6-6-12.8-12.4-18.5-19.3-.8-1-1.6-2-2.5-3-1.2-1.5-1.7-.7.7 1-1.5-1-2.8-3.7-3.9-5.3-2.8-3.9-5.4-7.9-7.9-12.1-2.3-3.8-4.4-7.6-6.4-11.5-1-2-2-3.9-2.9-5.9-.4-.8-.7-1.6-1.1-2.4-.4-.8-.7-1.6-1.1-2.4 1.2 2.7 1.3 3.1.5 1.1-3.2-8.4-6-16.8-8.1-25.5-1.1-4.4-2-8.8-2.7-13.3-.1-.9-.9-3.3-.6-4.1-.1.2.6 5 .2 1.2-.3-2.7-.6-5.5-.8-8.2-.7-9.7-.7-19.6.1-29.3.2-2.3.4-4.6.7-6.9.3-2.4-.8-.7-.2 1.2-.3-.9.5-3.1.6-4.1.7-4.5 1.6-8.9 2.7-13.3 1-4.4 2.3-8.7 3.6-12.9l2.1-6.3c.5-1.5 1.6-6.5 2.9-7.4-1.9 1.5-1.4 3.2-.2.5.5-1 .9-2 1.4-3 .9-2 1.9-4 2.9-5.9 2.2-4.3 4.5-8.5 7-12.6 2.3-3.7 4.7-7.4 7.2-10.9 1.1-1.5 2.4-4.3 3.9-5.3-.3.2-3 3.7-.7 1 .8-1 1.6-2 2.5-3 5.8-7 12.2-13.6 19-19.7 1.6-1.5 3.3-2.9 4.9-4.3.8-.7 1.7-1.4 2.5-2.1 1.6-1.3 1.7-2.8-.4.3 1-1.4 3.9-2.9 5.3-3.9 2.1-1.5 4.3-3 6.5-4.4 7.5-4.9 15.5-9.2 23.6-13 1-.5 2-.9 3-1.3 3.4-1.5-1 .3-1.1.5.8-1.1 4.8-1.9 6.2-2.4 4.6-1.7 9.3-3.2 14-4.5 4.3-1.2 8.7-2.3 13.1-3.2 2.2-.5 4.5-.9 6.7-1.2 1.1-.2 2.3-.3 3.4-.5 1.5-.2.9-.1-1.9.3l2.7-.3c9.5-1.1 19-1.4 28.5-1 4.6.2 9.2.5 13.8 1.1 1.4.2 4.6 1-.6-.1.9.2 1.8.3 2.7.4 2.7.4 5.4.9 8 1.4 9.2 1.9 18.3 4.4 27.1 7.7 1.5.5 5.3 1.3 6.2 2.4-1-1.2-3.4-1.5-1.1-.5 1.2.5 2.4 1.1 3.6 1.6 4.2 1.9 8.3 4 12.3 6.3 3.8 2.1 7.6 4.4 11.2 6.8 1.8 1.2 3.6 2.4 5.4 3.7 1.6 1.1 4.7 2.6 5.8 4.3-.7-.5-1.3-1-2-1.5.7.5 1.4 1.1 2 1.6.7.5 1.4 1.1 2 1.7 1.7 1.4 3.3 2.8 4.9 4.3 3.6 3.2 7 6.5 10.3 10 3 3.1 5.9 6.4 8.7 9.7.6.7 1.1 1.3 1.7 2 .3.3.5.7.8 1 1.3 1.7 1.1 1.4-.7-1 1.8 1.2 3.4 4.6 4.6 6.3 5 7.2 9.5 14.7 13.5 22.5 1 2 2 3.9 2.9 5.9.6 1.2 1.1 2.4 1.6 3.6 1 2.3.8-.2-.5-1.1 1.1.9 1.9 4.7 2.4 6.2.9 2.5 1.8 5 2.6 7.6 2.9 9 5.1 18.2 6.5 27.6.1.9.2 1.8.4 2.7-1.2-5.6-.2-1.1 0 .1.2 2.1.4 4.1.6 6.2.5 4.4.7 9.2.7 14.1 0 10.5 9.2 20.5 20 20s20-8.8 20-20c-.2-42-13-84.1-37.6-118.3-24.8-34.4-58.5-60.3-98.3-75-79.3-29.2-173.3-3.7-226.9 61.7-27.5 33.5-43.9 73.8-47.3 117-3.3 41.9 7.2 85.1 29 120.9 21 34.5 52.4 63.2 89.3 79.9 40.5 18.3 85.2 23.6 128.8 14.7 81.2-16.5 147.6-85.3 160.1-167.3 1.7-11.2 2.8-22.3 2.9-33.6 0-10.5-9.2-20.5-20-20s-19.9 8.8-20 20z"/><path d="M333.3 361.7l40.6 40.6 65.2 65.2 14.9 14.9c7.4 7.4 21 8 28.3 0 7.3-8 7.9-20.4 0-28.3l-40.6-40.6-65.2-65.2-14.9-14.9c-7.4-7.4-21-8-28.3 0-7.3 8-7.9 20.4 0 28.3z"/></svg>