<?xml version="1.0" encoding="UTF-8"?>
<svg width="500px" height="148px" viewBox="0 0 500 148" version="1.1" xmlns="http://www.w3.org/2000/svg" xmlns:xlink="http://www.w3.org/1999/xlink">
    <!-- Generator: Sketch 58 (84663) - https://sketch.com -->
    <title>vocalo-logo-oneline</title>
    <desc>Created with Sketch.</desc>
    <g id="Page-1" stroke="none" stroke-width="1" fill="none" fill-rule="evenodd">
        <g id="vocalo-logo-oneline" fill-rule="nonzero">
            <g id="91.1" transform="translate(426.000000, 74.500000) scale(1, -1) translate(-426.000000, -74.500000) translate(352.000000, 16.000000)" fill="#FDBA31">
                <path d="M16.343617,115.694484 C5.34361704,112.994484 -1.05638296,97.4944838 0.143617044,76.4944838 C0.943617044,61.1944838 5.94361704,46.8944838 11.743617,43.0944838 C15.043617,40.9944838 31.043617,40.9944838 36.143617,43.1944838 C42.143617,45.6944838 47.643617,55.3944838 49.443617,66.6944838 C49.843617,68.9944838 50.443617,70.7944838 50.943617,70.7944838 C53.343617,70.7944838 50.643617,46.6944838 46.743617,32.7944838 C44.043617,23.2944838 37.843617,9.59448381 36.443617,10.0944838 C34.943617,10.5944838 32.243617,15.4944838 28.243617,24.5944838 C26.343617,29.0944838 24.043617,32.6944838 22.943617,33.1944838 C21.043617,33.9944838 5.34361704,32.5944838 4.24361704,31.4944838 C3.44361704,30.6944838 10.743617,14.7944838 14.543617,9.09448381 C19.643617,1.39448381 24.343617,-0.705516187 34.943617,0.194483813 C52.543617,1.69448381 58.643617,7.19448381 65.743617,28.3944838 C70.443617,42.3944838 72.143617,54.0944838 71.643617,69.2944838 C71.043617,84.9944838 68.143617,95.2944838 61.543617,104.994484 C55.243617,114.194484 51.943617,115.594484 34.343617,116.194484 C26.443617,116.494484 18.643617,116.294484 16.343617,115.694484 Z M27.943617,96.5944838 C30.943617,87.2944838 31.143617,74.4944838 28.443617,63.9944838 C27.443617,59.9944838 26.243617,56.5944838 25.843617,56.2944838 C24.743617,55.5944838 22.043617,65.9944838 20.843617,74.8944838 C20.243617,79.6944838 20.243617,84.8944838 20.943617,89.2944838 C22.043617,97.2944838 23.843617,103.794484 24.843617,103.794484 C25.243617,103.794484 26.643617,100.494484 27.943617,96.5944838 Z" id="Shape"></path>
                <path d="M92.543617,113.094484 C90.943617,112.794484 89.443617,111.894484 89.143617,110.994484 C88.743617,110.094484 88.143617,108.994484 87.643617,108.694484 C86.143617,107.694484 78.843617,77.8944838 78.843617,72.8944838 C78.843617,71.5944838 79.743617,70.7944838 81.843617,70.2944838 L84.743617,69.6944838 L84.043617,58.4944838 C83.643617,52.2944838 83.343617,37.3944838 83.343617,25.2944838 L83.343617,3.29448381 L90.543617,3.39448381 C94.543617,3.49448381 98.843617,3.79448381 100.143617,4.19448381 L102.443617,4.69448381 L103.643617,34.4944838 C104.743617,60.9944838 107.643617,98.2944838 109.443617,109.694484 L110.143617,113.794484 L102.743617,113.694484 C98.643617,113.594484 94.043617,113.294484 92.543617,113.094484 Z" id="Path"></path>
                <path d="M129.843617,97.8944838 C127.643617,97.2944838 127.143617,96.1944838 125.143617,87.4944838 C124.043617,82.1944838 122.743617,75.5944838 122.343617,72.7944838 C121.643617,67.8944838 121.643617,67.7944838 124.343617,67.7944838 L127.143617,67.7944838 L126.343617,43.8944838 L125.643617,20.0944838 L128.143617,19.3944838 C130.443617,18.8944838 137.143617,19.2944838 142.443617,20.2944838 C144.443617,20.6944838 144.543617,21.4944838 145.243617,46.4944838 C145.643617,60.6944838 146.443617,77.9944838 147.143617,84.9944838 C148.143617,95.5944838 148.143617,97.8944838 147.043617,98.2944838 C145.143617,98.9944838 132.843617,98.6944838 129.843617,97.8944838 Z" id="Path"></path>
                <path d="M110.943617,24.1944838 C108.643617,21.1944838 108.243617,15.8944838 109.943617,12.4944838 C111.543617,9.59448381 112.743617,8.79448381 116.043617,8.79448381 C119.543617,8.79448381 122.343617,12.7944838 122.343617,17.7944838 C122.343617,25.9944838 115.343617,29.7944838 110.943617,24.1944838 Z" id="Path"></path>
            </g>
            <g id="Vocalo" transform="translate(170.000000, 74.000000) scale(1, -1) translate(-170.000000, -74.000000) " fill="#000000">
                <path d="M124.173399,144.554266 C110.273399,137.654266 93.2733993,117.954266 59.1733993,69.5542658 C52.0733993,59.3542658 42.6733993,45.6542658 38.2733993,39.1542658 C29.7733993,26.3542658 28.0733993,25.9542658 31.3733993,37.2542658 C33.5733993,44.7542658 37.8733993,53.1542658 49.0733993,71.7542658 C63.9733993,96.6542658 70.0733993,111.254266 70.2733993,122.554266 C70.4733993,133.454266 65.4733993,139.154266 54.6733993,140.254266 C42.6733993,141.454266 28.6733993,135.554266 17.8733993,124.654266 C9.17339932,115.954266 4.77339932,108.254266 1.87339932,96.9542658 C-1.72660068,82.9542658 -0.126600683,72.3542658 6.57339932,66.5542658 C11.1733993,62.4542658 12.4733993,63.0542658 12.0733993,69.1542658 C10.6733993,90.5542658 22.6733993,113.354266 40.0733993,122.054266 C54.2733993,129.154266 54.8733993,126.354266 44.2733993,104.054266 C41.8733993,99.1542658 35.4733993,87.4542658 29.8733993,78.0542658 C24.3733993,68.7542658 18.2733993,57.9542658 16.4733993,54.0542658 C7.87339932,36.1542658 7.47339932,17.6542658 15.4733993,5.55426582 C18.1733993,1.45426582 22.2733993,-0.945734182 24.3733993,0.354265818 C25.1733993,0.754265818 33.5733993,12.8542658 43.1733993,27.1542658 C70.6733993,68.5542658 88.1733993,92.3542658 107.873399,115.554266 C117.473399,126.954266 123.473399,132.054266 133.073399,137.554266 C139.473399,141.254266 140.973399,143.454266 138.873399,146.054266 C136.873399,148.454266 130.673399,147.854266 124.173399,144.554266 Z" id="Path"></path>
                <path d="M279.573399,130.554266 C273.873399,126.654266 265.973399,117.554266 257.673399,105.254266 C250.473399,94.4542658 245.073399,83.3542658 241.373399,71.2542658 C239.173399,64.2542658 237.973399,61.9542658 235.473399,60.1542658 C228.973399,55.2542658 224.073399,56.2542658 225.773399,62.1542658 C226.273399,63.7542658 229.673399,71.5542658 233.373399,79.5542658 C242.473399,99.0542658 242.173399,98.3542658 239.873399,99.5542658 C236.673399,101.254266 231.173399,100.754266 229.073399,98.5542658 L227.173399,96.5542658 L225.373399,98.5542658 C222.573399,101.654266 216.573399,102.854266 210.773399,101.654266 C198.873399,99.0542658 189.973399,91.1542658 182.373399,76.4542658 C177.073399,65.9542658 174.073399,62.2542658 168.873399,59.5542658 C162.673399,56.3542658 158.673399,56.1542658 155.473399,58.6542658 C152.773399,60.7542658 152.673399,61.1542658 153.173399,67.1542658 C154.073399,79.4542658 163.873399,94.5542658 170.873399,94.5542658 C173.673399,94.5542658 173.873399,94.2542658 173.873399,90.7542658 C173.873399,88.0542658 172.873399,85.4542658 170.873399,82.4542658 C167.873399,77.9542658 168.173399,75.8542658 171.673399,76.9542658 C180.573399,79.8542658 186.273399,94.0542658 180.573399,99.3542658 C177.273399,102.454266 172.973399,103.054266 166.273399,101.054266 C155.973399,98.0542658 148.873399,91.8542658 141.973399,79.5542658 C136.873399,70.5542658 136.073399,70.7542658 136.273399,81.2542658 C136.373399,88.4542658 135.973399,90.7542658 134.273399,94.0542658 C125.873399,110.154266 100.273399,101.454266 89.5733993,78.8542658 C86.8733993,73.0542658 86.3733993,70.9542658 86.3733993,64.5542658 C86.3733993,58.8542658 86.8733993,56.0542658 88.4733993,53.0542658 C94.8733993,40.6542658 112.073399,42.3542658 125.273399,56.5542658 C128.073399,59.6542658 131.873399,62.6542658 133.573399,63.3542658 C136.673399,64.3542658 136.773399,64.3542658 137.373399,60.4542658 C138.773399,52.3542658 144.873399,46.5542658 152.773399,45.7542658 C159.973399,45.0542658 166.273399,47.1542658 173.473399,52.6542658 L179.673399,57.3542658 L180.873399,54.4542658 C181.573399,52.8542658 183.673399,50.1542658 185.573399,48.5542658 C191.173399,43.6542658 197.973399,44.6542658 206.973399,51.6542658 L210.573399,54.4542658 L212.173399,50.9542658 C215.873399,43.2542658 227.573399,44.1542658 236.773399,52.8542658 C239.373399,55.3542658 240.273399,55.7542658 240.673399,54.5542658 C240.973399,53.7542658 242.873399,51.3542658 245.073399,49.1542658 C248.573399,45.5542658 249.173399,45.3542658 253.373399,45.7542658 C258.773399,46.4542658 264.573399,49.3542658 271.973399,55.1542658 L277.673399,59.5542658 L279.973399,54.8542658 C282.973399,49.0542658 286.373399,46.4542658 292.173399,45.8542658 C299.673399,44.9542658 306.073399,47.7542658 314.273399,55.5542658 C320.173399,61.0542658 322.673399,62.7542658 329.173399,65.0542658 C338.473399,68.3542658 340.273399,69.8542658 338.873399,72.6542658 C337.673399,74.8542658 337.073399,74.8542658 330.973399,73.4542658 C328.573399,72.9542658 326.473399,72.6542658 326.173399,72.8542658 C325.973399,73.0542658 326.373399,75.5542658 326.973399,78.4542658 C329.173399,88.7542658 324.873399,97.8542658 316.373399,101.154266 C312.573399,102.554266 311.173399,102.654266 307.273399,101.654266 C300.673399,99.9542658 295.973399,97.3542658 291.073399,92.5542658 C285.473399,87.2542658 281.173399,80.3542658 279.273399,73.8542658 C278.173399,70.0542658 276.573399,67.5542658 273.073399,64.3542658 C263.873399,55.7542658 254.973399,52.2542658 254.073399,56.8542658 C253.273399,60.8542658 255.373399,64.3542658 264.673399,73.9542658 C280.373399,90.2542658 288.073399,100.554266 294.373399,113.754266 C300.173399,125.854266 298.273399,132.254266 288.673399,133.254266 C285.073399,133.654266 283.573399,133.254266 279.573399,130.554266 Z M289.273399,116.354266 C284.173399,106.154266 266.573399,82.0542658 259.373399,75.5542658 L256.673399,73.0542658 L257.373399,75.5542658 C259.573399,83.2542658 277.673399,111.354266 286.873399,121.254266 C290.873399,125.554266 291.373399,125.854266 291.673399,123.854266 C291.873399,122.654266 290.773399,119.354266 289.273399,116.354266 Z M125.973399,92.4542658 C127.373399,89.8542658 126.473399,83.7542658 123.873399,77.8542658 C122.373399,74.3542658 121.473399,73.5542658 119.373399,73.5542658 C117.773399,73.5542658 115.573399,72.3542658 113.773399,70.5542658 C111.173399,68.0542658 110.773399,66.9542658 111.073399,63.3542658 C111.373399,59.5542658 111.073399,58.9542658 108.573399,57.7542658 C102.573399,54.8542658 97.9733993,59.1542658 99.3733993,66.4542658 C100.173399,70.6542658 104.073399,78.5542658 108.273399,84.3542658 C114.473399,93.1542658 123.373399,97.1542658 125.973399,92.4542658 Z M220.973399,92.4542658 C224.173399,86.3542658 215.373399,66.8542658 206.573399,60.4542658 C202.373399,57.3542658 197.173399,56.6542658 195.073399,58.7542658 C194.373399,59.4542658 193.873399,62.0542658 193.873399,64.6542658 C193.873399,72.7542658 202.973399,88.1542658 210.273399,92.6542658 C214.573399,95.2542658 219.473399,95.1542658 220.973399,92.4542658 Z M316.373399,92.8542658 C318.473399,90.7542658 317.873399,85.1542658 314.973399,78.2542658 C313.273399,74.2542658 312.573399,73.5542658 310.073399,73.5542658 C305.273399,73.5542658 301.173399,67.6542658 302.873399,63.0542658 C303.673399,61.0542658 303.373399,60.3542658 301.573399,59.0542658 C298.773399,57.0542658 294.473399,57.1542658 292.373399,59.2542658 C287.073399,64.4542658 297.373399,86.0542658 308.373399,92.6542658 C312.073399,94.9542658 314.273399,95.0542658 316.373399,92.8542658 Z" id="Shape"></path>
            </g>
        </g>
    </g>
</svg>