<?xml version="1.0" encoding="UTF-8"?>
<svg width="567px" height="420px" viewBox="0 0 567 420" version="1.1" xmlns="http://www.w3.org/2000/svg" xmlns:xlink="http://www.w3.org/1999/xlink">
    <!-- Generator: Sketch 58 (84663) - https://sketch.com -->
    <title>vocalo-stacked</title>
    <desc>Created with Sketch.</desc>
    <g id="Page-1" stroke="none" stroke-width="1" fill="none" fill-rule="evenodd">
        <g id="vocalo-stacked" fill-rule="nonzero">
            <g id="91.1" transform="translate(283.360927, 301.316769) scale(1, -1) translate(-283.360927, -301.316769) translate(133.360927, 183.316769)" fill="#FCB325">
                <path d="M42.6390731,234.316769 C32.0390731,232.916769 25.7390731,230.516769 20.6390731,225.716769 C6.73907306,212.716769 -2.36092694,179.216769 0.539073059,151.516769 C4.03907306,117.916769 15.5390731,89.916769 28.0390731,84.816769 C33.2390731,82.716769 42.5390731,82.116769 55.1390731,83.216769 C71.9390731,84.716769 77.0390731,86.416769 82.8390731,92.316769 C90.7390731,100.416769 98.6390731,119.716769 101.839073,138.516769 C103.539073,148.116769 104.639073,145.016769 104.639073,130.816769 C104.639073,99.716769 94.9390731,56.716769 82.1390731,31.016769 C76.5390731,19.816769 74.9390731,17.616769 73.6390731,18.916769 C71.2390731,21.316769 61.2390731,40.816769 56.5390731,52.316769 C53.7390731,59.216769 50.7390731,65.416769 49.8390731,66.116769 C46.7390731,68.516769 15.6390731,66.616769 10.3390731,63.716769 C8.93907306,62.916769 9.43907306,61.316769 13.5390731,51.316769 C25.7390731,21.916769 35.8390731,7.11676897 46.9390731,2.21676897 C51.4390731,0.21676897 53.7390731,-0.0832310303 64.6390731,0.0167689697 C99.0390731,0.21676897 113.239073,9.21676897 126.939073,39.316769 C133.639073,54.116769 140.539073,78.516769 144.339073,101.016769 C147.039073,117.416769 146.839073,150.216769 143.839073,163.916769 C137.639073,192.516769 126.039073,215.016769 112.139073,225.516769 C104.739073,231.116769 99.9390731,232.416769 85.3390731,233.016769 C78.3390731,233.316769 72.3390731,234.016769 72.0390731,234.416769 C71.4390731,235.416769 50.6390731,235.416769 42.6390731,234.316769 Z M56.5390731,196.516769 C58.1390731,191.116769 60.1390731,184.116769 60.8390731,180.816769 C62.6390731,172.216769 62.3390731,146.716769 60.3390731,136.816769 C58.0390731,125.716769 53.4390731,111.116769 52.5390731,112.016769 C51.4390731,113.116769 46.1390731,131.416769 44.5390731,139.816769 C43.6390731,144.316769 43.1390731,153.616769 43.1390731,165.816769 C43.1390731,182.516769 43.4390731,185.916769 45.4390731,193.616769 C46.7390731,198.516769 48.5390731,204.116769 49.3390731,206.116769 C50.7390731,209.416769 50.9390731,209.616769 52.1390731,207.916769 C52.9390731,206.916769 54.8390731,201.816769 56.5390731,196.516769 Z" id="Shape"></path>
                <path d="M192.539073,228.216769 C183.039073,227.016769 180.739073,225.916769 180.039073,222.316769 C179.639073,220.716769 178.639073,219.116769 177.639073,218.816769 C176.339073,218.416769 174.739073,214.016769 171.239073,201.016769 C166.039073,181.416769 158.239073,143.716769 159.139073,142.316769 C159.439073,141.716769 162.439073,141.316769 165.839073,141.316769 L171.939073,141.316769 L171.239073,133.616769 C168.939073,105.416769 166.339073,36.916769 166.839073,18.316769 L167.139073,6.81676897 L172.639073,6.21676897 C179.139073,5.51676897 197.739073,6.81676897 203.939073,8.41676897 L208.339073,9.51676897 L209.039073,40.116769 C210.439073,102.716769 214.639073,164.516769 221.039073,216.316769 C222.139073,225.016769 222.139073,228.016769 221.339073,228.516769 C219.739073,229.516769 200.939073,229.316769 192.539073,228.216769 Z" id="Path"></path>
                <path d="M271.139073,198.616769 C269.539073,198.416769 265.739073,197.816769 262.939073,197.216769 C257.139073,196.116769 257.939073,197.316769 254.639073,184.616769 C251.739073,173.416769 245.339073,138.316769 246.039073,137.616769 C246.239073,137.316769 248.839073,136.916769 251.739073,136.616769 L257.139073,136.116769 L256.539073,124.416769 C256.139073,118.016769 255.539073,96.316769 255.039073,76.116769 L254.339073,39.516769 L258.139073,38.716769 C262.839073,37.916769 280.339073,38.816769 287.239073,40.316769 L292.339073,41.416769 L292.939073,78.116769 C293.739073,122.516769 294.939073,144.516769 299.239073,189.916769 L299.939073,197.016769 L295.339073,198.116769 C291.039073,199.216769 277.839073,199.516769 271.139073,198.616769 Z" id="Path"></path>
                <path d="M227.939073,52.316769 C223.039073,49.316769 220.239073,43.116769 220.239073,35.316769 C220.339073,23.316769 228.039073,14.916769 236.839073,17.416769 C248.839073,20.616769 251.639073,41.616769 241.439073,50.816769 C236.939073,54.916769 232.839073,55.316769 227.939073,52.316769 Z" id="Path"></path>
            </g>
            <g id="Vocalo" transform="translate(283.708718, 123.047713) scale(1, -1) translate(-283.708718, -123.047713) translate(0.208718, 0.047713)" fill="#000000">
                <path d="M214.191282,244.047713 C194.291282,237.547713 169.091282,212.047713 128.991282,157.347713 C111.491282,133.547713 81.9912822,91.4477135 64.6912822,65.6477135 C57.2912822,54.6477135 50.6912822,45.5477135 49.9912822,45.2477135 C47.8912822,44.6477135 49.4912822,53.9477135 53.4912822,66.0477135 C57.5912822,78.6477135 63.1912822,89.3477135 80.6912822,118.547713 C96.6912822,145.047713 107.491282,166.547713 112.491282,181.447713 C115.391282,190.447713 116.191282,194.447713 116.591282,202.747713 C117.091282,214.047713 116.191282,217.747713 111.791282,223.847713 C99.3912822,241.047713 58.1912822,234.447713 32.7912822,211.247713 C23.7912822,203.047713 17.1912822,194.347713 11.4912822,183.247713 C0.391282208,161.647713 -3.00871779,137.947713 2.79128221,122.547713 C5.69128221,114.947713 13.0912822,107.047713 17.3912822,107.047713 L20.2912822,107.047713 L20.2912822,122.747713 C20.3912822,135.947713 20.6912822,139.947713 22.5912822,146.947713 C27.0912822,163.247713 34.6912822,176.547713 46.4912822,188.747713 C57.1912822,199.547713 67.3912822,205.947713 78.4912822,208.647713 C87.9912822,210.847713 88.7912822,207.747713 82.5912822,192.147713 C77.4912822,179.147713 65.3912822,155.147713 56.2912822,140.047713 C26.0912822,90.0477135 21.0912822,79.4477135 17.2912822,57.6477135 C14.4912822,41.0477135 15.9912822,28.2477135 22.3912822,15.1477135 C28.9912822,1.74771349 37.1912822,-3.45228651 42.5912822,2.34771349 C43.6912822,3.54771349 56.7912822,22.7477135 71.5912822,45.0477135 C111.291282,104.747713 134.691282,137.347713 163.991282,173.647713 C192.791282,209.447713 204.091282,220.247713 223.291282,230.547713 C231.891282,235.147713 233.791282,236.747713 233.791282,239.547713 C233.791282,245.347713 224.591282,247.447713 214.191282,244.047713 Z" id="Path"></path>
                <path d="M477.291282,222.047713 C464.091282,219.147713 441.891282,195.247713 423.191282,163.847713 C413.491282,147.547713 406.191282,130.447713 401.691282,114.047713 C399.091282,104.347713 395.691282,99.8477135 388.291282,96.4477135 C379.291282,92.2477135 375.091282,93.7477135 376.091282,100.947713 C376.591282,104.947713 378.791282,110.047713 393.791282,142.447713 C400.791282,157.447713 402.791282,162.847713 402.091282,163.947713 C401.291282,165.147713 398.991282,165.647713 392.491282,165.847713 C384.191282,166.147713 383.791282,166.047713 382.191282,163.547713 C380.391282,160.747713 377.991282,160.247713 377.191282,162.547713 C376.791282,163.447713 374.691282,165.147713 372.391282,166.547713 C361.191282,173.047713 341.991282,169.147713 327.091282,157.147713 C316.991282,148.947713 309.991282,138.647713 300.191282,117.547713 C291.191282,97.9477135 263.191282,86.7477135 256.291282,100.047713 C251.691282,109.047713 257.991282,132.347713 268.891282,146.647713 C275.191282,154.947713 284.591282,160.247713 288.791282,158.047713 C293.191282,155.747713 291.491282,145.647713 285.191282,136.447713 C282.791282,132.947713 280.791282,129.547713 280.791282,129.047713 C280.791282,127.447713 285.591282,127.947713 289.691282,129.947713 C297.191282,133.847713 303.591282,143.247713 305.291282,152.747713 C305.791282,155.847713 305.491282,158.047713 303.991282,161.447713 C300.791282,168.647713 293.791282,171.047713 281.791282,169.047713 C263.491282,165.947713 246.991282,151.747713 235.591282,129.447713 C231.691282,121.847713 230.991282,121.047713 228.391282,121.047713 C225.691282,121.047713 225.591282,121.247713 226.191282,124.347713 C226.491282,126.047713 227.091282,131.347713 227.391282,136.147713 C230.091282,172.147713 194.791282,182.147713 165.591282,153.747713 C147.191282,135.747713 138.991282,108.247713 146.791282,90.3477135 C150.891282,80.8477135 161.091282,74.0477135 171.291282,74.0477135 C176.191282,74.0477135 185.691282,76.8477135 191.991282,80.2477135 C198.691282,83.7477135 209.091282,92.9477135 213.191282,98.8477135 C215.391282,102.147713 217.191282,103.347713 222.091282,104.947713 C225.391282,106.147713 228.291282,106.847713 228.491282,106.647713 C228.691282,106.447713 229.291282,103.847713 229.791282,100.847713 C230.991282,93.1477135 232.991282,88.8477135 237.491282,84.3477135 C243.091282,78.7477135 247.991282,76.6477135 256.991282,76.2477135 C269.891282,75.5477135 280.791282,79.8477135 293.391282,90.6477135 C296.191282,93.0477135 298.891282,95.0477135 299.491282,95.0477135 C299.991282,95.0477135 300.891282,93.5477135 301.591282,91.6477135 C303.591282,86.1477135 308.491282,80.2477135 312.891282,77.9477135 C316.291282,76.2477135 318.391282,75.9477135 323.691282,76.2477135 C331.991282,76.7477135 338.091282,79.5477135 345.791282,86.6477135 C348.991282,89.6477135 351.791282,92.0477135 352.191282,92.0477135 C352.491282,92.0477135 352.791282,91.0477135 352.791282,89.8477135 C352.791282,86.1477135 356.991282,79.9477135 360.791282,77.8477135 C368.691282,73.5477135 383.891282,77.8477135 394.391282,87.3477135 C397.291282,89.9477135 399.991282,92.0477135 400.491282,92.0477135 C400.991282,92.0477135 402.391282,90.3477135 403.591282,88.1477135 C406.291282,83.3477135 412.891282,77.3477135 416.291282,76.4477135 C425.891282,74.0477135 443.491282,81.9477135 458.591282,95.5477135 C461.491282,98.1477135 463.991282,100.147713 464.191282,99.9477135 C464.291282,99.7477135 464.991282,97.6477135 465.591282,95.3477135 C467.691282,88.2477135 472.691282,81.9477135 478.791282,78.7477135 C483.791282,76.1477135 484.991282,75.8477135 492.391282,76.2477135 C499.091282,76.6477135 501.791282,77.2477135 507.891282,80.2477135 C516.691282,84.4477135 524.991282,90.9477135 530.291282,97.9477135 C533.391282,101.947713 535.191282,103.347713 539.191282,104.647713 C554.891282,109.747713 564.991282,114.347713 565.991282,116.647713 C566.991282,118.747713 566.791282,119.447713 564.991282,121.247713 C562.891282,123.347713 562.491282,123.447713 555.791282,122.247713 C545.091282,120.447713 543.391282,120.547713 544.191282,123.347713 C551.991282,151.647713 537.191282,173.647713 513.391282,169.047713 C502.791282,167.047713 495.291282,162.547713 485.291282,152.547713 C475.491282,142.847713 469.591282,133.247713 466.291282,121.547713 C464.291282,114.947713 457.991282,107.447713 447.791282,99.5477135 C435.191282,89.9477135 427.591282,87.5477135 424.391282,92.2477135 C422.491282,94.8477135 422.391282,96.2477135 423.891282,101.447713 C424.691282,104.347713 428.591282,109.047713 439.991282,120.947713 C481.491282,164.047713 504.191282,203.347713 494.691282,215.447713 C490.991282,220.247713 482.891282,223.247713 477.291282,222.047713 Z M487.791282,205.747713 C487.791282,201.547713 481.791282,189.147713 473.791282,177.047713 C460.591282,157.047713 440.191282,131.447713 432.091282,124.547713 C429.191282,122.247713 428.791282,122.147713 428.791282,123.747713 C428.791282,127.647713 440.391282,149.247713 452.291282,167.547713 C464.691282,186.647713 483.191282,209.047713 486.491282,209.047713 C487.291282,209.047713 487.791282,207.747713 487.791282,205.747713 Z M209.291282,155.547713 C212.791282,152.147713 212.591282,145.047713 208.891282,134.247713 C205.291282,123.847713 203.491282,121.047713 200.891282,121.747713 C197.891282,122.547713 192.391282,120.347713 189.191282,116.947713 C186.691282,114.347713 186.291282,113.147713 186.391282,108.747713 C186.491282,105.847713 186.691282,102.447713 186.891282,101.147713 C187.191282,99.1477135 186.491282,98.3477135 182.891282,96.4477135 C174.291282,91.7477135 166.791282,94.3477135 165.291282,102.347713 C162.791282,115.347713 178.691282,143.747713 194.091282,154.047713 C201.191282,158.847713 205.591282,159.247713 209.291282,155.547713 Z M367.891282,155.447713 C373.091282,149.847713 369.491282,133.747713 359.191282,117.047713 C347.791282,98.3477135 333.391282,90.2477135 325.591282,98.1477135 C322.591282,101.047713 322.591282,101.347713 322.991282,108.547713 C323.391282,114.547713 324.291282,117.547713 327.591282,124.447713 C334.291282,138.347713 342.691282,149.147713 351.491282,154.947713 C357.691282,159.047713 364.291282,159.247713 367.891282,155.447713 Z M525.591282,156.947713 C532.591282,154.547713 532.291282,143.847713 524.791282,126.747713 C522.791282,122.247713 522.491282,122.047713 518.591282,122.047713 C509.691282,122.047713 503.391282,113.847713 505.791282,105.147713 C507.091282,100.247713 506.791282,99.6477135 501.791282,97.0477135 C492.391282,92.2477135 484.791282,96.6477135 484.791282,106.747713 C484.891282,120.947713 502.791282,148.847713 515.991282,155.447713 C521.991282,158.447713 521.591282,158.347713 525.591282,156.947713 Z" id="Shape"></path>
            </g>
        </g>
    </g>
</svg>