<?xml version="1.0" encoding="UTF-8"?>
<svg width="406px" height="142px" viewBox="0 0 406 142" version="1.1" xmlns="http://www.w3.org/2000/svg" xmlns:xlink="http://www.w3.org/1999/xlink">
    <!-- Generator: Sketch 58 (84663) - https://sketch.com -->
    <title>wbez-daily-rundown-logo</title>
    <desc>Created with Sketch.</desc>
    <defs>
        <polygon id="path-1" points="0.06 0.165 50.7 0.165 50.7 56.654 0.06 56.654"></polygon>
    </defs>
    <g id="wbez-daily-rundown-logo" stroke="none" stroke-width="1" fill="none" fill-rule="evenodd">
        <g id="Group-3" transform="translate(0.000000, 42.000000)">
            <mask id="mask-2" fill="white">
                <use xlink:href="#path-1"></use>
            </mask>
            <g id="Clip-2"></g>
            <polyline id="Fill-1" fill="#0A0B09" mask="url(#mask-2)" points="21.516 0.165 29.497 0.165 36.069 36.155 36.225 36.155 41.625 0.165 50.7 0.165 40.763 56.654 32.626 56.654 25.585 19.333 25.428 19.333 18.857 56.654 10.719 56.654 0 0.165 9.076 0.165 15.023 36.155 15.179 36.155 21.516 0.165"></polyline>
        </g>
        <path d="M64.058,90.673 L68.127,90.673 C70.737,90.673 72.561,89.944 73.606,88.482 C74.646,87.023 75.168,84.857 75.168,81.988 C75.168,79.067 74.567,76.891 73.369,75.456 C72.166,74.022 70.111,73.304 67.188,73.304 L64.058,73.304 L64.058,90.673 Z M64.058,65.323 L67.579,65.323 C69.406,65.323 70.944,64.71 72.196,63.485 C73.448,62.26 74.074,60.473 74.074,58.124 C74.074,52.805 71.959,50.143 67.736,50.143 L64.058,50.143 L64.058,65.323 Z M54.356,42.165 L68.753,42.165 C73.966,42.165 77.776,43.442 80.177,45.998 C82.573,48.553 83.775,52.258 83.775,57.108 C83.775,58.309 83.642,59.522 83.386,60.747 C83.125,61.971 82.721,63.108 82.173,64.15 C81.621,65.193 80.921,66.132 80.058,66.965 C79.196,67.8 78.195,68.454 77.047,68.922 C79.551,70.016 81.478,71.608 82.834,73.694 C84.194,75.781 84.87,78.65 84.87,82.301 C84.87,84.65 84.598,86.814 84.047,88.796 C83.499,90.779 82.627,92.5 81.429,93.959 C80.226,95.421 78.663,96.569 76.731,97.402 C74.803,98.238 72.457,98.654 69.692,98.654 L54.356,98.654 L54.356,42.165 L54.356,42.165 Z" id="Fill-4" fill="#0A0B09"></path>
        <polyline id="Fill-5" fill="#0A0B09" points="88.957 98.654 88.957 42.165 114.933 42.165 114.933 50.614 98.659 50.614 98.659 65.166 111.177 65.166 111.177 73.617 98.659 73.617 98.659 90.203 116.027 90.203 116.027 98.654 88.957 98.654"></polyline>
        <polyline id="Fill-6" fill="#0A0B09" points="123.477 50.614 123.477 42.165 149.14 42.165 149.14 51.395 131.301 90.203 149.14 90.203 149.14 98.654 121.286 98.654 121.286 89.421 139.36 50.614 123.477 50.614"></polyline>
        <path d="M162.561,67.515 L166.004,67.515 C167.305,67.515 168.414,67.384 169.329,67.123 C170.241,66.861 170.983,66.393 171.557,65.715 C172.131,65.038 172.548,64.138 172.809,63.014 C173.071,61.895 173.201,60.5 173.201,58.829 C173.201,55.492 172.654,53.21 171.557,51.982 C170.463,50.757 168.612,50.143 166.004,50.143 L162.561,50.143 L162.561,67.515 Z M162.561,98.654 L152.86,98.654 L152.86,42.165 L166.472,42.165 C171.897,42.165 175.991,43.442 178.757,45.998 C181.52,48.553 182.902,52.832 182.902,58.829 C182.902,61.126 182.708,63.081 182.316,64.697 C181.926,66.315 181.404,67.685 180.751,68.804 C180.1,69.928 179.368,70.827 178.562,71.505 C177.751,72.183 176.93,72.706 176.097,73.068 L184.312,98.654 L174.453,98.654 L167.569,75.259 C166.943,75.365 166.172,75.429 165.26,75.456 C164.348,75.483 163.446,75.496 162.561,75.496 L162.561,98.654 L162.561,98.654 Z" id="Fill-7" fill="#D6232A"></path>
        <path d="M186.932,42.165 L196.634,42.165 L196.634,84.805 C196.634,88.926 198.353,90.986 201.797,90.986 C205.24,90.986 206.961,88.926 206.961,84.805 L206.961,42.165 L216.662,42.165 L216.662,84.413 C216.662,89.318 215.346,93.047 212.711,95.603 C210.076,98.159 206.438,99.436 201.797,99.436 C197.153,99.436 193.515,98.159 190.883,95.603 C188.248,93.047 186.932,89.318 186.932,84.413 L186.932,42.165" id="Fill-8" fill="#D6232A"></path>
        <polyline id="Fill-9" fill="#D6232A" points="222.109 98.654 222.109 42.165 231.105 42.165 242.922 74.478 243.077 74.478 243.077 42.165 251.839 42.165 251.839 98.654 243.389 98.654 231.026 63.366 230.871 63.366 230.871 98.654 222.109 98.654"></polyline>
        <path d="M267.303,90.673 L270.667,90.673 C273.274,90.673 275.086,90.099 276.104,88.951 C277.122,87.804 277.63,85.744 277.63,82.772 L277.63,58.047 C277.63,55.073 277.122,53.015 276.104,51.866 C275.086,50.72 273.274,50.143 270.667,50.143 L267.303,50.143 L267.303,90.673 Z M257.601,42.165 L271.998,42.165 C277.055,42.165 280.876,43.547 283.459,46.311 C286.042,49.076 287.331,53.379 287.331,59.221 L287.331,81.598 C287.331,87.44 286.042,91.743 283.459,94.506 C280.876,97.272 277.055,98.654 271.998,98.654 L257.601,98.654 L257.601,42.165 L257.601,42.165 Z" id="Fill-10" fill="#D6232A"></path>
        <path d="M301.375,84.726 C301.375,86.865 301.74,88.443 302.47,89.461 C303.199,90.479 304.554,90.986 306.539,90.986 C308.52,90.986 309.876,90.479 310.608,89.461 C311.338,88.443 311.702,86.865 311.702,84.726 L311.702,56.09 C311.702,53.954 311.338,52.374 310.608,51.358 C309.876,50.34 308.52,49.83 306.539,49.83 C304.554,49.83 303.199,50.34 302.47,51.358 C301.74,52.374 301.375,53.954 301.375,56.09 L301.375,84.726 Z M291.674,55.857 C291.674,53.875 291.972,51.997 292.573,50.222 C293.173,48.45 294.085,46.912 295.311,45.606 C296.537,44.304 298.075,43.272 299.928,42.515 C301.779,41.761 303.983,41.381 306.539,41.381 C309.095,41.381 311.298,41.761 313.149,42.515 C315,43.272 316.541,44.304 317.765,45.606 C318.991,46.912 319.905,48.45 320.504,50.222 C321.103,51.997 321.403,53.875 321.403,55.857 L321.403,84.962 C321.403,86.944 321.103,88.822 320.504,90.594 C319.905,92.369 318.991,93.907 317.765,95.211 C316.541,96.515 315,97.545 313.149,98.302 C311.298,99.056 309.095,99.436 306.539,99.436 C303.983,99.436 301.779,99.056 299.928,98.302 C298.075,97.545 296.537,96.515 295.311,95.211 C294.085,93.907 293.173,92.369 292.573,90.594 C291.972,88.822 291.674,86.944 291.674,84.962 L291.674,55.857 L291.674,55.857 Z" id="Fill-11" fill="#D6232A"></path>
        <polyline id="Fill-12" fill="#D6232A" points="345.093 42.165 353.07 42.165 359.644 78.155 359.8 78.155 365.2 42.165 374.274 42.165 364.34 98.654 356.201 98.654 349.159 61.333 349.004 61.333 342.43 98.654 334.294 98.654 323.575 42.165 332.65 42.165 338.597 78.155 338.753 78.155 345.093 42.165"></polyline>
        <g id="Group-18" transform="translate(184.000000, 0.000000)" fill="#D6232A">
            <polyline id="Fill-13" points="191.408 98.654 191.408 42.165 200.405 42.165 212.22 74.478 212.376 74.478 212.376 42.165 221.138 42.165 221.138 98.654 212.689 98.654 200.326 63.366 200.171 63.366 200.171 98.654 191.408 98.654"></polyline>
            <polyline id="Fill-15" points="4.362 4.089 0.312 4.089 0.312 0.445 12.598 0.445 12.598 4.089 8.548 4.089 8.548 24.817 4.362 24.817 4.362 4.089"></polyline>
            <polyline id="Fill-16" points="15.694 24.817 15.694 0.445 19.878 0.445 19.878 10.368 24.336 10.368 24.336 0.445 28.519 0.445 28.519 24.817 24.336 24.817 24.336 14.014 19.878 14.014 19.878 24.817 15.694 24.817"></polyline>
            <polyline id="Fill-17" points="32.729 24.817 32.729 0.445 43.935 0.445 43.935 4.089 36.914 4.089 36.914 10.368 42.315 10.368 42.315 14.014 36.914 14.014 36.914 21.17 44.409 21.17 44.409 24.817 32.729 24.817"></polyline>
        </g>
        <path d="M2.35,129.489 C2.35,124.535 5.759,121.718 9.485,121.718 C11.44,121.718 13.03,122.627 14.074,123.673 L12.031,126.172 C11.304,125.536 10.577,125.083 9.576,125.083 C7.848,125.083 6.35,126.672 6.35,129.354 C6.35,132.125 7.622,133.67 9.53,133.67 C10.666,133.67 11.576,133.081 12.211,132.398 L14.257,134.853 C13.008,136.307 11.304,137.034 9.394,137.034 C5.623,137.034 2.35,134.535 2.35,129.489" id="Fill-19" fill="#5C5C59"></path>
        <polyline id="Fill-20" fill="#5C5C59" points="18.659 121.992 22.568 121.992 22.568 127.491 26.977 127.491 26.977 121.992 30.884 121.992 30.884 136.76 26.977 136.76 26.977 130.899 22.568 130.899 22.568 136.76 18.659 136.76 18.659 121.992"></polyline>
        <polygon id="Fill-21" fill="#5C5C59" points="36.514 136.76 40.423 136.76 40.423 121.992 36.514 121.992"></polygon>
        <path d="M45.416,129.489 C45.416,124.535 48.825,121.718 52.552,121.718 C54.506,121.718 56.096,122.627 57.141,123.673 L55.098,126.172 C54.371,125.536 53.643,125.083 52.643,125.083 C50.915,125.083 49.416,126.672 49.416,129.354 C49.416,132.125 50.688,133.67 52.596,133.67 C53.732,133.67 54.642,133.081 55.278,132.398 L57.324,134.853 C56.074,136.307 54.371,137.034 52.46,137.034 C48.689,137.034 45.416,134.535 45.416,129.489" id="Fill-22" fill="#5C5C59"></path>
        <path d="M65.294,130.604 L68.02,130.604 L67.771,129.581 C67.407,128.171 67.044,126.377 66.68,124.9 L66.588,124.9 C66.27,126.399 65.908,128.171 65.543,129.581 L65.294,130.604 Z M64.363,121.992 L69.088,121.992 L73.588,136.76 L69.452,136.76 L68.725,133.626 L64.59,133.626 L63.863,136.76 L59.865,136.76 L64.363,121.992 L64.363,121.992 Z" id="Fill-23" fill="#5C5C59"></path>
        <path d="M76.492,129.489 C76.492,124.535 79.901,121.718 83.854,121.718 C86.035,121.718 87.625,122.627 88.67,123.673 L86.624,126.172 C85.897,125.536 85.17,125.083 83.99,125.083 C81.991,125.083 80.49,126.672 80.49,129.354 C80.49,132.125 81.717,133.67 84.354,133.67 C84.761,133.67 85.217,133.579 85.488,133.398 L85.488,131.353 L83.307,131.353 L83.307,128.171 L88.944,128.171 L88.944,135.215 C87.899,136.216 86.035,137.034 83.945,137.034 C79.809,137.034 76.492,134.535 76.492,129.489" id="Fill-24" fill="#5C5C59"></path>
        <path d="M103.251,129.307 C103.251,126.626 102.162,125.083 100.39,125.083 C98.618,125.083 97.526,126.626 97.526,129.307 C97.526,131.989 98.618,133.67 100.39,133.67 C102.162,133.67 103.251,131.989 103.251,129.307 Z M93.528,129.307 C93.528,124.444 96.301,121.718 100.39,121.718 C104.479,121.718 107.252,124.469 107.252,129.307 C107.252,134.17 104.479,137.034 100.39,137.034 C96.301,137.034 93.528,134.17 93.528,129.307 L93.528,129.307 Z" id="Fill-25" fill="#5C5C59"></path>
        <path d="M111.696,127.366 C113.15,126.73 113.877,125.82 113.877,124.482 C113.81,124.504 113.72,124.504 113.65,124.504 C112.558,124.504 111.696,123.777 111.696,122.641 C111.696,121.369 112.514,120.551 113.65,120.551 C115.24,120.551 116.058,121.778 116.058,123.868 C116.058,126.141 114.922,127.913 112.514,129.049 L111.696,127.366" id="Fill-26" fill="#5C5C59"></path>
        <path d="M120.968,134.919 L123.194,132.238 C124.239,133.081 125.557,133.67 126.649,133.67 C127.83,133.67 128.33,133.285 128.33,132.625 C128.33,131.92 127.581,131.693 126.331,131.192 L124.49,130.421 C122.9,129.785 121.512,128.444 121.512,126.308 C121.512,123.786 123.785,121.718 127.012,121.718 C128.693,121.718 130.556,122.354 131.919,123.695 L129.967,126.15 C128.966,125.445 128.103,125.083 127.012,125.083 C126.058,125.083 125.466,125.423 125.466,126.081 C125.466,126.786 126.306,127.035 127.647,127.557 L129.444,128.262 C131.283,128.989 132.328,130.261 132.328,132.307 C132.328,134.806 130.238,137.034 126.558,137.034 C124.695,137.034 122.558,136.352 120.968,134.919" id="Fill-27" fill="#5C5C59"></path>
        <path d="M231.694,121.992 L235.692,121.992 L238.965,128.58 L240.373,131.898 L240.464,131.898 C240.281,130.308 239.964,128.08 239.964,126.263 L239.964,121.992 L243.69,121.992 L243.69,136.76 L239.692,136.76 L236.419,130.148 L235.012,126.855 L234.921,126.855 C235.102,128.536 235.421,130.67 235.421,132.489 L235.421,136.76 L231.694,136.76 L231.694,121.992" id="Fill-28" fill="#5C5C59"></path>
        <polyline id="Fill-29" fill="#5C5C59" points="249.322 121.992 258.865 121.992 258.865 125.262 253.228 125.262 253.228 127.582 258.047 127.582 258.047 130.853 253.228 130.853 253.228 133.487 259.093 133.487 259.093 136.76 249.322 136.76 249.322 121.992"></polyline>
        <path d="M262.902,121.992 L266.903,121.992 L267.721,128.444 C267.879,129.99 268.061,131.535 268.219,133.081 L268.31,133.081 C268.584,131.535 268.855,129.968 269.129,128.444 L270.538,121.992 L273.809,121.992 L275.219,128.444 C275.49,129.921 275.763,131.511 276.037,133.081 L276.126,133.081 C276.286,131.511 276.469,129.943 276.626,128.444 L277.444,121.992 L281.172,121.992 L278.717,136.76 L273.764,136.76 L272.629,130.899 C272.402,129.763 272.22,128.536 272.084,127.444 L271.993,127.444 C271.833,128.536 271.675,129.763 271.445,130.899 L270.356,136.76 L265.493,136.76 L262.902,121.992" id="Fill-30" fill="#5C5C59"></path>
        <path d="M284.484,134.919 L286.71,132.238 C287.755,133.081 289.073,133.67 290.165,133.67 C291.345,133.67 291.846,133.285 291.846,132.625 C291.846,131.92 291.096,131.693 289.847,131.192 L288.006,130.421 C286.416,129.785 285.028,128.444 285.028,126.308 C285.028,123.786 287.301,121.718 290.527,121.718 C292.209,121.718 294.072,122.354 295.434,123.695 L293.482,126.15 C292.482,125.445 291.619,125.083 290.527,125.083 C289.574,125.083 288.982,125.423 288.982,126.081 C288.982,126.786 289.822,127.035 291.163,127.557 L292.96,128.262 C294.799,128.989 295.844,130.261 295.844,132.307 C295.844,134.806 293.754,137.034 290.074,137.034 C288.211,137.034 286.074,136.352 284.484,134.919" id="Fill-31" fill="#5C5C59"></path>
        <path d="M306.563,134.919 L308.789,132.238 C309.834,133.081 311.152,133.67 312.244,133.67 C313.425,133.67 313.926,133.285 313.926,132.625 C313.926,131.92 313.176,131.693 311.927,131.192 L310.085,130.421 C308.495,129.785 307.108,128.444 307.108,126.308 C307.108,123.786 309.381,121.718 312.606,121.718 C314.288,121.718 316.151,122.354 317.513,123.695 L315.561,126.15 C314.561,125.445 313.698,125.083 312.606,125.083 C311.653,125.083 311.061,125.423 311.061,126.081 C311.061,126.786 311.901,127.035 313.242,127.557 L315.039,128.262 C316.878,128.989 317.923,130.261 317.923,132.307 C317.923,134.806 315.833,137.034 312.153,137.034 C310.29,137.034 308.153,136.352 306.563,134.919" id="Fill-32" fill="#5C5C59"></path>
        <polyline id="Fill-33" fill="#5C5C59" points="325.01 125.262 321.1 125.262 321.1 121.992 332.825 121.992 332.825 125.262 328.916 125.262 328.916 136.76 325.01 136.76 325.01 125.262"></polyline>
        <path d="M340.024,130.604 L342.751,130.604 L342.502,129.581 C342.137,128.171 341.774,126.377 341.41,124.9 L341.321,124.9 C341.003,126.399 340.638,128.171 340.273,129.581 L340.024,130.604 Z M339.093,121.992 L343.82,121.992 L348.318,136.76 L344.182,136.76 L343.455,133.626 L339.319,133.626 L338.593,136.76 L334.595,136.76 L339.093,121.992 L339.093,121.992 Z" id="Fill-34" fill="#5C5C59"></path>
        <polyline id="Fill-35" fill="#5C5C59" points="353.085 125.262 349.176 125.262 349.176 121.992 360.901 121.992 360.901 125.262 356.994 125.262 356.994 136.76 353.085 136.76 353.085 125.262"></polyline>
        <polygon id="Fill-36" fill="#5C5C59" points="365.443 136.76 369.349 136.76 369.349 121.992 365.443 121.992"></polygon>
        <path d="M384.069,129.307 C384.069,126.626 382.98,125.083 381.208,125.083 C379.435,125.083 378.344,126.626 378.344,129.307 C378.344,131.989 379.435,133.67 381.208,133.67 C382.98,133.67 384.069,131.989 384.069,129.307 Z M374.345,129.307 C374.345,124.444 377.116,121.718 381.208,121.718 C385.297,121.718 388.069,124.469 388.069,129.307 C388.069,134.17 385.297,137.034 381.208,137.034 C377.116,137.034 374.345,134.17 374.345,129.307 L374.345,129.307 Z" id="Fill-37" fill="#5C5C59"></path>
        <path d="M393.063,121.992 L397.061,121.992 L400.334,128.58 L401.741,131.898 L401.833,131.898 C401.65,130.308 401.333,128.08 401.333,126.263 L401.333,121.992 L405.059,121.992 L405.059,136.76 L401.061,136.76 L397.788,130.148 L396.381,126.855 L396.29,126.855 C396.471,128.536 396.79,130.67 396.79,132.489 L396.79,136.76 L393.063,136.76 L393.063,121.992" id="Fill-38" fill="#5C5C59"></path>
        <path d="M151.46,123.9 L153.86,123.9 L154.062,125.566 L154.164,125.566 C155.273,124.481 156.536,123.597 158.229,123.597 C160.882,123.597 162.043,125.391 162.043,128.523 L162.043,136.3 L159.139,136.3 L159.139,128.9 C159.139,126.854 158.558,126.098 157.194,126.098 C156.106,126.098 155.399,126.627 154.364,127.638 L154.364,136.3 L151.46,136.3 L151.46,123.9" id="Fill-39" fill="#737676"></path>
        <path d="M184.37,129.936 C184.37,127.46 183.562,125.997 181.691,125.997 C180.784,125.997 179.924,126.451 178.965,127.385 L178.965,133.169 C179.874,133.925 180.732,134.205 181.466,134.205 C183.107,134.205 184.37,132.739 184.37,129.936 Z M176.061,123.9 L178.458,123.9 L178.661,125.213 L178.762,125.213 C179.798,124.328 181.137,123.597 182.499,123.597 C185.581,123.597 187.376,126.07 187.376,129.911 C187.376,134.152 184.825,136.605 182.072,136.605 C180.984,136.605 179.899,136.098 178.888,135.24 L178.965,137.311 L178.965,141.199 L176.061,141.199 L176.061,123.9 L176.061,123.9 Z" id="Fill-40" fill="#737676"></path>
        <path d="M202.569,123.9 L204.967,123.9 L205.169,126.098 L205.27,126.098 C206.155,124.481 207.468,123.597 208.783,123.597 C209.413,123.597 209.815,123.673 210.196,123.849 L209.689,126.375 C209.262,126.249 208.933,126.172 208.402,126.172 C207.418,126.172 206.229,126.854 205.473,128.722 L205.473,136.3 L202.569,136.3 L202.569,123.9" id="Fill-41" fill="#737676"></path>
        <path d="M168.897,141.501 L193.358,141.501 L193.358,117.523 L168.897,117.523 L168.897,141.501 Z M193.358,141.501 L218.029,141.501 L218.029,117.523 L193.358,117.523 L193.358,141.501 Z M145.593,141.501 L169.57,141.501 L169.57,117.523 L145.593,117.523 L145.593,141.501 Z" id="Stroke-42" stroke="#B3B3B1"></path>
    </g>
</svg>