<?xml version="1.0" encoding="UTF-8"?>
<svg width="767px" height="121px" viewBox="0 0 767 121" version="1.1" xmlns="http://www.w3.org/2000/svg" xmlns:xlink="http://www.w3.org/1999/xlink">
    <!-- Generator: Sketch 58 (84663) - https://sketch.com -->
    <title>Group</title>
    <desc>Created with Sketch.</desc>
    <g id="Page-1" stroke="none" stroke-width="1" fill="none" fill-rule="evenodd">
        <g id="Group" transform="translate(0.886666, 0.000000)" fill-rule="nonzero">
            <g id="chicago" transform="translate(314.113334, 0.000000)" fill="#D62531">
                <path d="M41.4446377,40.930431 L41.4446377,31.7985095 C41.4446377,26.800027 40.4491202,23.184798 38.4601592,20.9548628 C36.4711982,18.7269677 34.1503981,17.6130202 31.4977587,17.6130202 C27.2958453,17.6130202 24.4233625,18.6718824 22.8761624,20.791647 C21.3289623,22.9114116 20.5553623,26.2022493 20.5553623,30.6559992 L20.5553623,90.3419606 C20.5553623,94.8018311 21.3289623,98.0885884 22.8761624,100.208353 C24.4233625,102.328118 27.2958453,103.38902 31.4977587,103.38902 C35.2537633,103.38902 37.8504048,102.35668 39.2897571,100.289961 C40.7249615,98.2273218 41.4446377,95.2914784 41.4446377,91.4844709 L41.4446377,77.2969414 L62,77.2969414 L62,90.8316079 C62,94.9650469 61.3632836,98.8781446 60.0939988,102.574981 C58.820566,106.269778 56.9436007,109.479008 54.456881,112.19451 C51.9701612,114.912052 48.7928012,117.06242 44.924801,118.635412 C41.0568007,120.210444 36.579046,121 31.4977587,121 C26.0804844,121 21.4119221,120.210444 17.489998,118.635412 C13.5659999,117.06242 10.3036061,114.912052 7.7090386,112.19451 C5.11032314,109.479008 3.17528601,106.269778 1.9060012,102.574981 C0.634642403,98.8781446 0,94.9650469 0,90.8316079 L0,30.1683921 C0,26.0369933 0.634642403,22.1238956 1.9060012,18.4270587 C3.17528601,14.7322621 5.11032314,11.5250725 7.7090386,8.80548998 C10.3036061,6.08998786 13.5659999,3.94166048 17.489998,2.36254805 C21.4119221,0.789556215 26.0804844,0 31.4977587,0 C36.579046,0 41.0568007,0.871164093 44.924801,2.60941188 C48.7928012,4.34765967 51.9701612,6.68572537 54.456881,9.62156876 C56.9436007,12.555372 58.820566,15.9808626 60.0939988,19.8939603 C61.3632836,23.8090983 62,27.9404971 62,32.2881567 L62,40.930431 L41.4446377,40.930431" id="Fill-9"></path>
                <polyline id="Fill-10" points="73 119 73 2 93.2325673 2 93.2325673 49.6433894 114.767433 49.6433894 114.767433 2 135 2 135 119 114.767433 119 114.767433 67.1437186 93.2325673 67.1437186 93.2325673 119 73 119"></polyline>
                <polygon id="Fill-11" points="148 119 168 119 168 2 148 2"></polygon>
                <path d="M222.442564,40.930431 L222.442564,31.7985095 C222.442564,26.800027 221.44912,23.184798 219.460159,20.9548628 C217.469124,18.7269677 215.150398,17.6130202 212.497759,17.6130202 C208.295845,17.6130202 205.423363,18.6718824 203.876162,20.791647 C202.328962,22.9114116 201.555362,26.2022493 201.555362,30.6559992 L201.555362,90.3419606 C201.555362,94.8018311 202.328962,98.0885884 203.876162,100.208353 C205.423363,102.328118 208.295845,103.38902 212.497759,103.38902 C216.251689,103.38902 218.850405,102.35668 220.289757,100.289961 C221.722888,98.2273218 222.442564,95.2914784 222.442564,91.4844709 L222.442564,77.2969414 L243,77.2969414 L243,90.8316079 C243,94.9650469 242.363284,98.8781446 241.091925,102.574981 C239.820566,106.269778 237.943601,109.479008 235.456881,112.19451 C232.972235,114.912052 229.792801,117.06242 225.924801,118.635412 C222.054727,120.210444 217.579046,121 212.497759,121 C207.080484,121 202.409848,120.210444 198.487924,118.635412 C194.563926,117.06242 191.303606,114.912052 188.709039,112.19451 C186.110323,109.479008 184.175286,106.269778 182.906001,102.574981 C181.634642,98.8781446 181,94.9650469 181,90.8316079 L181,30.1683921 C181,26.0369933 181.634642,22.1238956 182.906001,18.4270587 C184.175286,14.7322621 186.110323,11.5250725 188.709039,8.80548998 C191.303606,6.08998786 194.563926,3.94166048 198.487924,2.36254805 C202.409848,0.789556215 207.080484,0 212.497759,0 C217.579046,0 222.054727,0.871164093 225.924801,2.60941188 C229.792801,4.34765967 232.972235,6.68572537 235.456881,9.62156876 C237.943601,12.555372 239.820566,15.9808626 241.091925,19.8939603 C242.363284,23.8090983 243,27.9404971 243,32.2881567 L243,40.930431 L222.442564,40.930431" id="Fill-12"></path>
                <path d="M272.136364,75.5132743 L288.863636,75.5132743 L280.66744,24.7787611 L280.33256,24.7787611 L272.136364,75.5132743 Z M265.71546,119 L246,119 L267.851028,2 L293.151028,2 L315,119 L295.286595,119 L291.671135,93.0718593 L269.328865,93.0718593 L265.71546,119 L265.71546,119 Z" id="Fill-13"></path>
                <path d="M345.347361,59.6839212 L379,59.6839212 L379,119.369883 L369.055195,119.369883 L365.241119,110.562352 C362.144644,114.151059 359.133204,116.789034 356.206797,118.474236 C353.276243,120.157399 349.379207,121 344.517763,121 C336.340001,121 329.707366,118.337543 324.626079,113.008549 C319.540644,107.683635 317,100.289961 317,90.8316079 L317,30.1683921 C317,26.0369933 317.636716,22.1238956 318.908075,18.4270587 C320.175286,14.7322621 322.056399,11.5250725 324.543119,8.80548998 C327.029839,6.08998786 330.151201,3.94166048 333.909279,2.36254805 C337.667358,0.789556215 342.087041,0 347.172476,0 C352.253763,0 356.729444,0.871164093 360.599518,2.60941188 C364.465445,4.34765967 367.698802,6.68572537 370.297518,9.62156876 C372.892085,12.555372 374.827122,15.9808626 376.100555,19.8939603 C377.36984,23.8090983 378.004483,27.9404971 378.004483,32.2881567 L378.004483,39.7879207 L358.444638,39.7879207 C358.444638,35.4423012 358.22272,31.8270722 357.780959,28.9463142 C357.339199,26.0655561 356.619522,23.7825757 355.626079,22.097373 C354.632635,20.4121704 353.388238,19.2431375 351.894962,18.5902745 C350.40376,17.9374115 348.663678,17.6130202 346.674717,17.6130202 C344.129926,17.6130202 341.975045,18.5086666 340.210076,20.3019997 C338.438884,22.097373 337.555362,25.4943009 337.555362,30.4948236 L337.555362,90.9948236 C337.555362,94.8018311 338.275038,97.8192824 339.712317,100.045137 C341.145447,102.275073 343.632167,103.38902 347.172476,103.38902 C351.370242,103.38902 354.298722,102.14042 355.955844,99.6391381 C357.617114,97.1378566 358.444638,92.9534127 358.444638,87.0817259 L358.444638,75.6647838 L345.347361,75.6647838 L345.347361,59.6839212" id="Fill-14"></path>
                <path d="M410,90.3623732 C410,94.8254469 410.777424,98.1145648 412.338541,100.235852 C413.897569,102.357139 416.79201,103.418803 421.026045,103.418803 C425.2559,103.418803 428.150341,102.357139 429.711459,100.235852 C431.270486,98.1145648 432.05,94.8254469 432.05,90.3623732 L432.05,30.6335435 C432.05,26.1765947 431.270486,22.8833935 429.711459,20.7621064 C428.150341,18.6408193 425.2559,17.5811966 421.026045,17.5811966 C416.79201,17.5811966 413.897569,18.6408193 412.338541,20.7621064 C410.777424,22.8833935 410,26.1765947 410,30.6335435 L410,90.3623732 Z M389,30.1683921 C389,26.0369933 389.634708,22.1238956 390.9062,18.4270587 C392.173542,14.7322621 394.108781,11.5250725 396.707767,8.80548998 C399.304678,6.08998786 402.567412,3.94166048 406.489744,2.36254805 C410.412077,0.789556215 415.083199,0 420.501037,0 C425.914727,0 430.583775,0.789556215 434.510256,2.36254805 C438.430514,3.94166048 441.693247,6.08998786 444.292233,8.80548998 C446.889145,11.5250725 448.820235,14.7322621 450.095875,18.4270587 C451.363217,22.1238956 452,26.0369933 452,30.1683921 L452,90.8316079 C452,94.9650469 451.363217,98.8781446 450.095875,102.574981 C448.820235,106.269778 446.889145,109.479008 444.292233,112.19451 C441.693247,114.912052 438.430514,117.06242 434.510256,118.635412 C430.583775,120.210444 425.914727,121 420.501037,121 C415.083199,121 410.412077,120.210444 406.489744,118.635412 C402.567412,117.06242 399.304678,114.912052 396.707767,112.19451 C394.108781,109.479008 392.173542,106.269778 390.9062,102.574981 C389.634708,98.8781446 389,94.9650469 389,90.8316079 L389,30.1683921 L389,30.1683921 Z" id="Fill-15"></path>
            </g>
            <g id="wbez" transform="translate(0.000000, 0.900000)" fill="#0B0B0A">
                <path d="M0.0133336012,118.6 C-0.286666399,118.4 4.5133336,91.7 10.6133336,59.4 L21.8133336,0.6 L30.2133336,0.3 L38.7133336,0 L45.0133336,35.8 C52.3133336,77.4 52.6133336,79.1 53.4133336,77.1 C53.7133336,76.3 56.9133336,59.6 60.5133336,40.1 C64.2133336,20.6 67.4133336,3.6 67.6133336,2.4 C68.1133336,0.2 68.6133336,0.1 76.6133336,0.1 C81.3133336,0.1 85.1133336,0.4 85.1133336,0.7 C85.1133336,1.1 89.6133336,26.9 95.1133336,58.1 C100.613334,89.4 105.113334,115.9 105.113334,117 C105.113334,119 104.513334,119.1 96.1133336,119.1 C91.2133336,119.1 87.1133336,119 87.1133336,118.8 C87.1133336,118.7 84.6133336,102.2 81.6133336,82.1 C78.6133336,62 76.1133336,45 76.0133336,44.1 C75.8133336,39.6 73.6133336,49.8 68.1133336,80.1 C64.8133336,98.5 61.8133336,114.9 61.5133336,116.4 L60.9133336,119.2 L52.8133336,118.9 L44.6133336,118.6 L38.1133336,81.4 C34.5133336,61 31.4133336,44 31.1133336,43.7 C30.8133336,43.4 28.1133336,57.7 25.2133336,75.4 C22.3133336,93.1 19.4133336,110.2 18.9133336,113.4 L17.9133336,119.1 L9.2133336,119.1 C4.4133336,119.1 0.213333601,118.9 0.0133336012,118.6 Z" id="Path" transform="translate(52.556667, 59.600000) scale(-1, 1) rotate(-180.000000) translate(-52.556667, -59.600000) "></path>
                <path d="M109.113334,59.6 L109.113334,0.1 L130.413334,0.4 C150.213334,0.7 151.913334,0.9 156.913334,3.1 C163.313334,6 168.413334,11.7 170.813334,18.6 C173.413334,25.9 173.313334,44.3 170.713334,49.2 C168.413334,53.7 163.413334,59 159.813334,60.8 L157.013334,62.3 L161.113334,65.3 C163.913334,67.3 166.213334,70.2 167.913334,74 C171.513334,81.7 171.713334,95 168.213334,102.7 C162.213334,116.1 153.713334,119.2 122.913334,119.2 L109.113334,119.2 L109.113334,59.6 Z M144.113334,100.7 C152.913334,96.1 153.213334,77.5 144.713334,72.2 C142.313334,70.8 139.713334,70.2 135.213334,70.2 L129.113334,70.2 L129.113334,86.2 L129.113334,102.2 L135.113334,102.2 C138.613334,102.2 142.513334,101.5 144.113334,100.7 Z M148.013334,49.8 C152.213334,45.8 153.413334,41.3 152.913334,32.5 C152.113334,20.7 147.013334,15.9 135.613334,16.4 L129.613334,16.7 L129.313334,35.1 L129.113334,53.4 L137.013334,53.1 C144.213334,52.7 145.313334,52.4 148.013334,49.8 Z" id="Shape" transform="translate(140.913694, 59.650000) scale(-1, 1) rotate(-180.000000) translate(-140.913694, -59.650000) "></path>
                <polygon id="Path" transform="translate(210.113334, 59.600000) scale(-1, 1) rotate(-180.000000) translate(-210.113334, -59.600000) " points="182.113334 59.6 182.113334 0.1 210.113334 0.1 238.113334 0.1 238.113334 8.6 238.113334 17.1 220.113334 17.1 202.113334 17.1 202.113334 35.1 202.113334 53.1 215.113334 53.1 228.113334 53.1 228.113334 61.6 228.113334 70.1 215.113334 70.1 202.113334 70.1 202.113334 85.6 202.113334 101.1 219.113334 101.1 236.113334 101.1 236.113334 110.1 236.113334 119.1 209.113334 119.1 182.113334 119.1"></polygon>
                <path d="M247.113334,110.1 L247.113334,101.1 L263.713334,101.1 C279.113334,101.1 280.313334,101 279.813334,99.4 C279.513334,98.4 271.213334,80.2 261.213334,58.9 L243.113334,20.1 L243.113334,10.1 L243.113334,0.1 L272.113334,0.1 L301.113334,0.1 L301.113334,8.6 L301.113334,17.1 L282.613334,17.1 C270.313334,17.1 264.113334,17.5 264.113334,18.2 C264.113334,18.7 272.413334,37.3 282.613334,59.5 L301.113334,99.8 L301.113334,109.4 L301.113334,119.1 L274.113334,119.1 L247.113334,119.1 L247.113334,110.1 Z" id="Path" transform="translate(272.113334, 59.600000) scale(-1, 1) rotate(-180.000000) translate(-272.113334, -59.600000) "></path>
            </g>
        </g>
    </g>
</svg>