<?xml version="1.0" encoding="UTF-8"?>
<svg width="962px" height="123px" viewBox="0 0 962 123" version="1.1" xmlns="http://www.w3.org/2000/svg" xmlns:xlink="http://www.w3.org/1999/xlink">
    <!-- Generator: Sketch 62 (91390) - https://sketch.com -->
    <title>wbez-915-chicago-logo-oneline</title>
    <desc>Created with Sketch.</desc>
    <g id="Page-1" stroke="none" stroke-width="1" fill="none" fill-rule="evenodd">
        <g id="wbez-915-chicago-logo-oneline" fill-rule="nonzero">
            <polyline id="Fill-1" fill="#FFFFFF" points="45.4090433 2 62.2525255 2 76.1224511 77.8174568 76.4527351 77.8174568 87.8455307 2 107 2 86.0289688 121 68.8562035 121 53.995426 42.3802984 53.665142 42.3802984 39.7952164 121 22.6214502 121 0 2 19.1544693 2 31.7042597 77.8174568 32.0335429 77.8174568 45.4090433 2"></polyline>
            <path d="M131.349259,104.18753 L139.883653,104.18753 C145.352429,104.18753 149.179976,102.651041 151.369277,99.5720678 C153.557583,96.4970911 154.651736,91.938573 154.651736,85.8935165 C154.651736,79.741565 153.39346,75.1540754 150.876908,72.1310476 C148.360356,69.1090189 144.038451,67.598504 137.914177,67.598504 L131.349259,67.598504 L131.349259,104.18753 Z M131.349259,50.7860339 L138.732803,50.7860339 C142.561344,50.7860339 145.791085,49.4953029 148.415063,46.911843 C151.041031,44.3323791 152.355009,40.5680801 152.355009,35.6219431 C152.355009,24.4149618 147.923689,18.8124701 139.061049,18.8124701 L131.349259,18.8124701 L131.349259,50.7860339 Z M111,2 L141.194647,2 C152.134189,2 160.120512,4.69335191 165.154611,10.0760597 C170.184732,15.4607655 172.703273,23.2620953 172.703273,33.481048 C172.703273,36.009562 172.42874,38.5640505 171.883653,41.1445134 C171.333592,43.7279733 170.489105,46.1186229 169.338255,48.3134649 C168.191384,50.513302 166.714277,52.4913572 164.90793,54.2476305 C163.102577,56.0059018 160.995835,57.3795512 158.590687,58.3675798 C163.842622,60.6753108 167.888005,64.0280145 170.734792,68.4226937 C173.578596,72.8173728 175,78.8624294 175,86.5528682 C175,91.4960081 174.428056,96.0585223 173.277206,100.232419 C172.130335,104.409312 170.295142,108.034747 167.780579,111.109724 C165.263032,114.188697 161.979578,116.60632 157.934195,118.362593 C153.884834,120.122862 148.963135,121 143.164123,121 L111,121 L111,2 L111,2 Z" id="Fill-2" fill="#FFFFFF"></path>
            <polyline id="Fill-3" fill="#FFFFFF" points="183 121 183 2 237.693399 2 237.693399 19.8004987 203.427896 19.8004987 203.427896 50.4573571 229.786052 50.4573571 229.786052 68.2578557 203.427896 68.2578557 203.427896 103.199501 240 103.199501 240 121 183 121"></polyline>
            <polyline id="Fill-4" fill="#FFFFFF" points="248.639919 19.7994997 248.639919 2 303 2 303 21.447879 265.213641 103.199501 303 103.199501 303 121 244 121 244 101.551122 282.283601 19.7994997 248.639919 19.7994997"></polyline>
            <path d="M345.555808,27.455565 C345.555808,19.8931273 342.368874,16.1124067 336,16.1124067 C329.62813,16.1124067 326.441196,19.8931273 326.441196,27.455565 L326.441196,47.1842698 C326.441196,51.0227874 327.238179,53.870784 328.831146,55.7332423 C330.424114,57.5976936 332.482488,58.527428 335.010263,58.527428 C336.876881,58.527428 338.799428,57.8697381 340.777904,56.5553547 C342.754382,55.2399749 344.345352,54.088021 345.555808,53.1034791 L345.555808,27.455565 Z M327.265144,88.4503267 L327.265144,94.5319655 C327.265144,102.0954 330.175431,105.87612 336,105.87612 C342.368874,105.87612 345.555808,102.0954 345.555808,94.5319655 L345.555808,66.7475556 C344.238489,68.0629355 343.001068,69.2148893 341.848538,70.1984347 C340.69501,71.1869626 339.485553,72.009075 338.224162,72.666765 C336.959775,73.3244549 335.586528,73.8177223 334.104419,74.1445743 C332.621311,74.4754123 330.835589,74.6398347 328.749251,74.6398347 C325.784034,74.6398347 322.98161,74.2033678 320.345972,73.3244549 C317.709336,72.449528 315.40228,71.0225401 313.424803,69.0504669 C311.448325,67.0773971 309.882323,64.5572489 308.729793,61.4870327 C307.577263,58.4208025 307,54.6928964 307,50.3082969 L307,36.1699565 C307,23.5662259 309.24913,14.3864689 313.755381,8.63068554 C318.257637,2.87689518 325.672177,0 336,0 C346.322829,0 353.73737,2.60584721 358.242621,7.80956964 C362.745876,13.0152851 365,21.2643111 365,32.5516654 L365,89.4358651 C365,100.726209 362.745876,108.973242 358.242621,114.177961 C353.73737,119.386666 346.322829,121.98753 336,121.98753 C331.933189,122.096149 328.280849,121.49526 325.040982,120.180876 C321.800117,118.863503 319.027654,117.028947 316.720598,114.672225 C314.413541,112.315503 312.626821,109.52032 311.36543,106.287675 C310.101043,103.055029 309.471846,99.5214405 309.471846,95.6829229 L309.471846,88.4503267 L327.265144,88.4503267 L327.265144,88.4503267 Z" id="Fill-5" fill="#D8232A"></path>
            <path d="M392.333199,26.4471457 L376,26.4471457 L376,15.3717271 C380.666195,13.0572512 385.054581,10.635568 389.166166,8.09966381 C393.275732,5.56476161 397.054956,2.86654356 400.499798,0 L411,0 L411,121 L392.333199,121 L392.333199,26.4471457" id="Fill-6" fill="#D8232A"></path>
            <polygon id="Fill-7" fill="#D8232A" points="419 121 438 121 438 102 419 102"></polygon>
            <path d="M463.451133,86.7999934 L463.451133,96.3865326 C463.451133,99.5837156 464.275932,102.117616 465.922534,103.990237 C467.570135,105.865865 469.765937,106.800672 472.512937,106.800672 C475.6973,106.800672 478.166705,105.726595 479.925144,103.577439 C481.681586,101.429285 482.562304,97.6549857 482.562304,92.2545418 L482.562304,65.1451153 C482.562304,61.2886574 481.710544,58.5062766 480.008023,56.796971 C478.303505,55.0896693 476.301421,54.2360184 473.995778,54.2360184 C470.809418,54.2360184 468.394934,55.1187255 466.747333,56.8811338 C465.098733,58.644544 463.836571,60.7926983 462.957851,63.3265985 L447.141881,63.3265985 C447.249724,58.6976467 447.414484,54.2360184 447.636161,49.936704 C447.854843,45.6393935 448.019603,41.1216568 448.13144,36.3824918 C448.239283,31.6453306 448.349123,26.4933673 448.459962,20.9266019 C448.569802,15.3638441 448.623723,9.05364093 448.623723,2 L498.211517,2 L497.553475,18.8606065 L465.427255,18.8606065 L464.275932,44.6464733 L464.604453,44.9781147 C467.130774,41.8941507 469.573218,39.9644188 471.935778,39.1919249 C474.29634,38.4224368 477.069303,38.0366908 480.254664,38.0366908 C488.163148,38.0366908 493.762994,40.7629631 497.058196,46.2175116 C500.354396,51.67206 502,59.416036 502,69.4424258 L502,85.9733948 C502,98.5356889 499.860116,107.850703 495.577352,113.90942 C491.294589,119.972144 484.208906,123 474.325298,123 C470.149379,123 466.278016,122.531093 462.71121,121.596285 C459.14041,120.660476 456.038926,119.115488 453.401766,116.967334 C450.766603,114.818177 448.706603,112.008744 447.22476,108.53703 C445.74192,105.065316 445,100.851167 445,95.8905735 L445,86.7999934 L463.451133,86.7999934" id="Fill-8" fill="#D8232A"></path>
            <path d="M551.444871,41.2692785 L551.444871,32.0626715 C551.444871,27.0218599 550.449069,23.3752941 548.459474,21.1289537 C546.471889,18.8826134 544.14969,17.75745 541.497901,17.75745 C537.294631,17.75745 534.423786,18.8258071 532.876323,20.9635178 C531.32685,23.1012286 530.556134,26.4179192 530.556134,30.9105999 L530.556134,91.0884035 C530.556134,95.5850706 531.32685,98.899768 532.876323,101.037479 C534.423786,103.174193 537.294631,104.24255 541.497901,104.24255 C545.254015,104.24255 547.852547,103.202098 549.289477,101.118204 C550.724397,99.0382956 551.444871,96.079385 551.444871,92.2394785 L551.444871,77.9362502 L572,77.9362502 L572,91.5827179 C572,95.7495099 571.363933,99.6960528 570.095817,103.42135 C568.821672,107.147644 566.94462,110.38361 564.458631,113.121275 C561.972642,115.862926 558.79331,118.028542 554.926662,119.615132 C551.055996,121.203715 546.579407,122 541.497901,122 C536.079772,122 531.411258,121.203715 527.489344,119.615132 C523.564415,118.028542 520.304695,115.862926 517.709178,113.121275 C515.110647,110.38361 513.173304,107.147644 511.905188,103.42135 C510.634058,99.6960528 510,95.7495099 510,91.5827179 L510,30.4172821 C510,26.2534799 510.634058,22.3079336 511.905188,18.5796465 C513.173304,14.8543491 515.110647,11.6203764 517.709178,8.878725 C520.304695,6.13906679 523.564415,3.97444778 527.489344,2.38387139 C531.411258,0.796284799 536.079772,0 541.497901,0 C546.579407,0 551.055996,0.879002745 554.926662,2.63102862 C558.79331,4.38504771 561.972642,6.74101425 564.458631,9.70092145 C566.94462,12.659832 568.821672,16.1130571 570.095817,20.0586035 C571.363933,24.0051464 572,28.1719383 572,32.5549928 L572,41.2692785 L551.444871,41.2692785" id="Fill-9" fill="#7B898B"></path>
            <polyline id="Fill-10" fill="#7B898B" points="582 121 582 2 602.557831 2 602.557831 50.4573571 624.441164 50.4573571 624.441164 2 645 2 645 121 624.441164 121 624.441164 68.2578557 602.557831 68.2578557 602.557831 121 582 121"></polyline>
            <polygon id="Fill-11" fill="#7B898B" points="658 121 678 121 678 2 658 2"></polygon>
            <path d="M732.444871,41.2692785 L732.444871,32.0626715 C732.444871,27.0218599 731.450074,23.3752941 729.458469,21.1289537 C727.471889,18.8826134 725.148685,17.75745 722.496896,17.75745 C718.294631,17.75745 715.422781,18.8258071 713.875318,20.9635178 C712.325846,23.1012286 711.556134,26.4179192 711.556134,30.9105999 L711.556134,91.0884035 C711.556134,95.5850706 712.325846,98.899768 713.875318,101.037479 C715.422781,103.174193 718.294631,104.24255 722.496896,104.24255 C726.254015,104.24255 728.852547,103.202098 730.288472,101.118204 C731.723392,99.0382956 732.444871,96.079385 732.444871,92.2394785 L732.444871,77.9362502 L753,77.9362502 L753,91.5827179 C753,95.7495099 752.362928,99.6960528 751.094812,103.42135 C749.823682,107.147644 747.945625,110.38361 745.458631,113.121275 C742.971637,115.862926 739.792305,118.028542 735.926662,119.615132 C732.055996,121.203715 727.579407,122 722.496896,122 C717.079772,122 712.410253,121.203715 708.488339,119.615132 C704.564415,118.028542 701.304695,115.862926 698.709178,113.121275 C696.110647,110.38361 694.174308,107.147644 692.904183,103.42135 C691.634058,99.6960528 691,95.7495099 691,91.5827179 L691,30.4172821 C691,26.2534799 691.634058,22.3079336 692.904183,18.5796465 C694.174308,14.8543491 696.110647,11.6203764 698.709178,8.878725 C701.304695,6.13906679 704.564415,3.97444778 708.488339,2.38387139 C712.410253,0.796284799 717.079772,0 722.496896,0 C727.579407,0 732.055996,0.879002745 735.926662,2.63102862 C739.792305,4.38504771 742.971637,6.74101425 745.458631,9.70092145 C747.945625,12.659832 749.823682,16.1130571 751.094812,20.0586035 C752.362928,24.0051464 753,28.1719383 753,32.5549928 L753,41.2692785 L732.444871,41.2692785" id="Fill-12" fill="#7B898B"></path>
            <path d="M782.28377,76.8270593 L798.713243,76.8270593 L790.663309,25.7328654 L790.333704,25.7328654 L782.28377,76.8270593 Z M775.711583,121 L756,121 L777.847544,2 L803.147477,2 L825,121 L805.284434,121 L801.670727,94.6287065 L779.327282,94.6287065 L775.711583,121 L775.711583,121 Z" id="Fill-13" fill="#7B898B"></path>
            <path d="M855.348255,60.1772985 L889,60.1772985 L889,120.35659 L879.056206,120.35659 L875.242877,111.477793 C872.145992,115.095487 869.135522,117.751452 866.207449,119.451669 C863.27837,121.149892 859.382646,122 854.51927,122 C846.338952,122 839.709086,119.31613 834.625652,113.943406 C829.541214,108.573672 827,101.118033 827,91.5824695 L827,30.4175305 C827,26.2526978 827.635052,22.3071192 828.907167,18.5788016 C830.175262,14.8534738 832.056303,11.6194747 834.543256,8.87780092 C837.03021,6.13911694 840.150206,3.97348364 843.909274,2.38389086 C847.664322,0.796291304 852.087582,0 857.171016,0 C862.253444,0 866.72996,0.878013315 870.600564,2.63005351 C874.466144,4.38408692 877.698681,6.74106931 880.29717,9.70100069 C882.892645,12.6589389 884.829957,16.1131887 886.099057,20.0587673 C887.369161,24.0053425 888.007228,28.1721684 888.007228,32.5542621 L888.007228,40.1195278 L868.4442,40.1195278 C868.4442,35.7364375 868.222132,32.0898419 867.781012,29.1847241 C867.338887,26.2806029 866.621439,23.9794306 865.626657,22.2782175 C864.630871,20.5809909 863.388901,19.4000082 861.897734,18.7442389 C860.402548,18.0864763 858.664192,17.7575951 856.67262,17.7575951 C854.130401,17.7575951 851.976046,18.6605236 850.209556,20.4703672 C848.439046,22.2782175 847.5558,25.705559 847.5558,30.7464118 L847.5558,91.7469101 C847.5558,95.5848548 848.273249,98.6275048 849.712165,100.87187 C851.147062,103.121219 853.63301,104.243402 857.171016,104.243402 C861.371204,104.243402 864.300282,102.984683 865.958251,100.461267 C867.61622,97.939844 868.4442,93.7192011 868.4442,87.8023281 L868.4442,76.2904873 L855.348255,76.2904873 L855.348255,60.1772985" id="Fill-14" fill="#7B898B"></path>
            <path d="M919.557503,91.0884035 C919.557503,95.5850706 920.329276,98.899768 921.878852,101.037479 C923.427423,103.174193 926.298459,104.243547 930.501005,104.243547 C934.699531,104.243547 937.573582,103.174193 939.123158,101.037479 C940.665699,98.899768 941.439482,95.5850706 941.439482,91.0884035 L941.439482,30.9115965 C941.439482,26.4169226 940.665699,23.100232 939.123158,20.9645144 C937.573582,18.8268037 934.699531,17.75745 930.501005,17.75745 C926.298459,17.75745 923.427423,18.8268037 921.878852,20.9645144 C920.329276,23.100232 919.557503,26.4169226 919.557503,30.9115965 L919.557503,91.0884035 Z M899,30.4172821 C899,26.2534799 899.6341,22.306937 900.907325,18.5796465 C902.175525,14.8533525 904.110987,11.6193798 906.709692,8.8777284 C909.306387,6.14006339 912.565319,3.97345118 916.490509,2.38486799 C920.412684,0.796284799 925.082515,0 930.501005,0 C935.913466,0 940.586311,0.796284799 944.504466,2.38486799 C948.433676,3.97345118 951.689594,6.14006339 954.292318,8.8777284 C956.884993,11.6193798 958.824475,14.8533525 960.090665,18.5796465 C961.366905,22.306937 962,26.2534799 962,30.4172821 L962,91.5827179 C962,95.7495099 961.366905,99.6960528 960.090665,103.42135 C958.824475,107.148641 956.884993,110.38361 954.292318,113.121275 C951.689594,115.862926 948.433676,118.029539 944.504466,119.615132 C940.586311,121.203715 935.913466,122 930.501005,122 C925.082515,122 920.412684,121.203715 916.490509,119.615132 C912.565319,118.029539 909.306387,115.862926 906.709692,113.121275 C904.110987,110.38361 902.175525,107.148641 900.907325,103.42135 C899.6341,99.6960528 899,95.7495099 899,91.5827179 L899,30.4172821 L899,30.4172821 Z" id="Fill-15" fill="#7B898B"></path>
        </g>
    </g>
</svg>