<?xml version="1.0" encoding="UTF-8"?>
<svg width="1000px" height="1000px" viewBox="0 0 1000 1000" version="1.1" xmlns="http://www.w3.org/2000/svg" xmlns:xlink="http://www.w3.org/1999/xlink">
    <title>Artboard</title>
    <defs>
        <rect id="path-1" x="0" y="0" width="1000" height="1000"></rect>
        <rect id="path-3" x="0" y="0" width="1006.37915" height="1006.37915"></rect>
    </defs>
    <g id="Artboard" stroke="none" stroke-width="1" fill="none" fill-rule="evenodd">
        <g id="Combined-Shape">
            <mask id="mask-2" fill="white">
                <use xlink:href="#path-1"></use>
            </mask>
            <use id="Mask" fill="#F90000" xlink:href="#path-1"></use>
            <g mask="url(#mask-2)">
                <g transform="translate(-3.000000, -3.000000)">
                    <mask id="mask-4" fill="white">
                        <use xlink:href="#path-3"></use>
                    </mask>
                    <g id="Mask" stroke="none" fill="none"></g>
                    <polygon id="Combined-Shape" stroke="none" fill="#DF0000" fill-rule="evenodd" mask="url(#mask-4)" points="242.547098 189.874083 1621.517 189.874083 1621.517 1169.36524 242.547098 1169.36524"></polygon>
                    <g id="wbez-letters" stroke="none" stroke-width="1" fill="none" fill-rule="evenodd" mask="url(#mask-4)">
                        <g transform="translate(128.930233, 359.441860)" fill="#FFFFFF" fill-rule="nonzero">
                            <polyline id="Fill-1" points="108.322633 0 148.501536 0 181.587771 183.209833 182.373698 183.209833 209.552597 0 255.245873 0 205.220336 287.555477 164.255505 287.555477 128.805048 97.5779466 128.019121 97.5779466 94.9296648 287.555477 53.9648345 287.555477 0 0 45.6932758 0 75.6293611 183.209833 76.415288 183.209833 108.322633 0"></polyline>
                            <path d="M319.680878,246.929753 L339.928443,246.929753 C352.906752,246.929753 361.990932,243.216964 367.184167,235.781617 C372.377401,228.349526 374.972426,217.328406 374.972426,202.721514 C374.972426,187.857332 371.985759,176.774333 366.018793,169.466002 C360.042275,162.167441 349.789538,158.516532 335.257397,158.516532 L319.680878,158.516532 L319.680878,246.929753 Z M319.680878,117.890808 L337.20287,117.890808 C346.28705,117.890808 353.947946,114.77402 360.179191,108.530673 C366.407251,102.297096 369.521281,93.1975074 369.521281,81.2481904 C369.521281,54.1643747 359.010633,40.6257236 337.98297,40.6257236 L319.680878,40.6257236 L319.680878,117.890808 Z M271.400675,0 L343.045657,0 C368.999092,0 387.950736,6.51040737 399.89422,19.5149379 C411.831335,32.529239 417.804669,51.3797832 417.804669,76.0730842 C417.804669,82.1796444 417.151933,88.3545981 415.859196,94.5914315 C414.556908,100.831522 412.547753,106.605885 409.825365,111.914521 C407.099792,117.229671 403.590936,122.010701 399.311533,126.254353 C395.025761,130.504519 390.023572,133.823231 384.320885,136.210489 C396.780189,141.786185 406.38019,149.889184 413.133624,160.506456 C419.880689,171.130243 423.255814,185.733878 423.255814,204.317362 C423.255814,216.266679 421.893028,227.284542 419.167455,237.374208 C416.441883,247.46713 412.09243,256.231266 406.12228,263.6601 C400.15213,271.095447 392.363871,276.941461 382.760686,281.185113 C373.154316,285.435279 361.471927,287.555477 347.716702,287.555477 L271.400675,287.555477 L271.400675,0 L271.400675,0 Z" id="Fill-2"></path>
                            <polyline id="Fill-3" points="452.334458 287.555477 452.334458 0 585.64441 0 585.64441 43.0162384 502.125396 43.0162384 502.125396 117.092885 566.370286 117.092885 566.370286 160.105866 502.125396 160.105866 502.125396 244.542495 591.265755 244.542495 591.265755 287.555477 452.334458 287.555477"></polyline>
                            <polyline id="Fill-4" points="621.578125 43.0162384 621.578125 0 749.582816 0 749.582816 46.9960872 660.603089 244.542495 749.582816 244.542495 749.582816 287.555477 610.651518 287.555477 610.651518 240.559389 700.799217 43.0162384 621.578125 43.0162384"></polyline>
                        </g>
                    </g>
                </g>
            </g>
        </g>
    </g>
</svg>