<?xml version="1.0" encoding="UTF-8"?>
<svg width="229px" height="320px" viewBox="0 0 229 320" version="1.1" xmlns="http://www.w3.org/2000/svg" xmlns:xlink="http://www.w3.org/1999/xlink">
    <!-- Generator: Sketch 58 (84663) - https://sketch.com -->
    <title>WBEZ91.5Chicago_stacked_Full</title>
    <desc>Created with Sketch.</desc>
    <g id="WBEZ91.5Chicago_stacked_Full" stroke="none" stroke-width="1" fill="none" fill-rule="evenodd">
        <polyline id="Fill-1" fill="#1B1A19" points="33.704 0.808 46.178 0.808 56.45 57.062 56.694 57.062 65.132 0.808 79.318 0.808 63.787 89.101 51.069 89.101 40.063 30.769 39.819 30.769 29.546 89.101 16.828 89.101 0.074 0.808 14.26 0.808 23.554 57.062 23.798 57.062 33.704 0.808"></polyline>
        <path d="M99.25,76.627 L105.609,76.627 C109.685,76.627 112.538,75.487 114.169,73.204 C115.8,70.922 116.615,67.538 116.615,63.053 C116.615,58.489 115.677,55.086 113.803,52.842 C111.926,50.601 108.706,49.48 104.142,49.48 L99.25,49.48 L99.25,76.627 Z M99.25,37.006 L104.753,37.006 C107.606,37.006 110.012,36.049 111.969,34.132 C113.925,32.218 114.903,29.424 114.903,25.755 C114.903,17.439 111.602,13.282 104.998,13.282 L99.25,13.282 L99.25,37.006 Z M84.087,0.808 L106.588,0.808 C114.739,0.808 120.691,2.807 124.442,6.8 C128.191,10.796 130.067,16.584 130.067,24.166 C130.067,26.041 129.862,27.937 129.456,29.852 C129.047,31.768 128.416,33.541 127.561,35.171 C126.705,36.803 125.603,38.271 124.259,39.574 C122.913,40.879 121.342,41.898 119.551,42.631 C123.464,44.343 126.479,46.831 128.6,50.091 C130.719,53.353 131.779,57.837 131.779,63.543 C131.779,67.212 131.351,70.595 130.495,73.693 C129.639,76.792 128.273,79.483 126.398,81.764 C124.523,84.047 122.077,85.842 119.061,87.145 C116.044,88.45 112.375,89.101 108.055,89.101 L84.087,89.101 L84.087,0.808 L84.087,0.808 Z" id="Fill-2" fill="#1B1A19"></path>
        <polyline id="Fill-3" fill="#1B1A19" points="137.894 89.101 137.894 0.808 178.494 0.808 178.494 14.016 153.058 14.016 153.058 36.761 172.624 36.761 172.624 49.968 153.058 49.968 153.058 75.894 180.206 75.894 180.206 89.101 137.894 89.101"></polyline>
        <polyline id="Fill-4" fill="#1B1A19" points="188.764 14.016 188.764 0.808 228.876 0.808 228.876 15.238 200.993 75.894 228.876 75.894 228.876 89.101 185.34 89.101 185.34 74.671 213.589 14.016 188.764 14.016"></polyline>
        <path d="M45.089,136.99 C45.089,128.291 41.431,123.941 34.12,123.941 C26.807,123.941 23.152,128.291 23.152,136.99 L23.152,159.683 C23.152,164.098 24.065,167.374 25.894,169.516 C27.72,171.661 30.085,172.731 32.986,172.731 C35.128,172.731 37.336,171.975 39.605,170.462 C41.874,168.949 43.7,167.625 45.089,166.491 L45.089,136.99 Z M24.098,207.15 L24.098,214.147 C24.098,222.846 27.437,227.196 34.12,227.196 C41.431,227.196 45.089,222.846 45.089,214.147 L45.089,182.187 C43.576,183.7 42.158,185.023 40.834,186.159 C39.51,187.293 38.122,188.239 36.674,188.995 C35.223,189.752 33.648,190.319 31.946,190.697 C30.244,191.075 28.193,191.265 25.8,191.265 C22.396,191.265 19.181,190.762 16.155,189.752 C13.129,188.744 10.482,187.104 8.212,184.835 C5.943,182.566 4.146,179.667 2.823,176.135 C1.499,172.607 0.837,168.32 0.837,163.276 L0.837,147.012 C0.837,132.516 3.419,121.955 8.591,115.336 C13.759,108.717 22.269,105.408 34.12,105.408 C45.97,105.408 54.48,108.404 59.651,114.39 C64.819,120.38 67.404,129.868 67.404,142.852 L67.404,208.285 C67.404,221.271 64.819,230.759 59.651,236.746 C54.48,242.735 45.97,245.728 34.12,245.728 C29.455,245.852 25.262,245.161 21.545,243.648 C17.825,242.135 14.642,240.025 11.995,237.313 C9.347,234.604 7.296,231.388 5.849,227.668 C4.398,223.951 3.673,219.886 3.673,215.471 L3.673,207.15 L24.098,207.15 L24.098,207.15 Z" id="Fill-5" fill="#D6232A"></path>
        <path d="M94.444,135.666 L75.911,135.666 L75.911,122.995 C81.206,120.348 86.185,117.576 90.851,114.675 C95.514,111.776 99.801,108.688 103.71,105.408 L115.625,105.408 L115.625,243.837 L94.444,243.837 L94.444,135.666" id="Fill-6" fill="#D6232A"></path>
        <polygon id="Fill-7" fill="#D6232A" points="128.292 243.837 150.607 243.837 150.607 221.522 128.292 221.522"></polygon>
        <path d="M183.51,204.313 L183.51,215.282 C183.51,218.94 184.456,221.838 186.347,223.981 C188.238,226.126 190.758,227.196 193.911,227.196 C197.567,227.196 200.403,225.966 202.421,223.508 C204.437,221.049 205.447,216.732 205.447,210.553 L205.447,179.54 C205.447,175.128 204.47,171.945 202.516,169.99 C200.56,168.036 198.261,167.058 195.614,167.058 C191.956,167.058 189.183,168.068 187.292,170.084 C185.402,172.102 183.951,174.561 182.943,177.46 L164.789,177.46 C164.913,172.164 165.101,167.058 165.356,162.142 C165.607,157.225 165.796,152.056 165.923,146.634 C166.047,141.215 166.174,135.32 166.301,128.952 C166.426,122.587 166.49,115.369 166.49,107.299 L223.413,107.299 L222.657,126.588 L185.78,126.588 L184.456,156.09 L184.834,156.468 C187.732,152.94 190.537,150.732 193.25,149.849 C195.959,148.968 199.142,148.525 202.8,148.525 C211.877,148.525 218.307,151.646 222.088,157.886 C225.871,164.127 227.763,172.986 227.763,184.456 L227.763,203.367 C227.763,217.74 225.304,228.395 220.387,235.328 C215.471,242.262 207.339,245.728 195.992,245.728 C191.199,245.728 186.755,245.19 182.659,244.121 C178.561,243.051 175.001,241.284 171.975,238.826 C168.949,236.367 166.585,233.153 164.883,229.181 C163.181,225.209 162.33,220.388 162.33,214.714 L162.33,204.313 L183.51,204.313" id="Fill-8" fill="#D6232A"></path>
        <path d="M19.983,280.754 L19.983,276.278 C19.983,273.828 19.503,272.056 18.544,270.963 C17.585,269.871 16.466,269.325 15.187,269.325 C13.161,269.325 11.776,269.844 11.03,270.883 C10.284,271.922 9.911,273.535 9.911,275.718 L9.911,304.973 C9.911,307.159 10.284,308.77 11.03,309.809 C11.776,310.848 13.161,311.368 15.187,311.368 C16.998,311.368 18.25,310.862 18.944,309.849 C19.636,308.838 19.983,307.399 19.983,305.533 L19.983,298.579 L29.894,298.579 L29.894,305.213 C29.894,307.239 29.587,309.157 28.975,310.969 C28.361,312.78 27.456,314.353 26.257,315.684 C25.058,317.016 23.526,318.07 21.661,318.841 C19.796,319.613 17.637,320 15.187,320 C12.575,320 10.324,319.613 8.433,318.841 C6.541,318.07 4.968,317.016 3.717,315.684 C2.464,314.353 1.531,312.78 0.919,310.969 C0.306,309.157 0,307.239 0,305.213 L0,275.479 C0,273.454 0.306,271.536 0.919,269.724 C1.531,267.913 2.464,266.341 3.717,265.008 C4.968,263.677 6.541,262.624 8.433,261.85 C10.324,261.079 12.575,260.692 15.187,260.692 C17.637,260.692 19.796,261.119 21.661,261.971 C23.526,262.823 25.058,263.969 26.257,265.408 C27.456,266.846 28.361,268.525 28.975,270.443 C29.587,272.362 29.894,274.387 29.894,276.518 L29.894,280.754 L19.983,280.754" id="Fill-9" fill="#7B8A8C"></path>
        <polyline id="Fill-10" fill="#7B8A8C" points="36.768 319.201 36.768 261.491 46.68 261.491 46.68 284.991 57.23 284.991 57.23 261.491 67.142 261.491 67.142 319.201 57.23 319.201 57.23 293.623 46.68 293.623 46.68 319.201 36.768 319.201"></polyline>
        <polygon id="Fill-11" fill="#7B8A8C" points="74.895 319.201 84.806 319.201 84.806 261.491 74.895 261.491"></polygon>
        <path d="M112.542,280.754 L112.542,276.278 C112.542,273.828 112.063,272.056 111.104,270.963 C110.144,269.871 109.026,269.325 107.747,269.325 C105.721,269.325 104.336,269.844 103.59,270.883 C102.844,271.922 102.471,273.535 102.471,275.718 L102.471,304.973 C102.471,307.159 102.844,308.77 103.59,309.809 C104.336,310.848 105.721,311.368 107.747,311.368 C109.557,311.368 110.81,310.862 111.504,309.849 C112.195,308.838 112.542,307.399 112.542,305.533 L112.542,298.579 L122.454,298.579 L122.454,305.213 C122.454,307.239 122.147,309.157 121.534,310.969 C120.921,312.78 120.016,314.353 118.817,315.684 C117.619,317.016 116.086,318.07 114.221,318.841 C112.355,319.613 110.197,320 107.747,320 C105.135,320 102.883,319.613 100.992,318.841 C99.1,318.07 97.528,317.016 96.277,315.684 C95.024,314.353 94.091,312.78 93.479,310.969 C92.866,309.157 92.56,307.239 92.56,305.213 L92.56,275.479 C92.56,273.454 92.866,271.536 93.479,269.724 C94.091,267.913 95.024,266.341 96.277,265.008 C97.528,263.677 99.1,262.624 100.992,261.85 C102.883,261.079 105.135,260.692 107.747,260.692 C110.197,260.692 112.355,261.119 114.221,261.971 C116.086,262.823 117.619,263.969 118.817,265.408 C120.016,266.846 120.921,268.525 121.534,270.443 C122.147,272.362 122.454,274.387 122.454,276.518 L122.454,280.754 L112.542,280.754" id="Fill-12" fill="#7B8A8C"></path>
        <path d="M138.28,297.779 L146.272,297.779 L142.356,273.001 L142.196,273.001 L138.28,297.779 Z M135.083,319.201 L125.491,319.201 L136.122,261.491 L148.431,261.491 L159.061,319.201 L149.47,319.201 L147.711,306.412 L136.841,306.412 L135.083,319.201 L135.083,319.201 Z" id="Fill-13" fill="#7B8A8C"></path>
        <path d="M175.286,289.946 L191.512,289.946 L191.512,319.201 L186.717,319.201 L184.878,314.884 C183.385,316.643 181.933,317.936 180.522,318.762 C179.109,319.587 177.23,320 174.886,320 C170.943,320 167.745,318.695 165.295,316.083 C162.843,313.473 161.618,309.849 161.618,305.213 L161.618,275.479 C161.618,273.454 161.925,271.536 162.538,269.724 C163.149,267.913 164.056,266.341 165.255,265.008 C166.454,263.677 167.959,262.624 169.771,261.85 C171.583,261.079 173.714,260.692 176.166,260.692 C178.616,260.692 180.774,261.119 182.64,261.971 C184.504,262.823 186.063,263.969 187.316,265.408 C188.567,266.846 189.5,268.525 190.114,270.443 C190.726,272.362 191.032,274.387 191.032,276.518 L191.032,280.194 L181.601,280.194 C181.601,278.064 181.494,276.292 181.281,274.88 C181.068,273.468 180.721,272.349 180.242,271.523 C179.763,270.697 179.163,270.124 178.443,269.804 C177.724,269.484 176.885,269.325 175.926,269.325 C174.699,269.325 173.66,269.764 172.809,270.643 C171.955,271.523 171.529,273.188 171.529,275.639 L171.529,305.293 C171.529,307.159 171.876,308.638 172.569,309.729 C173.26,310.822 174.459,311.368 176.166,311.368 C178.19,311.368 179.602,310.756 180.401,309.53 C181.202,308.304 181.601,306.253 181.601,303.375 L181.601,297.779 L175.286,297.779 L175.286,289.946" id="Fill-14" fill="#7B8A8C"></path>
        <path d="M208.298,304.973 C208.298,307.159 208.67,308.77 209.417,309.809 C210.163,310.848 211.548,311.368 213.574,311.368 C215.598,311.368 216.983,310.848 217.73,309.809 C218.476,308.77 218.849,307.159 218.849,304.973 L218.849,275.718 C218.849,273.535 218.476,271.922 217.73,270.883 C216.983,269.844 215.598,269.325 213.574,269.325 C211.548,269.325 210.163,269.844 209.417,270.883 C208.67,271.922 208.298,273.535 208.298,275.718 L208.298,304.973 Z M198.387,275.479 C198.387,273.454 198.693,271.536 199.306,269.724 C199.917,267.913 200.85,266.341 202.103,265.008 C203.355,263.677 204.928,262.624 206.819,261.85 C208.71,261.079 210.962,260.692 213.574,260.692 C216.184,260.692 218.435,261.079 220.328,261.85 C222.218,262.624 223.791,263.677 225.044,265.008 C226.296,266.341 227.227,267.913 227.842,269.724 C228.453,271.536 228.76,273.454 228.76,275.479 L228.76,305.213 C228.76,307.239 228.453,309.157 227.842,310.969 C227.227,312.78 226.296,314.353 225.044,315.684 C223.791,317.016 222.218,318.07 220.328,318.841 C218.435,319.613 216.184,320 213.574,320 C210.962,320 208.71,319.613 206.819,318.841 C204.928,318.07 203.355,317.016 202.103,315.684 C200.85,314.353 199.917,312.78 199.306,310.969 C198.693,309.157 198.387,307.239 198.387,305.213 L198.387,275.479 L198.387,275.479 Z" id="Fill-15" fill="#7B8A8C"></path>
    </g>
</svg>