<?xml version="1.0" encoding="UTF-8"?>
<svg width="634px" height="186px" viewBox="0 0 634 186" version="1.1" xmlns="http://www.w3.org/2000/svg" xmlns:xlink="http://www.w3.org/1999/xlink">
    <title>Group</title>
    <g id="social-(rectangle)-+-tagline" stroke="none" stroke-width="1" fill="none" fill-rule="evenodd">
        <g id="light:gradient" transform="translate(-195.000000, -163.000000)">
            <g id="Group" transform="translate(195.000000, 163.000000)">
                <g id="wbez-chicago-logo-oneline" fill-rule="nonzero">
                    <g>
                        <g id="chicago" transform="translate(259.689922, 0.000000)" fill="#EC0101" fill-opacity="0.8">
                            <path d="M34.2599907,33.8268025 L34.2599907,26.2797599 C34.2599907,22.1487826 33.4370514,19.1609901 31.7928873,17.3180684 C30.1487232,15.4768328 28.2302461,14.556215 26.0374557,14.556215 C22.5639662,14.556215 20.1894435,15.4313078 18.9104587,17.1831793 C17.6314739,18.9350509 16.9919816,21.6547515 16.9919816,25.3355365 L16.9919816,74.6627774 C16.9919816,78.3486207 17.6314739,81.0649491 18.9104587,82.8168207 C20.1894435,84.5686926 22.5639662,85.4454711 26.0374557,85.4454711 C29.1423371,85.4454711 31.2888371,84.5922975 32.47867,82.8842653 C33.6650742,81.1796048 34.2599907,78.7532879 34.2599907,75.6070007 L34.2599907,63.8817698 L51.2519723,63.8817698 L51.2519723,75.0674445 C51.2519723,78.4835098 50.725634,81.7174749 49.6763865,84.7727116 C48.62371,87.8262628 47.0721265,90.478519 45.0164928,92.7227355 C42.9608591,94.968638 40.3343112,96.7458017 37.1368493,98.045795 C33.9393873,99.3474744 30.237875,100 26.0374557,100 C21.5592946,100 17.7000522,99.3474744 14.4580144,98.045795 C11.2142621,96.7458017 8.51742152,94.968638 6.37263601,92.7227355 C4.22442161,90.478519 2.6248334,87.8262628 1.57558582,84.7727116 C0.524623788,81.7174749 0,78.4835098 0,75.0674445 L0,24.9325555 C0,21.5181763 0.524623788,18.2842112 1.57558582,15.2289741 C2.6248334,12.1754232 4.22442161,9.52485331 6.37263601,7.27726445 C8.51742152,5.03304782 11.2142621,3.25757064 14.4580144,1.95251905 C17.7000522,0.652525798 21.5592946,0 26.0374557,0 C30.237875,0 33.9393873,0.719970325 37.1368493,2.15653874 C40.3343112,3.59310717 42.9608591,5.52539287 45.0164928,7.95170972 C47.0721265,10.3763405 48.62371,13.2073245 49.6763865,16.4412895 C50.725634,19.6769407 51.2519723,23.0913199 51.2519723,26.684427 L51.2519723,33.8268025 L34.2599907,33.8268025" id="Fill-9"></path>
                            <polyline id="Fill-10" points="60.3450641 98.3471074 60.3450641 1.65289256 77.070209 1.65289256 77.070209 41.0275945 94.8718919 41.0275945 94.8718919 1.65289256 111.597036 1.65289256 111.597036 98.3471074 94.8718919 98.3471074 94.8718919 55.4906765 77.070209 55.4906765 77.070209 98.3471074 60.3450641 98.3471074"></polyline>
                            <polygon id="Fill-11" points="122.343418 98.3471074 138.876312 98.3471074 138.876312 1.65289256 122.343418 1.65289256"></polygon>
                            <path d="M183.88097,33.8268025 L183.88097,26.2797599 C183.88097,22.1487826 183.059745,19.1609901 181.41558,17.3180684 C179.769702,15.4768328 177.852939,14.556215 175.660149,14.556215 C172.186659,14.556215 169.812137,15.4313078 168.533152,17.1831793 C167.254167,18.9350509 166.614675,21.6547515 166.614675,25.3355365 L166.614675,74.6627774 C166.614675,78.3486207 167.254167,81.0649491 168.533152,82.8168207 C169.812137,84.5686926 172.186659,85.4454711 175.660149,85.4454711 C178.763316,85.4454711 180.911531,84.5922975 182.101363,82.8842653 C183.286053,81.1796048 183.88097,78.7532879 183.88097,75.6070007 L183.88097,63.8817698 L200.874666,63.8817698 L200.874666,75.0674445 C200.874666,78.4835098 200.348328,81.7174749 199.297365,84.7727116 C198.246403,87.8262628 196.69482,90.478519 194.639186,92.7227355 C192.585267,94.968638 189.957004,96.7458017 186.759543,98.045795 C183.560366,99.3474744 179.860568,100 175.660149,100 C171.181988,100 167.321031,99.3474744 164.078993,98.045795 C160.835241,96.7458017 158.140115,94.968638 155.99533,92.7227355 C153.847115,90.478519 152.247527,87.8262628 151.198279,84.7727116 C150.147317,81.7174749 149.622693,78.4835098 149.622693,75.0674445 L149.622693,24.9325555 C149.622693,21.5181763 150.147317,18.2842112 151.198279,15.2289741 C152.247527,12.1754232 153.847115,9.52485331 155.99533,7.27726445 C158.140115,5.03304782 160.835241,3.25757064 164.078993,1.95251905 C167.321031,0.652525798 171.181988,0 175.660149,0 C179.860568,0 183.560366,0.719970325 186.759543,2.15653874 C189.957004,3.59310717 192.585267,5.52539287 194.639186,7.95170972 C196.69482,10.3763405 198.246403,13.2073245 199.297365,16.4412895 C200.348328,19.6769407 200.874666,23.0913199 200.874666,26.684427 L200.874666,33.8268025 L183.88097,33.8268025" id="Fill-12"></path>
                            <path d="M224.960087,62.4076647 L238.787598,62.4076647 L232.012256,20.478315 L231.735429,20.478315 L224.960087,62.4076647 Z M219.652281,98.3471074 L203.3546,98.3471074 L221.417637,1.65289256 L242.331748,1.65289256 L260.393085,98.3471074 L244.097103,98.3471074 L241.108402,76.918892 L222.639283,76.918892 L219.652281,98.3471074 L219.652281,98.3471074 Z" id="Fill-13"></path>
                            <path d="M285.479571,49.3255547 L313.298347,49.3255547 L313.298347,98.6527959 L305.077526,98.6527959 L301.92464,91.3738446 C299.364956,94.3397182 296.875565,96.5198628 294.456466,97.9125917 C292.033939,99.3036355 288.812475,100 284.793788,100 C278.033684,100 272.550851,97.7996223 268.350432,93.395495 C264.146584,88.9947397 262.046374,82.8842653 262.046374,75.0674445 L262.046374,24.9325555 C262.046374,21.5181763 262.572712,18.2842112 263.623675,15.2289741 C264.671208,12.1754232 266.22622,9.52485331 268.281854,7.27726445 C270.337488,5.03304782 272.917745,3.25757064 276.024341,1.95251905 C279.130937,0.652525798 282.784444,0 286.988292,0 C291.188711,0 294.888509,0.719970325 298.087686,2.15653874 C301.283434,3.59310717 303.956271,5.52539287 306.104486,7.95170972 C308.249271,10.3763405 309.848859,13.2073245 310.901536,16.4412895 C311.950784,19.6769407 312.475408,23.0913199 312.475408,26.684427 L312.475408,32.8825791 L296.306365,32.8825791 C296.306365,29.291158 296.122918,26.3033655 295.757739,23.9225737 C295.39256,21.5417819 294.797643,19.6550212 293.976418,18.2622917 C293.155193,16.8695623 292.126519,15.9034194 290.89211,15.3638632 C289.659416,14.824307 288.220986,14.556215 286.576822,14.556215 C284.473184,14.556215 282.691863,15.2964187 281.232861,16.7785121 C279.768715,18.2622917 279.038356,21.0696702 279.038356,25.2023336 L279.038356,75.2023336 C279.038356,78.3486207 279.633272,80.8423821 280.821391,82.6819314 C282.006081,84.5248537 284.061715,85.4454711 286.988292,85.4454711 C290.458353,85.4454711 292.879166,84.4135702 294.249017,82.3463951 C295.622297,80.2792203 296.306365,76.8210022 296.306365,71.9683685 L296.306365,62.5328792 L285.479571,62.5328792 L285.479571,49.3255547" id="Fill-14"></path>
                            <path d="M338.924333,74.6796473 C338.924333,78.3681379 339.566986,81.0864172 340.857475,82.8395471 C342.146238,84.5926769 344.538912,85.4700851 348.038955,85.4700851 C351.535542,85.4700851 353.928216,84.5926769 355.218706,82.8395471 C356.507468,81.0864172 357.151849,78.3681379 357.151849,74.6796473 L357.151849,25.3169781 C357.151849,21.6335493 356.507468,18.9118955 355.218706,17.1587656 C353.928216,15.4056358 351.535542,14.5299145 348.038955,14.5299145 C344.538912,14.5299145 342.146238,15.4056358 340.857475,17.1587656 C339.566986,18.9118955 338.924333,21.6335493 338.924333,25.3169781 L338.924333,74.6796473 Z M321.564794,24.9325555 C321.564794,21.5181763 322.089472,18.2842112 323.140544,15.2289741 C324.188186,12.1754232 325.787941,9.52485331 327.936379,7.27726445 C330.083101,5.03304782 332.780223,3.25757064 336.022598,1.95251905 C339.264974,0.652525798 343.126332,0 347.60496,0 C352.080158,0 355.939802,0.652525798 359.185606,1.95251905 C362.426267,3.25757064 365.123388,5.03304782 367.271826,7.27726445 C369.41855,9.52485331 371.014875,12.1754232 372.069376,15.2289741 C373.117018,18.2842112 373.643411,21.5181763 373.643411,24.9325555 L373.643411,75.0674445 C373.643411,78.4835098 373.117018,81.7174749 372.069376,84.7727116 C371.014875,87.8262628 369.41855,90.478519 367.271826,92.7227355 C365.123388,94.968638 362.426267,96.7458017 359.185606,98.045795 C355.939802,99.3474744 352.080158,100 347.60496,100 C343.126332,100 339.264974,99.3474744 336.022598,98.045795 C332.780223,96.7458017 330.083101,94.968638 327.936379,92.7227355 C325.787941,90.478519 324.188186,87.8262628 323.140544,84.7727116 C322.089472,81.7174749 321.564794,78.4835098 321.564794,75.0674445 L321.564794,24.9325555 L321.564794,24.9325555 Z" id="Fill-15"></path>
                        </g>
                        <g id="wbez" transform="translate(-0.000000, 0.775194)" fill="#252525">
                            <path d="M0.0110148732,97.9369881 C-0.236814794,97.7718329 3.72845988,75.723624 8.76766312,49.0510716 L18.0199707,0.49546537 L24.9592014,0.247732685 L31.981042,5.86748865e-15 L37.185465,29.5627671 C43.2159869,63.9150327 43.4638166,65.3188512 44.1246957,63.6673 C44.3725254,63.0066795 47.0160418,49.2162267 49.9899978,33.1136022 C53.0465637,17.0109777 55.6900802,2.97279222 55.8552999,1.98186148 C56.2683494,0.165155123 56.6813988,0.0825775616 63.29019,0.0825775616 C67.1728548,0.0825775616 70.3120306,0.330310246 70.3120306,0.578042931 C70.3120306,0.908353178 74.0294756,22.2133641 78.5730195,47.9775633 C83.1165637,73.8243401 86.8340087,95.7073939 86.8340087,96.6157471 C86.8340087,98.2672983 86.3383494,98.3498759 79.3991184,98.3498759 C75.3512338,98.3498759 71.9642283,98.2672983 71.9642283,98.1021432 C71.9642283,98.0195656 69.8989811,84.394268 67.4206844,67.7961781 C64.9423878,51.1980882 62.8771405,37.1599027 62.7945306,36.4167047 C62.6293109,32.7007144 60.8118933,41.1236257 56.2683494,66.1446268 C53.5422231,81.3388982 51.0639264,94.8816183 50.8160967,96.1202817 L50.3204374,98.4324534 L43.6290364,98.1847207 L36.8550254,97.9369881 L31.4853826,67.2181351 C28.5114266,50.3723126 25.9505201,36.3341271 25.7026904,36.0863944 C25.4548607,35.8386617 23.2243937,47.647253 20.8287069,62.2634814 C18.4330202,76.8797099 16.0373334,91.0004729 15.6242839,93.6429549 L14.798185,98.3498759 L7.61112468,98.3498759 C3.64585,98.3498759 0.176234651,98.1847207 0.0110148732,97.9369881 Z" id="Path" transform="translate(43.417004, 49.216227) scale(-1, 1) rotate(-180.000000) translate(-43.417004, -49.216227) "></path>
                            <path d="M90.1384043,49.2162267 L90.1384043,0.0825775616 L107.734311,0.330310246 C124.091069,0.578042931 125.495437,0.743198054 129.625931,2.55990441 C134.912964,4.9546537 139.126069,9.66157471 141.108706,15.3594265 C143.256563,21.3875885 143.173953,36.5818598 141.026096,40.6281603 C139.126069,44.3441506 134.995574,48.7207613 132.021618,50.2071575 L129.708541,51.4458209 L133.095547,53.9231477 C135.408624,55.574699 137.308651,57.9694482 138.713019,61.1073956 C141.686975,67.4658678 141.852195,78.4486835 138.960849,84.8071558 C134.004255,95.872549 126.982415,98.4324534 101.538569,98.4324534 L90.1384043,98.4324534 L90.1384043,49.2162267 Z M119.051865,83.1556045 C126.321536,79.3570367 126.569365,63.9976102 119.547525,59.6209995 C117.564887,58.4649136 115.41703,57.9694482 111.699585,57.9694482 L106.660382,57.9694482 L106.660382,71.1818581 L106.660382,84.394268 L111.616975,84.394268 C114.508322,84.394268 117.730107,83.816225 119.051865,83.1556045 Z M122.273651,41.1236257 C125.743267,37.8205232 126.734585,34.1045329 126.321536,26.8377075 C125.660657,17.0935553 121.447552,13.1298323 112.030025,13.5427201 L107.073432,13.7904528 L106.825602,28.9847241 L106.660382,44.0964179 L113.186563,43.8486852 C119.134475,43.518375 120.043184,43.2706423 122.273651,41.1236257 Z" id="Shape" transform="translate(116.408647, 49.257515) scale(-1, 1) rotate(-180.000000) translate(-116.408647, -49.257515) "></path>
                            <polygon id="Path" transform="translate(173.574392, 49.216227) scale(-1, 1) rotate(-180.000000) translate(-173.574392, -49.216227) " points="150.443623 49.2162267 150.443623 0.0825775616 173.574392 0.0825775616 196.705161 0.0825775616 196.705161 7.1016703 196.705161 14.120763 181.835381 14.120763 166.965601 14.120763 166.965601 28.9847241 166.965601 43.8486852 177.704887 43.8486852 188.444172 43.8486852 188.444172 50.8677779 188.444172 57.8868707 177.704887 57.8868707 166.965601 57.8868707 166.965601 70.6863927 166.965601 83.4859148 181.009282 83.4859148 195.052964 83.4859148 195.052964 90.9178953 195.052964 98.3498759 172.748293 98.3498759 150.443623 98.3498759"></polygon>
                            <path d="M204.140051,90.9178953 L204.140051,83.4859148 L217.853293,83.4859148 C230.575216,83.4859148 231.566535,83.4033372 231.153485,82.0820962 C230.905655,81.2563206 224.049035,66.2272044 215.788046,48.6381838 L200.835656,16.5980899 L200.835656,8.34033372 L200.835656,0.0825775616 L224.792524,0.0825775616 L248.749391,0.0825775616 L248.749391,7.1016703 L248.749391,14.120763 L233.466562,14.120763 C223.305546,14.120763 218.183732,14.4510733 218.183732,15.0291162 C218.183732,15.442004 225.040353,30.8014305 233.466562,49.1336492 L248.749391,82.4124065 L248.749391,90.3398524 L248.749391,98.3498759 L226.444721,98.3498759 L204.140051,98.3498759 L204.140051,90.9178953 Z" id="Path" transform="translate(224.792524, 49.216227) scale(-1, 1) rotate(-180.000000) translate(-224.792524, -49.216227) "></path>
                        </g>
                    </g>
                </g>
                <g id="tagline-border--dark" opacity="0.7" transform="translate(75.585139, 138.585139)" fill="#000000">
                    <path d="M7.01052632,38.4876868 C9.13964912,38.4876868 10.8468421,37.8505688 12.1321053,36.5763329 C13.4173684,35.3020969 14.06,33.6095512 14.06,31.4986957 L14.06,31.4986957 L14.06,30.9194975 C14.06,30.6620761 13.9301754,30.5333654 13.6705263,30.5333654 L13.6705263,30.5333654 L10.7105263,30.3789126 C10.4508772,30.3789126 10.3210526,30.5076233 10.3210526,30.7650447 L10.3210526,30.7650447 L10.3210526,31.7689882 C10.3210526,32.8244159 10.0159649,33.6739066 9.40578947,34.3174601 C8.79561404,34.9610136 7.99719298,35.2827903 7.01052632,35.2827903 C6.02385965,35.2827903 5.23192982,34.9610136 4.63473684,34.3174601 C4.03754386,33.6739066 3.73894737,32.8244159 3.73894737,31.7689882 L3.73894737,31.7689882 L3.73894737,17.5593267 C3.73894737,16.5038989 4.03754386,15.6544083 4.63473684,15.0108547 C5.23192982,14.3673012 6.02385965,14.0455245 7.01052632,14.0455245 C7.99719298,14.0455245 8.79561404,14.3673012 9.40578947,15.0108547 C10.0159649,15.6544083 10.3210526,16.5038989 10.3210526,17.5593267 L10.3210526,17.5593267 L10.3210526,18.5632701 C10.3210526,18.8206915 10.4508772,18.9494022 10.7105263,18.9494022 L10.7105263,18.9494022 L13.6705263,18.7949494 C13.9301754,18.7949494 14.06,18.6662387 14.06,18.4088173 L14.06,18.4088173 L14.06,17.7910059 C14.06,15.6801504 13.4173684,13.9940402 12.1321053,12.7326753 C10.8468421,11.4713104 9.13964912,10.840628 7.01052632,10.840628 C4.90736842,10.840628 3.21315789,11.4713104 1.92789474,12.7326753 C0.642631579,13.9940402 0,15.6801504 0,17.7910059 L0,17.7910059 L0,31.4986957 C0,33.6095512 0.642631579,35.3020969 1.92789474,36.5763329 C3.21315789,37.8505688 4.90736842,38.4876868 7.01052632,38.4876868 Z M21.4989474,38.1787811 C21.7585965,38.1787811 21.8884211,38.0500704 21.8884211,37.792649 L21.8884211,37.792649 L21.8884211,26.4017519 C21.8884211,26.2987833 21.9403509,26.247299 22.0442105,26.247299 L22.0442105,26.247299 L27.9252632,26.247299 C28.0291228,26.247299 28.0810526,26.2987833 28.0810526,26.4017519 L28.0810526,26.4017519 L28.0810526,37.792649 C28.0810526,38.0500704 28.2108772,38.1787811 28.4705263,38.1787811 L28.4705263,38.1787811 L31.4305263,38.1787811 C31.6901754,38.1787811 31.82,38.0500704 31.82,37.792649 L31.82,37.792649 L31.82,11.5356658 C31.82,11.2782444 31.6901754,11.1495337 31.4305263,11.1495337 L31.4305263,11.1495337 L28.4705263,11.1495337 C28.2108772,11.1495337 28.0810526,11.2782444 28.0810526,11.5356658 L28.0810526,11.5356658 L28.0810526,22.8879497 C28.0810526,22.9909183 28.0291228,23.0424026 27.9252632,23.0424026 L27.9252632,23.0424026 L22.0442105,23.0424026 C21.9403509,23.0424026 21.8884211,22.9909183 21.8884211,22.8879497 L21.8884211,22.8879497 L21.8884211,11.5356658 C21.8884211,11.2782444 21.7585965,11.1495337 21.4989474,11.1495337 L21.4989474,11.1495337 L18.5389474,11.1495337 C18.2792982,11.1495337 18.1494737,11.2782444 18.1494737,11.5356658 L18.1494737,11.5356658 L18.1494737,37.792649 C18.1494737,38.0500704 18.2792982,38.1787811 18.5389474,38.1787811 L18.5389474,38.1787811 L21.4989474,38.1787811 Z M39.9989474,38.1787811 C40.2585965,38.1787811 40.3884211,38.0500704 40.3884211,37.792649 L40.3884211,37.792649 L40.3884211,11.5356658 C40.3884211,11.2782444 40.2585965,11.1495337 39.9989474,11.1495337 L39.9989474,11.1495337 L37.0389474,11.1495337 C36.7792982,11.1495337 36.6494737,11.2782444 36.6494737,11.5356658 L36.6494737,11.5356658 L36.6494737,37.792649 C36.6494737,38.0500704 36.7792982,38.1787811 37.0389474,38.1787811 L37.0389474,38.1787811 L39.9989474,38.1787811 Z M51.6831579,38.4876868 C53.8122807,38.4876868 55.5194737,37.8505688 56.8047368,36.5763329 C58.09,35.3020969 58.7326316,33.6095512 58.7326316,31.4986957 L58.7326316,31.4986957 L58.7326316,30.9194975 C58.7326316,30.6620761 58.602807,30.5333654 58.3431579,30.5333654 L58.3431579,30.5333654 L55.3831579,30.3789126 C55.1235088,30.3789126 54.9936842,30.5076233 54.9936842,30.7650447 L54.9936842,30.7650447 L54.9936842,31.7689882 C54.9936842,32.8244159 54.6885965,33.6739066 54.0784211,34.3174601 C53.4682456,34.9610136 52.6698246,35.2827903 51.6831579,35.2827903 C50.6964912,35.2827903 49.9045614,34.9610136 49.3073684,34.3174601 C48.7101754,33.6739066 48.4115789,32.8244159 48.4115789,31.7689882 L48.4115789,31.7689882 L48.4115789,17.5593267 C48.4115789,16.5038989 48.7101754,15.6544083 49.3073684,15.0108547 C49.9045614,14.3673012 50.6964912,14.0455245 51.6831579,14.0455245 C52.6698246,14.0455245 53.4682456,14.3673012 54.0784211,15.0108547 C54.6885965,15.6544083 54.9936842,16.5038989 54.9936842,17.5593267 L54.9936842,17.5593267 L54.9936842,18.5632701 C54.9936842,18.8206915 55.1235088,18.9494022 55.3831579,18.9494022 L55.3831579,18.9494022 L58.3431579,18.7949494 C58.602807,18.7949494 58.7326316,18.6662387 58.7326316,18.4088173 L58.7326316,18.4088173 L58.7326316,17.7910059 C58.7326316,15.6801504 58.09,13.9940402 56.8047368,12.7326753 C55.5194737,11.4713104 53.8122807,10.840628 51.6831579,10.840628 C49.58,10.840628 47.8857895,11.4713104 46.6005263,12.7326753 C45.3152632,13.9940402 44.6726316,15.6801504 44.6726316,17.7910059 L44.6726316,17.7910059 L44.6726316,31.4986957 C44.6726316,33.6095512 45.3152632,35.3020969 46.6005263,36.5763329 C47.8857895,37.8505688 49.58,38.4876868 51.6831579,38.4876868 Z M64.2242105,38.1787811 C64.4838596,38.1787811 64.6266667,38.0629415 64.6526316,37.8312622 L64.6526316,37.8312622 L65.4705263,33.390743 C65.4705263,33.3392587 65.49,33.3006455 65.5289474,33.2749034 C65.5678947,33.2491612 65.6133333,33.2362902 65.6652632,33.2362902 L65.6652632,33.2362902 L72.0136842,33.2362902 C72.065614,33.2362902 72.1110526,33.2491612 72.15,33.2749034 C72.1889474,33.3006455 72.2084211,33.3392587 72.2084211,33.390743 L72.2084211,33.390743 L73.0652632,37.8312622 C73.117193,38.0629415 73.26,38.1787811 73.4936842,38.1787811 L73.4936842,38.1787811 L76.5315789,38.1787811 C76.7652632,38.1787811 76.8821053,38.0629415 76.8821053,37.8312622 L76.8821053,37.8312622 L76.8821053,37.7540358 L71.04,11.4970526 C71.0140351,11.2653733 70.8712281,11.1495337 70.6115789,11.1495337 L70.6115789,11.1495337 L67.1452632,11.1495337 C66.9115789,11.1495337 66.7687719,11.2653733 66.7168421,11.4970526 L66.7168421,11.4970526 L60.9136842,37.7540358 C60.8877193,37.8827465 60.907193,37.9857151 60.9721053,38.0629415 C61.0370175,38.1401679 61.134386,38.1787811 61.2642105,38.1787811 L61.2642105,38.1787811 L64.2242105,38.1787811 Z M71.4294737,30.3016862 L66.2494737,30.3016862 C66.1715789,30.3016862 66.1326316,30.2502019 66.1326316,30.1472333 L66.1326316,30.1472333 L68.7421053,16.4395435 C68.7680702,16.3880593 68.7940351,16.3623171 68.82,16.3623171 C68.8459649,16.3623171 68.8719298,16.3880593 68.8978947,16.4395435 L68.8978947,16.4395435 L71.5463158,30.1472333 C71.5463158,30.2502019 71.5073684,30.3016862 71.4294737,30.3016862 L71.4294737,30.3016862 Z M86.2684211,38.4876868 C88.3715789,38.4876868 90.0722807,37.8698755 91.3705263,36.6342527 C92.6687719,35.39863 93.3178947,33.7640041 93.3178947,31.730375 L93.3178947,31.730375 L93.3178947,24.586931 C93.3178947,24.3295096 93.1880702,24.2007989 92.9284211,24.2007989 L92.9284211,24.2007989 L86.4631579,24.2007989 C86.2035088,24.2007989 86.0736842,24.3295096 86.0736842,24.586931 L86.0736842,24.586931 L86.0736842,26.98095 C86.0736842,27.2383715 86.2035088,27.3670822 86.4631579,27.3670822 L86.4631579,27.3670822 L89.4231579,27.3670822 C89.5270175,27.3670822 89.5789474,27.4185664 89.5789474,27.521535 L89.5789474,27.521535 L89.5789474,31.7689882 C89.5789474,32.8244159 89.2738596,33.6739066 88.6636842,34.3174601 C88.0535088,34.9610136 87.2550877,35.2827903 86.2684211,35.2827903 C85.2817544,35.2827903 84.4833333,34.9610136 83.8731579,34.3174601 C83.2629825,33.6739066 82.9578947,32.8244159 82.9578947,31.7689882 L82.9578947,31.7689882 L82.9578947,17.5593267 C82.9578947,16.5038989 83.2629825,15.6544083 83.8731579,15.0108547 C84.4833333,14.3673012 85.2817544,14.0455245 86.2684211,14.0455245 C87.2550877,14.0455245 88.0535088,14.3673012 88.6636842,15.0108547 C89.2738596,15.6544083 89.5789474,16.5038989 89.5789474,17.5593267 L89.5789474,17.5593267 L89.5789474,19.2583079 C89.5789474,19.5157293 89.7087719,19.64444 89.9684211,19.64444 L89.9684211,19.64444 L92.9284211,19.64444 C93.1880702,19.64444 93.3178947,19.5157293 93.3178947,19.2583079 L93.3178947,19.2583079 L93.3178947,17.6365531 C93.3178947,15.5771818 92.6687719,13.9296849 91.3705263,12.6940621 C90.0722807,11.4584394 88.3715789,10.840628 86.2684211,10.840628 C84.1652632,10.840628 82.4710526,11.4584394 81.1857895,12.6940621 C79.9005263,13.9296849 79.2578947,15.5643108 79.2578947,17.5979399 L79.2578947,17.5979399 L79.2578947,31.730375 C79.2578947,33.7640041 79.9005263,35.39863 81.1857895,36.6342527 C82.4710526,37.8698755 84.1652632,38.4876868 86.2684211,38.4876868 Z M104.145263,38.4876868 C106.300351,38.4876868 108.033509,37.8441333 109.344737,36.5570263 C110.655965,35.2699193 111.311579,33.5580669 111.311579,31.4214693 L111.311579,31.4214693 L111.311579,17.9454588 C111.311579,15.8088611 110.655965,14.0905732 109.344737,12.7905951 C108.033509,11.490617 106.300351,10.840628 104.145263,10.840628 C102.01614,10.840628 100.302456,11.490617 99.0042105,12.7905951 C97.7059649,14.0905732 97.0568421,15.8088611 97.0568421,17.9454588 L97.0568421,17.9454588 L97.0568421,31.4214693 C97.0568421,33.5580669 97.7059649,35.2699193 99.0042105,36.5570263 C100.302456,37.8441333 102.01614,38.4876868 104.145263,38.4876868 Z M104.145263,35.2827903 C103.132632,35.2827903 102.321228,34.941707 101.711053,34.2595403 C101.100877,33.5773735 100.795789,32.6828342 100.795789,31.5759221 L100.795789,31.5759221 L100.795789,17.7523927 C100.795789,16.6454807 101.100877,15.7509413 101.711053,15.0687746 C102.321228,14.3866078 103.132632,14.0455245 104.145263,14.0455245 C105.18386,14.0455245 106.014737,14.3866078 106.637895,15.0687746 C107.261053,15.7509413 107.572632,16.6454807 107.572632,17.7523927 L107.572632,17.7523927 L107.572632,31.5759221 C107.572632,32.6828342 107.261053,33.5773735 106.637895,34.2595403 C106.014737,34.941707 105.18386,35.2827903 104.145263,35.2827903 Z M115.829474,19.3355343 C116.063158,19.3355343 116.218947,19.2325658 116.296842,19.0266287 L116.296842,19.0266287 L118.711579,11.574279 C118.789474,11.2911155 118.685614,11.1495337 118.4,11.1495337 L118.4,11.1495337 L115.44,11.1495337 C115.206316,11.1495337 115.063509,11.2653733 115.011579,11.4970526 L115.011579,11.4970526 L113.297895,18.910789 C113.245965,19.0394997 113.252456,19.1424683 113.317368,19.2196947 C113.382281,19.2969211 113.479649,19.3355343 113.609474,19.3355343 L113.609474,19.3355343 L115.829474,19.3355343 Z M127.202105,38.4876868 C129.253333,38.4876868 130.915088,37.8376978 132.187368,36.5377197 C133.459649,35.2377416 134.095789,33.5065826 134.095789,31.3442429 C134.095789,30.1601044 133.881579,29.1368543 133.453158,28.2744926 C133.024737,27.4121309 132.414561,26.6205601 131.622632,25.8997802 C130.830702,25.1790002 129.655789,24.2394121 128.097895,23.0810158 C126.462105,21.8968773 125.358596,20.9508537 124.787368,20.2429448 C124.21614,19.5350359 123.930526,18.6662387 123.930526,17.6365531 C123.930526,16.5038989 124.21614,15.6222306 124.787368,14.9915481 C125.358596,14.3608657 126.098596,14.0455245 127.007368,14.0455245 C127.96807,14.0455245 128.747018,14.3994789 129.344211,15.1073878 C129.941404,15.8152966 130.24,16.7484492 130.24,17.9068455 L130.24,17.9068455 L130.24,18.9494022 C130.24,19.2068236 130.369825,19.3355343 130.629474,19.3355343 L130.629474,19.3355343 L133.511579,19.3355343 C133.771228,19.3355343 133.901053,19.2068236 133.901053,18.9494022 L133.901053,18.9494022 L133.901053,17.984072 C133.901053,15.8474743 133.271404,14.1227509 132.012105,12.8099017 C130.752807,11.4970526 129.084561,10.840628 127.007368,10.840628 C125.00807,10.840628 123.385263,11.4520038 122.138947,12.6747555 C120.892632,13.8975072 120.269474,15.5514397 120.269474,17.6365531 C120.269474,18.9494022 120.529123,20.0949275 121.048421,21.0731288 C121.567719,22.0513302 122.20386,22.8879497 122.956842,23.5829875 C123.709825,24.2780253 124.748421,25.1146449 126.072632,26.0928462 C127.267018,26.968079 128.130351,27.6309391 128.662632,28.0814266 C129.194912,28.531914 129.623333,29.0403213 129.947895,29.6066484 C130.272456,30.1729755 130.434737,30.8294 130.434737,31.5759221 C130.434737,32.6828342 130.129649,33.5773735 129.519474,34.2595403 C128.909298,34.941707 128.136842,35.2827903 127.202105,35.2827903 C126.267368,35.2827903 125.501404,34.9288359 124.904211,34.220927 C124.307018,33.5130182 124.008421,32.5669945 124.008421,31.3828561 L124.008421,31.3828561 L124.008421,30.5719786 C124.008421,30.3145572 123.878596,30.1858465 123.618947,30.1858465 L123.618947,30.1858465 L120.736842,30.1858465 C120.477193,30.1858465 120.347368,30.3145572 120.347368,30.5719786 L120.347368,30.5719786 L120.347368,31.5759221 C120.347368,33.6352934 120.977018,35.3020969 122.236316,36.5763329 C123.495614,37.8505688 125.150877,38.4876868 127.202105,38.4876868 Z M297.012632,38.1787811 C297.272281,38.1787811 297.402105,38.0500704 297.402105,37.792649 L297.402105,37.792649 L297.363158,20.2622514 C297.363158,20.2107671 297.389123,20.1785894 297.441053,20.1657184 C297.492982,20.1528473 297.53193,20.1721539 297.557895,20.2236382 L297.557895,20.2236382 L304.178947,37.8698755 C304.256842,38.0758126 304.399649,38.1787811 304.607368,38.1787811 L304.607368,38.1787811 L307.956842,38.1787811 C308.216491,38.1787811 308.346316,38.0500704 308.346316,37.792649 L308.346316,37.792649 L308.346316,11.5356658 C308.346316,11.2782444 308.216491,11.1495337 307.956842,11.1495337 L307.956842,11.1495337 L305.035789,11.1495337 C304.77614,11.1495337 304.646316,11.2782444 304.646316,11.5356658 L304.646316,11.5356658 L304.646316,29.0660634 C304.646316,29.1432898 304.620351,29.1883386 304.568421,29.2012097 C304.516491,29.2140807 304.477544,29.1819031 304.451579,29.1046766 L304.451579,29.1046766 L297.791579,11.4584394 C297.713684,11.2525022 297.570877,11.1495337 297.363158,11.1495337 L297.363158,11.1495337 L294.052632,11.1495337 C293.792982,11.1495337 293.663158,11.2782444 293.663158,11.5356658 L293.663158,11.5356658 L293.663158,37.792649 C293.663158,38.0500704 293.792982,38.1787811 294.052632,38.1787811 L294.052632,38.1787811 L297.012632,38.1787811 Z M325.833684,38.1787811 C326.093333,38.1787811 326.223158,38.0500704 326.223158,37.792649 L326.223158,37.792649 L326.223158,35.3600168 C326.223158,35.1025954 326.093333,34.9738847 325.833684,34.9738847 L325.833684,34.9738847 L317.070526,34.9738847 C316.966667,34.9738847 316.914737,34.9224004 316.914737,34.8194318 L316.914737,34.8194318 L316.914737,26.4017519 C316.914737,26.2987833 316.966667,26.247299 317.070526,26.247299 L317.070526,26.247299 L322.445263,26.247299 C322.704912,26.247299 322.834737,26.1185883 322.834737,25.8611669 L322.834737,25.8611669 L322.834737,23.4285347 C322.834737,23.1711133 322.704912,23.0424026 322.445263,23.0424026 L322.445263,23.0424026 L317.070526,23.0424026 C316.966667,23.0424026 316.914737,22.9909183 316.914737,22.8879497 L316.914737,22.8879497 L316.914737,14.508883 C316.914737,14.4059144 316.966667,14.3544302 317.070526,14.3544302 L317.070526,14.3544302 L325.833684,14.3544302 C326.093333,14.3544302 326.223158,14.2257195 326.223158,13.9682981 L326.223158,13.9682981 L326.223158,11.5356658 C326.223158,11.2782444 326.093333,11.1495337 325.833684,11.1495337 L325.833684,11.1495337 L313.565263,11.1495337 C313.305614,11.1495337 313.175789,11.2782444 313.175789,11.5356658 L313.175789,11.5356658 L313.175789,37.792649 C313.175789,38.0500704 313.305614,38.1787811 313.565263,38.1787811 L313.565263,38.1787811 L325.833684,38.1787811 Z M336.972632,38.1787811 C337.206316,38.1787811 337.33614,38.0629415 337.362105,37.8312622 L337.362105,37.8312622 L340.166316,19.5672136 C340.166316,19.5157293 340.185789,19.4899872 340.224737,19.4899872 C340.263684,19.4899872 340.29614,19.5157293 340.322105,19.5672136 L340.322105,19.5672136 L343.282105,37.8312622 C343.334035,38.0629415 343.46386,38.1787811 343.671579,38.1787811 L343.671579,38.1787811 L346.436842,38.1787811 C346.696491,38.1787811 346.839298,38.0629415 346.865263,37.8312622 L346.865263,37.8312622 L351.772632,11.574279 C351.798596,11.4455683 351.779123,11.3425997 351.714211,11.2653733 C351.649298,11.1881469 351.55193,11.1495337 351.422105,11.1495337 L351.422105,11.1495337 L348.384211,11.1495337 C348.176491,11.1495337 348.046667,11.2653733 347.994737,11.4970526 L347.994737,11.4970526 L345.112632,29.6066484 C345.086667,29.6581327 345.060702,29.6838748 345.034737,29.6838748 C345.008772,29.6838748 344.982807,29.6581327 344.956842,29.6066484 L344.956842,29.6066484 L341.957895,11.4970526 C341.93193,11.2653733 341.802105,11.1495337 341.568421,11.1495337 L341.568421,11.1495337 L338.958947,11.1495337 C338.725263,11.1495337 338.595439,11.2653733 338.569474,11.4970526 L338.569474,11.4970526 L335.765263,29.6066484 C335.739298,29.6581327 335.713333,29.6838748 335.687368,29.6838748 C335.661404,29.6838748 335.635439,29.6581327 335.609474,29.6066484 L335.609474,29.6066484 L332.454737,11.4970526 C332.428772,11.2653733 332.285965,11.1495337 332.026316,11.1495337 L332.026316,11.1495337 L328.949474,11.1495337 C328.715789,11.1495337 328.598947,11.2653733 328.598947,11.4970526 L328.598947,11.4970526 L328.598947,11.574279 L333.778947,37.8312622 C333.830877,38.0629415 333.973684,38.1787811 334.207368,38.1787811 L334.207368,38.1787811 L336.972632,38.1787811 Z M361.081053,38.4876868 C363.132281,38.4876868 364.794035,37.8376978 366.066316,36.5377197 C367.338596,35.2377416 367.974737,33.5065826 367.974737,31.3442429 C367.974737,30.1601044 367.760526,29.1368543 367.332105,28.2744926 C366.903684,27.4121309 366.293509,26.6205601 365.501579,25.8997802 C364.709649,25.1790002 363.534737,24.2394121 361.976842,23.0810158 C360.341053,21.8968773 359.237544,20.9508537 358.666316,20.2429448 C358.095088,19.5350359 357.809474,18.6662387 357.809474,17.6365531 C357.809474,16.5038989 358.095088,15.6222306 358.666316,14.9915481 C359.237544,14.3608657 359.977544,14.0455245 360.886316,14.0455245 C361.847018,14.0455245 362.625965,14.3994789 363.223158,15.1073878 C363.820351,15.8152966 364.118947,16.7484492 364.118947,17.9068455 L364.118947,17.9068455 L364.118947,18.9494022 C364.118947,19.2068236 364.248772,19.3355343 364.508421,19.3355343 L364.508421,19.3355343 L367.390526,19.3355343 C367.650175,19.3355343 367.78,19.2068236 367.78,18.9494022 L367.78,18.9494022 L367.78,17.984072 C367.78,15.8474743 367.150351,14.1227509 365.891053,12.8099017 C364.631754,11.4970526 362.963509,10.840628 360.886316,10.840628 C358.887018,10.840628 357.264211,11.4520038 356.017895,12.6747555 C354.771579,13.8975072 354.148421,15.5514397 354.148421,17.6365531 C354.148421,18.9494022 354.40807,20.0949275 354.927368,21.0731288 C355.446667,22.0513302 356.082807,22.8879497 356.835789,23.5829875 C357.588772,24.2780253 358.627368,25.1146449 359.951579,26.0928462 C361.145965,26.968079 362.009298,27.6309391 362.541579,28.0814266 C363.07386,28.531914 363.502281,29.0403213 363.826842,29.6066484 C364.151404,30.1729755 364.313684,30.8294 364.313684,31.5759221 C364.313684,32.6828342 364.008596,33.5773735 363.398421,34.2595403 C362.788246,34.941707 362.015789,35.2827903 361.081053,35.2827903 C360.146316,35.2827903 359.380351,34.9288359 358.783158,34.220927 C358.185965,33.5130182 357.887368,32.5669945 357.887368,31.3828561 L357.887368,31.3828561 L357.887368,30.5719786 C357.887368,30.3145572 357.757544,30.1858465 357.497895,30.1858465 L357.497895,30.1858465 L354.615789,30.1858465 C354.35614,30.1858465 354.226316,30.3145572 354.226316,30.5719786 L354.226316,30.5719786 L354.226316,31.5759221 C354.226316,33.6352934 354.855965,35.3020969 356.115263,36.5763329 C357.374561,37.8505688 359.029825,38.4876868 361.081053,38.4876868 Z M385.462105,38.4876868 C387.513333,38.4876868 389.175088,37.8376978 390.447368,36.5377197 C391.719649,35.2377416 392.355789,33.5065826 392.355789,31.3442429 C392.355789,30.1601044 392.141579,29.1368543 391.713158,28.2744926 C391.284737,27.4121309 390.674561,26.6205601 389.882632,25.8997802 C389.090702,25.1790002 387.915789,24.2394121 386.357895,23.0810158 C384.722105,21.8968773 383.618596,20.9508537 383.047368,20.2429448 C382.47614,19.5350359 382.190526,18.6662387 382.190526,17.6365531 C382.190526,16.5038989 382.47614,15.6222306 383.047368,14.9915481 C383.618596,14.3608657 384.358596,14.0455245 385.267368,14.0455245 C386.22807,14.0455245 387.007018,14.3994789 387.604211,15.1073878 C388.201404,15.8152966 388.5,16.7484492 388.5,17.9068455 L388.5,17.9068455 L388.5,18.9494022 C388.5,19.2068236 388.629825,19.3355343 388.889474,19.3355343 L388.889474,19.3355343 L391.771579,19.3355343 C392.031228,19.3355343 392.161053,19.2068236 392.161053,18.9494022 L392.161053,18.9494022 L392.161053,17.984072 C392.161053,15.8474743 391.531404,14.1227509 390.272105,12.8099017 C389.012807,11.4970526 387.344561,10.840628 385.267368,10.840628 C383.26807,10.840628 381.645263,11.4520038 380.398947,12.6747555 C379.152632,13.8975072 378.529474,15.5514397 378.529474,17.6365531 C378.529474,18.9494022 378.789123,20.0949275 379.308421,21.0731288 C379.827719,22.0513302 380.46386,22.8879497 381.216842,23.5829875 C381.969825,24.2780253 383.008421,25.1146449 384.332632,26.0928462 C385.527018,26.968079 386.390351,27.6309391 386.922632,28.0814266 C387.454912,28.531914 387.883333,29.0403213 388.207895,29.6066484 C388.532456,30.1729755 388.694737,30.8294 388.694737,31.5759221 C388.694737,32.6828342 388.389649,33.5773735 387.779474,34.2595403 C387.169298,34.941707 386.396842,35.2827903 385.462105,35.2827903 C384.527368,35.2827903 383.761404,34.9288359 383.164211,34.220927 C382.567018,33.5130182 382.268421,32.5669945 382.268421,31.3828561 L382.268421,31.3828561 L382.268421,30.5719786 C382.268421,30.3145572 382.138596,30.1858465 381.878947,30.1858465 L381.878947,30.1858465 L378.996842,30.1858465 C378.737193,30.1858465 378.607368,30.3145572 378.607368,30.5719786 L378.607368,30.5719786 L378.607368,31.5759221 C378.607368,33.6352934 379.237018,35.3020969 380.496316,36.5763329 C381.755614,37.8505688 383.410877,38.4876868 385.462105,38.4876868 Z M402.676842,38.4876868 C404.83193,38.4876868 406.565088,37.8441333 407.876316,36.5570263 C409.187544,35.2699193 409.843158,33.5580669 409.843158,31.4214693 L409.843158,31.4214693 L409.843158,17.9454588 C409.843158,15.8088611 409.187544,14.0905732 407.876316,12.7905951 C406.565088,11.490617 404.83193,10.840628 402.676842,10.840628 C400.547719,10.840628 398.834035,11.490617 397.535789,12.7905951 C396.237544,14.0905732 395.588421,15.8088611 395.588421,17.9454588 L395.588421,17.9454588 L395.588421,31.4214693 C395.588421,33.5580669 396.237544,35.2699193 397.535789,36.5570263 C398.834035,37.8441333 400.547719,38.4876868 402.676842,38.4876868 Z M402.676842,35.2827903 C401.664211,35.2827903 400.852807,34.941707 400.242632,34.2595403 C399.632456,33.5773735 399.327368,32.6828342 399.327368,31.5759221 L399.327368,31.5759221 L399.327368,17.7523927 C399.327368,16.6454807 399.632456,15.7509413 400.242632,15.0687746 C400.852807,14.3866078 401.664211,14.0455245 402.676842,14.0455245 C403.715439,14.0455245 404.546316,14.3866078 405.169474,15.0687746 C405.792632,15.7509413 406.104211,16.6454807 406.104211,17.7523927 L406.104211,17.7523927 L406.104211,31.5759221 C406.104211,32.6828342 405.792632,33.5773735 405.169474,34.2595403 C404.546316,34.941707 403.715439,35.2827903 402.676842,35.2827903 Z M420.982105,38.4876868 C423.111228,38.4876868 424.824912,37.7862135 426.123158,36.3832668 C427.421404,34.9803202 428.070526,33.1333216 428.070526,30.8422711 L428.070526,30.8422711 L428.070526,11.5356658 C428.070526,11.2782444 427.940702,11.1495337 427.681053,11.1495337 L427.681053,11.1495337 L424.721053,11.1495337 C424.461404,11.1495337 424.331579,11.2782444 424.331579,11.5356658 L424.331579,11.5356658 L424.331579,31.2284032 C424.331579,32.4382838 424.026491,33.4164852 423.416316,34.1630072 C422.80614,34.9095293 421.994737,35.2827903 420.982105,35.2827903 C419.995439,35.2827903 419.197018,34.9095293 418.586842,34.1630072 C417.976667,33.4164852 417.671579,32.4382838 417.671579,31.2284032 L417.671579,31.2284032 L417.671579,11.5356658 C417.671579,11.2782444 417.541754,11.1495337 417.282105,11.1495337 L417.282105,11.1495337 L414.322105,11.1495337 C414.062456,11.1495337 413.932632,11.2782444 413.932632,11.5356658 L413.932632,11.5356658 L413.932632,30.8422711 C413.932632,33.1333216 414.575263,34.9803202 415.860526,36.3832668 C417.145789,37.7862135 418.852982,38.4876868 420.982105,38.4876868 Z M436.054737,38.1787811 C436.314386,38.1787811 436.444211,38.0500704 436.444211,37.792649 L436.444211,37.792649 L436.444211,26.4017519 C436.444211,26.2987833 436.49614,26.247299 436.6,26.247299 L436.6,26.247299 L439.326316,26.247299 C439.404211,26.247299 439.45614,26.2859123 439.482105,26.3631387 L439.482105,26.3631387 L443.065263,37.8698755 C443.143158,38.0758126 443.298947,38.1787811 443.532632,38.1787811 L443.532632,38.1787811 L446.570526,38.1787811 C446.804211,38.1787811 446.921053,38.0886836 446.921053,37.9084887 L446.921053,37.9084887 L446.882105,37.7540358 L442.909474,25.8997802 C442.883509,25.8225537 442.909474,25.7453273 442.987368,25.6681009 C444.155789,25.1275159 445.077544,24.2587187 445.752632,23.0617092 C446.427719,21.8646996 446.765263,20.4553174 446.765263,18.8335626 C446.765263,17.3405185 446.48614,16.0083627 445.927895,14.8370953 C445.369649,13.6658279 444.584211,12.7584175 443.571579,12.114864 C442.558947,11.4713104 441.390526,11.1495337 440.066316,11.1495337 L440.066316,11.1495337 L433.094737,11.1495337 C432.835088,11.1495337 432.705263,11.2782444 432.705263,11.5356658 L432.705263,11.5356658 L432.705263,37.792649 C432.705263,38.0500704 432.835088,38.1787811 433.094737,38.1787811 L433.094737,38.1787811 L436.054737,38.1787811 Z M439.482105,23.312695 L436.6,23.312695 C436.49614,23.312695 436.444211,23.2612108 436.444211,23.1582422 L436.444211,23.1582422 L436.444211,14.508883 C436.444211,14.4059144 436.49614,14.3544302 436.6,14.3544302 L436.6,14.3544302 L439.482105,14.3544302 C440.546667,14.3544302 441.403509,14.7598689 442.052632,15.5707463 C442.701754,16.3816237 443.026316,17.4821002 443.026316,18.8721758 C443.026316,20.2107671 442.701754,21.2855015 442.052632,22.0963789 C441.403509,22.9072563 440.546667,23.312695 439.482105,23.312695 L439.482105,23.312695 Z M456.813684,38.4876868 C458.942807,38.4876868 460.65,37.8505688 461.935263,36.5763329 C463.220526,35.3020969 463.863158,33.6095512 463.863158,31.4986957 L463.863158,31.4986957 L463.863158,30.9194975 C463.863158,30.6620761 463.733333,30.5333654 463.473684,30.5333654 L463.473684,30.5333654 L460.513684,30.3789126 C460.254035,30.3789126 460.124211,30.5076233 460.124211,30.7650447 L460.124211,30.7650447 L460.124211,31.7689882 C460.124211,32.8244159 459.819123,33.6739066 459.208947,34.3174601 C458.598772,34.9610136 457.800351,35.2827903 456.813684,35.2827903 C455.827018,35.2827903 455.035088,34.9610136 454.437895,34.3174601 C453.840702,33.6739066 453.542105,32.8244159 453.542105,31.7689882 L453.542105,31.7689882 L453.542105,17.5593267 C453.542105,16.5038989 453.840702,15.6544083 454.437895,15.0108547 C455.035088,14.3673012 455.827018,14.0455245 456.813684,14.0455245 C457.800351,14.0455245 458.598772,14.3673012 459.208947,15.0108547 C459.819123,15.6544083 460.124211,16.5038989 460.124211,17.5593267 L460.124211,17.5593267 L460.124211,18.5632701 C460.124211,18.8206915 460.254035,18.9494022 460.513684,18.9494022 L460.513684,18.9494022 L463.473684,18.7949494 C463.733333,18.7949494 463.863158,18.6662387 463.863158,18.4088173 L463.863158,18.4088173 L463.863158,17.7910059 C463.863158,15.6801504 463.220526,13.9940402 461.935263,12.7326753 C460.65,11.4713104 458.942807,10.840628 456.813684,10.840628 C454.710526,10.840628 453.016316,11.4713104 451.731053,12.7326753 C450.445789,13.9940402 449.803158,15.6801504 449.803158,17.7910059 L449.803158,17.7910059 L449.803158,31.4986957 C449.803158,33.6095512 450.445789,35.3020969 451.731053,36.5763329 C453.016316,37.8505688 454.710526,38.4876868 456.813684,38.4876868 Z M480.610526,38.1787811 C480.870175,38.1787811 481,38.0500704 481,37.792649 L481,37.792649 L481,35.3600168 C481,35.1025954 480.870175,34.9738847 480.610526,34.9738847 L480.610526,34.9738847 L471.847368,34.9738847 C471.743509,34.9738847 471.691579,34.9224004 471.691579,34.8194318 L471.691579,34.8194318 L471.691579,26.4017519 C471.691579,26.2987833 471.743509,26.247299 471.847368,26.247299 L471.847368,26.247299 L477.222105,26.247299 C477.481754,26.247299 477.611579,26.1185883 477.611579,25.8611669 L477.611579,25.8611669 L477.611579,23.4285347 C477.611579,23.1711133 477.481754,23.0424026 477.222105,23.0424026 L477.222105,23.0424026 L471.847368,23.0424026 C471.743509,23.0424026 471.691579,22.9909183 471.691579,22.8879497 L471.691579,22.8879497 L471.691579,14.508883 C471.691579,14.4059144 471.743509,14.3544302 471.847368,14.3544302 L471.847368,14.3544302 L480.610526,14.3544302 C480.870175,14.3544302 481,14.2257195 481,13.9682981 L481,13.9682981 L481,11.5356658 C481,11.2782444 480.870175,11.1495337 480.610526,11.1495337 L480.610526,11.1495337 L468.342105,11.1495337 C468.082456,11.1495337 467.952632,11.2782444 467.952632,11.5356658 L467.952632,11.5356658 L467.952632,37.792649 C467.952632,38.0500704 468.082456,38.1787811 468.342105,38.1787811 L468.342105,38.1787811 L480.610526,38.1787811 Z" id="CHICAGO’SNEWSSOURCE" fill-rule="nonzero"></path>
                    <path d="M215.897925,11.8012011 C223.317244,11.8012011 227.02384,15.8292849 227.02384,23.8794134 C227.02384,27.6291732 226.000917,30.5245307 223.951344,32.548419 C221.897775,34.5765084 219.099585,35.5900279 215.549583,35.5900279 C213.838498,35.5900279 212.282676,35.2510503 210.877056,34.5814972 L210.877056,34.5814972 L210.877056,41.4067374 L205.446857,41.4067374 L205.446857,12.1892793 L210.877056,12.1892793 L210.877056,13.7292514 C212.237668,12.4460726 213.911202,11.8012011 215.897925,11.8012011 Z M171.993479,11.8012011 C174.755983,11.8012011 176.94271,12.616743 178.542208,14.2538659 C180.141973,15.8831117 180.944918,18.1637933 180.944918,21.0835698 L180.944918,21.0835698 L180.944918,35.1373575 L175.515518,35.1373575 L175.515518,21.9290447 C175.515518,19.978676 175.134685,18.5568603 174.373286,17.6586089 C173.613484,16.7642961 172.370051,16.3142514 170.644319,16.3142514 C169.847233,16.3142514 168.995285,16.5355978 168.090341,16.9772402 C167.185397,17.4154693 166.476994,17.9668659 165.968063,18.6177765 L165.968063,18.6177765 L165.968063,35.1373575 L160.541859,35.1373575 L160.541859,12.1892793 L164.453786,12.1892793 L165.454072,14.329486 C166.931331,12.6437877 169.110601,11.8012011 171.993479,11.8012011 Z M265.450151,11.8012011 C267.291997,11.8012011 268.705873,12.0800503 269.685652,12.6366983 L269.685652,12.6366983 L267.394795,17.2172291 C266.427799,16.6151564 265.369989,16.3142514 264.215506,16.3142514 C262.964084,16.3142514 261.85088,16.8764134 260.877226,18.0012626 C259.903838,19.1258492 259.420473,20.4977765 259.420473,22.119933 L259.420473,22.119933 L259.420473,35.1373575 L253.99134,35.1373575 L253.99134,12.1892793 L259.420473,12.1892793 L259.420473,14.3817374 C260.932886,12.6605922 262.941447,11.8012011 265.450151,11.8012011 Z M214.342636,16.3772682 C213.041412,16.3772682 211.885864,16.8798268 210.877056,17.8736536 L210.877056,17.8736536 L210.877056,29.9017151 C211.857101,30.6857486 213.006524,31.0775028 214.321064,31.0775028 C216.817251,31.0775028 218.61116,30.4880335 219.703059,29.3153966 C220.790697,28.1403966 221.336646,26.2840279 221.336646,23.7512793 C221.336646,21.0423464 220.794958,19.1387151 219.714511,18.0353966 C218.630868,16.9307654 216.838822,16.3772682 214.342636,16.3772682 Z M148.555742,44.766581 L191.920896,44.766581 L191.920896,2.01522346 L148.555742,2.01522346 L148.555742,44.766581 Z M193.964345,44.766581 L237.234424,44.766581 L237.234424,2.01522346 L193.964345,2.01522346 L193.964345,44.766581 Z M239.371083,44.766581 L282.641163,44.766581 L282.641163,2.01522346 L239.371083,2.01522346 L239.371083,44.766581 Z M146.511494,46.7818045 L284.68541,46.7818045 L284.68541,1.08044292e-13 L146.511494,1.08044292e-13 L146.511494,46.7818045 Z" id="npr-logo--border" fill-rule="evenodd"></path>
                </g>
            </g>
        </g>
    </g>
</svg>